<?xml version="1.0" encoding="utf-8"?>
<!-- Generator: Adobe Illustrator 24.2.3, SVG Export Plug-In . SVG Version: 6.00 Build 0)  -->
<svg version="1.1" id="Calque_1" xmlns="http://www.w3.org/2000/svg" xmlns:xlink="http://www.w3.org/1999/xlink" x="0px" y="0px"
	 viewBox="0 0 2000 1239.9" style="enable-background:new 0 0 2000 1239.9;" xml:space="preserve">
<style type="text/css">
	.st0{clip-path:url(#SVGID_2_);}
	.st1{fill:#65B3C6;}
	.st2{opacity:0.5;fill:#FFF8F3;enable-background:new    ;}
	.st3{fill:#016589;}
	.st4{fill:#86B1F2;}
	.st5{fill:#012968;}
	.st6{fill:#FFF8F3;}
	.st7{fill:#F7EDE7;}
	.st8{fill:#05173E;}
	.st9{fill:#2962A3;}
	.st10{fill:#5286BA;}
	.st11{fill:#000A53;}
	.st12{fill:#FF7768;}
	.st13{fill:#FFBF91;}
	.st14{fill:#F47458;}
	.st15{fill:#F8A492;}
	.st16{fill:#F7A491;}
	.st17{fill:#FE875E;}
	.st18{opacity:0.5;fill:#05173E;enable-background:new    ;}
	.st19{fill:#FF5B51;}
	.st20{fill:#EDE4DF;}
</style>
<g id="_x2014_ÎÓÈ_x5F_2">
</g>
<g id="Layer_1">
	<g>
		<g>
			<defs>
				<rect id="SVGID_1_" y="-325.8" width="2000" height="1811.2"/>
			</defs>
			<clipPath id="SVGID_2_">
				<use xlink:href="#SVGID_1_"  style="overflow:visible;"/>
			</clipPath>
			<g class="st0">
				<rect x="-116.3" y="98.1" class="st1" width="2232.7" height="838.8"/>
				<g>
					<path class="st2" d="M757.2,737.6c0,0,53.4-86,73.8-89.8c20.4-3.8,37.8,31.3,37.8,31.3s9.2-8,23.4-4.9s90.2,74.5,90.2,74.5
						l-229.1-2.9L757.2,737.6z"/>
					<g>
						<path class="st3" d="M932.5,746.5c-54.2,0-125.4-70.9-172.8-78.8c-28.1-4.7-135.7,40.5-154.4,64.8l79.1,15.1l366.2-1.1
							c-6.6-0.3-14.6-0.9-23-2.4C1007.3,740.5,986.7,746.5,932.5,746.5z"/>
						<path class="st4" d="M1066.3,726.7h-15.7C1060,727.1,1066.3,726.7,1066.3,726.7z"/>
					</g>
					<g>
						<path class="st3" d="M849.6,736.9c54.2,0,125.4-70.9,172.8-78.8c28.1-4.7,72.3,35.6,90.9,59.9l-15.7,20l-366.2-1.1
							c6.6-0.3,14.6-0.9,23-2.4C774.8,730.9,795.4,736.9,849.6,736.9z"/>
						<path class="st4" d="M715.8,717.1h15.7C722.1,717.5,715.8,717.1,715.8,717.1z"/>
					</g>
					<path class="st2" d="M1278.3,746.9c0,0-53.4-86-73.8-89.8s-37.8,31.3-37.8,31.3s-9.2-8-23.4-4.9c-14.2,3.1-90.2,74.5-90.2,74.5
						l229.1-2.9L1278.3,746.9z"/>
					<path class="st5" d="M686.2,727.8c0,0,52-45.2,119.1-47.9c29.4-1.2,265.8,47.6,288.1,48.5L686.2,727.8z"/>
					<path class="st5" d="M1002.2,747.7c0,0,52-45.2,119.1-47.9c22.5-0.9,277,48.1,288.1,48.5L1002.2,747.7z"/>
				</g>
				<path class="st3" d="M393.1,766.5c0,0,350.9-118.2,1226.3,0l-176.3,123.1L635.9,890c0,0-227.5,36-225.8,19.7
					C411.8,893.5,393.1,766.5,393.1,766.5z"/>
				<path class="st6" d="M1279.9,748.4c19.4-49.1,68.5-19.4,68.5-19.4c28.5-34.2,57.5-12.8,57.5-12.8s-14.1-43.1,44.1-64.7
					c58.2-21.7,91.3,23,91.3,23c22.8-151.6,149.5-108.5,149.5-108.5c27.4-103.8,125.5-20.5,125.5-20.5s-54.8-77.6,6.8-151.1
					c61.6-73.5,184.2-16.6,184.2-16.6c47.9-63.9,107.9,30.8,107.9,30.8s0.4,0.9,1.2,2.6v513.6c-51.6,3.2-121.8,6.2-132.4,6.2
					c-17.1,0-366.2-114.1-366.2-114.1S1260.5,797.4,1279.9,748.4z"/>
				<path class="st7" d="M2116.3,479.2c-35.6-20.5-167.3-73.9-215.8-16.1c-61.6,73.5-6.8,151.1-6.8,151.1s-98.1-83.3-125.5,20.5
					c0,0-126.6-43-149.5,108.5c0,0-33.1-44.7-91.3-23c-58.2,21.7-36.5,77.6-36.5,77.6s-36.5-34.2-65,0c0,0-49.1-29.7-68.5,19.4
					c-19.4,49.1,337.7,68.5,337.7,68.5s349.1,114.1,366.2,114.1c2,0,49.2-9.3,54.9-9.5V479.2H2116.3z"/>
				<path class="st6" d="M720.1,748.4c-19.4-49.1-68.5-19.4-68.5-19.4c-28.5-34.2-65,0-65,0s21.7-55.9-36.5-77.6
					c-58.2-21.7-91.3,23-91.3,23C436,522.8,309.3,565.8,309.3,565.8c-27.4-103.8-125.5-20.5-125.5-20.5s54.8-77.6-6.8-151.1
					S-7.2,377.6-7.2,377.6c-47.9-63.9-107.9,30.8-107.9,30.8s-0.4,0.9-1.2,2.6v513.6c51.6,3.2,121.8,6.2,132.4,6.2
					c17.1,0,366.2-114.1,366.2-114.1S739.5,797.4,720.1,748.4z"/>
				<path class="st7" d="M-116.3,479.2c35.6-20.5,167.3-73.9,215.8-16.1c61.6,73.5,6.8,151.1,6.8,151.1s98.1-83.3,125.5,20.5
					c0,0,126.6-43,149.5,108.5c0,0,33.1-44.7,91.3-23s36.5,77.6,36.5,77.6s36.5-34.2,65,0c0,0,49.1-29.7,68.5,19.4
					s-337.7,68.5-337.7,68.5S-44.3,999.9-61.4,999.9c-2,0-49.2-9.3-54.9-9.5V479.2z"/>
				<path class="st8" d="M-116.3,871.7L-116.3,871.7v335.4h1116h0.6h1116V871.7l0,0C1382.8,693.7,617.2,693.7-116.3,871.7z"/>
				<path class="st8" d="M999.9,72.6H-116.3v178.3c647.7,154.3,1585,154.3,2232.7,0V72.6H999.9z"/>
				<path class="st9" d="M-116.3,0v218.7c647.2,154.3,1585.5,154.5,2232.7,0.2V0H-116.3z"/>
				<polygon class="st3" points="1032.2,287.8 775,287.8 723.4,21.1 1030.7,21.1 				"/>
				<polygon class="st3" points="760.4,288.1 503.3,288.1 398.6,21.4 705.9,21.4 				"/>
				<polygon class="st3" points="1046.9,287.8 1304,287.8 1355.7,21.1 1048.3,21.1 				"/>
				<polygon class="st3" points="1318.7,288.1 1575.8,288.1 1680.5,21.4 1373.2,21.4 				"/>
				<polygon class="st10" points="610.3,1104.2 265,1109.7 -3.8,1239.9 507.6,1239.9 				"/>
				<path class="st3" d="M1360.7,1104.5l28.9,0.2c0,0,115.9-26.7,119-26c3.1,0.6,353.4,70.7,353.4,70.7l124.7,90.6
					c0,0-493.5,0.1-496,0C1488.3,1239.9,1360.7,1104.5,1360.7,1104.5z"/>
				<path class="st9" d="M34.1,1239.9c371.9-122,580-135.8,580-135.8l120.1-325.7C455.3,794.2,177.4,834.6-96,899.7
					c-13.4,3.5-20.3,5.5-20.3,5.5V1240L34.1,1239.9L34.1,1239.9z"/>
				<path class="st9" d="M1969.7,1239.9c-371.9-122-580-135.8-580-135.8l-120.1-325.7c278.9,15.7,556.7,56.1,830.2,121.2
					c13.4,3.5,16.6,4.9,16.6,4.9v335.4H1969.7z"/>
				<g>
					<path class="st8" d="M1035.9,291.6H772L718.9,17.4h315.5L1035.9,291.6z M778.1,284.1h250.3L1027,24.8H727.9L778.1,284.1z"/>
				</g>
				<g>
					<path class="st8" d="M764.9,291.8H500.7L393.1,17.7h315.8L764.9,291.8z M505.8,284.3h250l-53-259.2H404L505.8,284.3z"/>
				</g>
				<path class="st11" d="M870.7,82.1c2.4,22.5-20,40.3-49.9,40.3c-30,0-57.5-17.8-61.5-40.3c-4.1-23.2,18-42.5,49.6-42.5
					S868.2,58.9,870.7,82.1z"/>
				<path class="st11" d="M710.9,197.7c2.7,11.8-9,21.3-26.1,21.3s-33.5-9.5-36.6-21.3c-3.2-12,8.4-21.9,26-21.9
					C691.6,175.8,708.1,185.7,710.9,197.7z"/>
				<path class="st11" d="M724.1,256.3c2.5,10.9-8.9,19.6-25.3,19.6c-16.4,0-32-8.7-35-19.6c-3-11.1,8.3-20.2,25.1-20.2
					S721.6,245.2,724.1,256.3z"/>
				<path class="st11" d="M1008.5,82.1c0.4,22.5-23.5,40.3-53.5,40.3s-55.9-17.8-57.9-40.3c-2.1-23.2,21.8-42.5,53.4-42.5
					S1008,58.9,1008.5,82.1z"/>
				<path class="st8" d="M847,49.8c9.2,7.5,15.2,17,16.4,27.3c2.5,22.7-19.8,40.6-49.9,40.6c-13.3,0-26.1-3.5-36.6-9.3
					c11.5,8.7,27.3,14.1,43.9,14.1c30,0,52.4-17.8,49.9-40.3C869.3,69.3,860.2,57.7,847,49.8z"/>
				<path class="st8" d="M987.6,49.8c8.5,7.5,13.8,17,14,27.3c0.5,22.7-23.4,40.6-53.5,40.6c-13.3,0-25.8-3.5-35.8-9.3
					c10.7,8.7,26,14.1,42.7,14.1c30,0,53.9-17.8,53.5-40.3C1008.2,69.3,1000.2,57.7,987.6,49.8z"/>
				<path class="st12" d="M802.1,163.3h-24.6c-2.9,0-5.4-1.3-5.7-2.9l-3.4-19.2c-0.3-1.6,1.8-3,4.8-3h25c2.9,0,5.5,1.3,5.8,3l3,19.2
					C807.1,162,805,163.3,802.1,163.3z"/>
				<path class="st13" d="M808.3,202h-23.9c-2.8,0-5.3-1.2-5.6-2.8l-3.3-18.2c-0.3-1.6,1.8-2.8,4.6-2.8h24.3c2.8,0,5.4,1.3,5.6,2.8
					l2.8,18.2C813.2,200.8,811.1,202,808.3,202z"/>
				<path class="st12" d="M814.1,238.8h-23.3c-2.7,0-5.2-1.2-5.4-2.6l-3.1-17.3c-0.3-1.5,1.8-2.7,4.5-2.7h23.7
					c2.8,0,5.2,1.2,5.4,2.7l2.7,17.3C818.9,237.6,816.9,238.8,814.1,238.8z"/>
				<path class="st1" d="M819.7,273.8H797c-2.7,0-5-1.1-5.3-2.5l-2.9-16.4c-0.3-1.4,1.7-2.6,4.4-2.6h23.1c2.7,0,5.1,1.1,5.3,2.6
					l2.6,16.4C824.4,272.6,822.4,273.8,819.7,273.8z"/>
				<polygon class="st8" points="843.8,274.2 841.8,274.2 822.4,138.8 824.5,138.8 				"/>
				<g>
					<path class="st12" d="M875.2,145.7c4.5,5.9,1.7,12.9-6.2,15.6c-7.9,2.7-18,0.2-22.6-5.6c-4.6-5.9-2-12.9,6-15.7
						S870.6,139.8,875.2,145.7z"/>
					<path class="st8" d="M871.1,163.5L871.1,163.5c-0.5,0.2-1.2,0-1.5-0.4l-7.9-10.1c-0.3-0.4-0.1-0.8,0.4-1l0,0
						c0.5-0.2,1.2,0,1.5,0.4l7.9,10.1C871.8,162.9,871.6,163.3,871.1,163.5z"/>
				</g>
				<g>
					<path class="st1" d="M878.4,198.3c-6.5,3.7-16.7,2.9-22.7-1.9c-6.1-4.8-5.8-11.9,0.8-15.7c6.6-3.9,16.9-3,23,1.9
						C885.5,187.5,885,194.5,878.4,198.3z"/>
					<path class="st8" d="M853.3,198L853.3,198c-0.4-0.3-0.4-0.8,0.1-1l11.3-6.5c0.4-0.2,1.1-0.2,1.5,0.1l0,0c0.4,0.3,0.4,0.8-0.1,1
						l-11.3,6.5C854.4,198.4,853.7,198.3,853.3,198z"/>
				</g>
				<g>
					<path class="st12" d="M877.8,217.5c7.3,3.6,9.2,10.3,4.4,14.9c-4.8,4.6-14.5,5.4-21.7,1.8c-7.3-3.6-9.4-10.2-4.6-14.9
						C860.6,214.7,870.5,213.9,877.8,217.5z"/>
					<path class="st8" d="M885.2,233.7L885.2,233.7c-0.3,0.3-0.9,0.4-1.4,0.1l-12.5-6.2c-0.5-0.2-0.6-0.7-0.3-1l0,0
						c0.3-0.3,1-0.4,1.4-0.1l12.5,6.2C885.4,233,885.5,233.4,885.2,233.7z"/>
				</g>
				<g>
					<path class="st1" d="M886.5,268.4c-6.1,3.5-15.8,2.9-21.7-1.3c-5.9-4.3-5.8-10.7,0.3-14.3c6.1-3.6,16-3,21.9,1.4
						C892.8,258.5,892.6,264.9,886.5,268.4z"/>
					<path class="st8" d="M862.7,268.6L862.7,268.6c-0.4-0.3-0.4-0.7,0-0.9l10.5-6.1c0.4-0.2,1-0.2,1.4,0.1l0,0
						c0.4,0.3,0.4,0.7,0,0.9l-10.5,6.1C863.7,268.9,863,268.9,862.7,268.6z"/>
				</g>
				<path class="st13" d="M981.7,163.3h24.6c2.9,0,5.2-1.3,5.2-2.9l-0.4-19.2c0-1.6-2.4-3-5.4-3h-25c-2.9,0-5.2,1.3-5.2,3l0.8,19.2
					C976.4,162,978.8,163.3,981.7,163.3z"/>
				<path class="st12" d="M983.2,202h23.9c2.8,0,5.1-1.2,5-2.8l-0.3-18.2c0-1.6-2.4-2.8-5.2-2.8h-24.3c-2.8,0-5.1,1.3-5,2.8
					l0.8,18.2C978.1,200.8,980.4,202,983.2,202z"/>
				<path class="st1" d="M984.6,238.8h23.3c2.7,0,4.9-1.2,4.9-2.6l-0.3-17.3c0-1.5-2.3-2.7-5.1-2.7h-23.7c-2.8,0-5,1.2-4.9,2.7
					l0.7,17.3C979.6,237.6,981.9,238.8,984.6,238.8z"/>
				<path class="st12" d="M986,273.8h22.7c2.7,0,4.8-1.1,4.8-2.5l-0.3-16.4c0-1.4-2.2-2.6-4.9-2.6h-23.1c-2.7,0-4.8,1.1-4.8,2.6
					l0.7,16.4C981.1,272.6,983.3,273.8,986,273.8z"/>
				<polygon class="st8" points="962,274.2 964,274.2 956.6,138.8 954.4,138.8 				"/>
				<g>
					<path class="st1" d="M917.4,140c-8.9,1.3-14.1,7.6-11.7,14c2.4,6.3,11.4,10.3,20.2,9.1c8.8-1.3,14.1-7.5,11.8-13.8
						C935.4,142.9,926.3,138.7,917.4,140z"/>
					<path class="st8" d="M902.1,154.3L902.1,154.3c0.2,0.4,0.8,0.7,1.3,0.6l15.3-2.3c0.6-0.1,0.9-0.5,0.8-0.9l0,0
						c-0.2-0.4-0.7-0.7-1.3-0.6l-15.3,2.3C902.3,153.5,901.9,153.9,902.1,154.3z"/>
				</g>
				<g>
					<path class="st12" d="M932.4,199.6c6.6-3.8,7.2-10.8,1.3-15.7c-6-4.9-16.3-5.6-22.9-1.7c-6.6,3.9-7,10.9-1,15.7
						C915.7,202.7,925.8,203.4,932.4,199.6z"/>
					<path class="st8" d="M936.6,182.6L936.6,182.6c-0.4-0.3-1.1-0.4-1.5-0.1l-11.5,6.7c-0.4,0.3-0.5,0.7-0.1,1l0,0
						c0.4,0.3,1.1,0.4,1.5,0.1l11.5-6.7C936.9,183.4,936.9,182.9,936.6,182.6z"/>
				</g>
				<g>
					<path class="st1" d="M934.5,218c-7.8-2.9-17.3-1.1-21.2,4c-3.8,5.1-0.6,11.6,7.1,14.4c7.7,2.9,17.1,1.1,21-3.9
						C945.4,227.4,942.3,220.9,934.5,218z"/>
					<path class="st8" d="M910.3,220.6L910.3,220.6c-0.3,0.3,0,0.8,0.5,1l13.5,5c0.5,0.2,1.1,0.1,1.4-0.3l0,0c0.3-0.3,0-0.8-0.5-0.9
						l-13.5-5.1C911.2,220.2,910.6,220.3,910.3,220.6z"/>
				</g>
				<g>
					<path class="st12" d="M913.5,262.9c2.7,5.4,11.3,8.5,19.3,7.1s12.5-6.9,10-12.3c-2.6-5.4-11.3-8.7-19.4-7.2
						C915.2,251.9,910.8,257.5,913.5,262.9z"/>
					<path class="st8" d="M933.5,272.1L933.5,272.1c0.5-0.1,0.8-0.4,0.6-0.8l-4.5-9.3c-0.2-0.4-0.7-0.6-1.3-0.5l0,0
						c-0.5,0.1-0.8,0.5-0.6,0.8l4.5,9.3C932.4,272,933,272.2,933.5,272.1z"/>
				</g>
				<path class="st8" d="M497.6,156.9L497.6,156.9c-4,0-7.8-1.8-8.6-4l-39.9-109c-0.9-2.6,1.8-4.6,6-4.6l0,0c4.3,0,8.5,2.1,9.4,4.6
					l38.9,108.9C504.2,155.1,501.6,156.9,497.6,156.9z"/>
				<path class="st1" d="M536.1,157L536.1,157c-4,0-7.8-1.8-8.5-4L490.4,44.1c-0.9-2.6,1.9-4.6,6.2-4.6l0,0c4.3,0,8.4,2.1,9.3,4.6
					l36,108.9C542.6,155.2,540,157,536.1,157z"/>
				<path class="st8" d="M574.5,157.2L574.5,157.2c-4,0-7.7-1.8-8.4-4L531.7,44.3c-0.8-2.6,2-4.6,6.3-4.6l0,0c4.3,0,8.4,2.1,9.1,4.6
					l33.3,108.9C581.1,155.4,578.4,157.2,574.5,157.2z"/>
				<path class="st1" d="M612.9,157.4L612.9,157.4c-4,0-7.7-1.8-8.3-4L573,44.6c-0.7-2.6,2.1-4.6,6.4-4.6l0,0c4.3,0,8.3,2.1,9,4.6
					l30.5,108.8C619.5,155.6,616.8,157.4,612.9,157.4z"/>
				<path class="st8" d="M651.3,157.6L651.3,157.6c-4,0-7.6-1.8-8.2-4L614.3,44.8c-0.7-2.6,2.2-4.6,6.5-4.6l0,0
					c4.3,0,8.3,2.1,8.9,4.6l27.7,108.8C658,155.8,655.2,157.6,651.3,157.6z"/>
				<path class="st1" d="M689.7,157.8L689.7,157.8c-4,0-7.6-1.8-8.1-4L655.6,45c-0.6-2.6,2.4-4.6,6.6-4.6l0,0c4.3,0,8.2,2.1,8.8,4.6
					l24.9,108.8C696.4,156,693.6,157.8,689.7,157.8z"/>
				<path class="st1" d="M606.2,221.5h-74.3c-10,0-19.7-4.3-21.6-9.7l-10.4-28.2c-2.1-5.6,4.6-10.2,14.9-10.2h76.8
					c10.3,0,20,4.6,21.6,10.2l8.2,28.2C623,217.2,616.2,221.5,606.2,221.5z"/>
				<path class="st8" d="M647.9,175.8c0.4,1.4-0.9,2.5-2.9,2.5s-3.8-1.1-4.2-2.5s0.9-2.5,2.9-2.5
					C645.6,173.3,647.5,174.4,647.9,175.8z"/>
				<path class="st8" d="M659.7,220.4c0.3,1.3-0.9,2.3-2.8,2.3c-1.9,0-3.7-1-4.1-2.3c-0.3-1.3,0.9-2.3,2.8-2.3
					C657.5,218.1,659.3,219.1,659.7,220.4z"/>
				<path class="st8" d="M706.6,175.8c0.3,1.4-1,2.5-3,2.5s-3.8-1.1-4.1-2.5s1-2.5,3-2.5S706.3,174.4,706.6,175.8z"/>
				<path class="st8" d="M716.7,220.4c0.3,1.3-1,2.3-2.9,2.3s-3.7-1-4-2.3s1-2.3,2.9-2.3C714.6,218.1,716.4,219.1,716.7,220.4z"/>
				<path class="st8" d="M708.2,240.2c4.6,3.4,7.8,7.6,8.9,12.1c2.5,11-8.8,19.7-25.2,19.7c-6.7,0-13.3-1.5-18.9-3.9
					c6.7,4.7,16.1,7.8,25.8,7.8c16.4,0,27.7-8.7,25.3-19.6C722.6,249.7,716.5,243.9,708.2,240.2z"/>
				<path class="st11" d="M623.4,278.2H552c-9.6,0-18.8-4-20.6-9l-9.5-26c-1.9-5.2,4.6-9.4,14.5-9.4h73.7c9.9,0,19.1,4.2,20.6,9.4
					l7.5,26C639.6,274.2,633,278.2,623.4,278.2z"/>
				<g>
					<path class="st8" d="M1307.1,291.6h-263.9l1.5-274.2h315.5L1307.1,291.6z M1050.6,284.1H1301l50.2-259.3H1052L1050.6,284.1z"/>
				</g>
				<g>
					<path class="st8" d="M1578.3,291.8h-264.2l56-274.1h315.8L1578.3,291.8z M1323.3,284.3h250L1675,25.1h-298.8L1323.3,284.3z"/>
				</g>
				<path class="st11" d="M1208.3,82.1c-2.4,22.5,20,40.3,49.9,40.3c30,0,57.5-17.8,61.5-40.3c4.1-23.2-18-42.5-49.6-42.5
					C1238.5,39.6,1210.8,58.9,1208.3,82.1z"/>
				<path class="st11" d="M1368.2,197.7c-2.7,11.8,9,21.3,26.1,21.3s33.5-9.5,36.6-21.3c3.2-12-8.4-21.9-26-21.9
					C1387.4,175.8,1370.9,185.7,1368.2,197.7z"/>
				<path class="st11" d="M1355,256.3c-2.5,10.9,8.9,19.6,25.3,19.6s32-8.7,35-19.6c3-11.1-8.3-20.2-25.1-20.2
					S1357.5,245.2,1355,256.3z"/>
				<path class="st11" d="M1070.6,82.1c-0.4,22.5,23.5,40.3,53.5,40.3s55.9-17.8,57.9-40.3c2.1-23.2-21.8-42.5-53.4-42.5
					C1097,39.6,1071,58.9,1070.6,82.1z"/>
				<path class="st8" d="M1232.1,49.8c-9.2,7.5-15.2,17-16.4,27.3c-2.5,22.7,19.8,40.6,49.9,40.6c13.3,0,26.1-3.5,36.6-9.3
					c-11.5,8.7-27.3,14.1-43.9,14.1c-30,0-52.4-17.8-49.9-40.3C1209.7,69.3,1218.8,57.7,1232.1,49.8z"/>
				<path class="st8" d="M1091.5,49.8c-8.5,7.5-13.8,17-14,27.3c-0.5,22.7,23.4,40.6,53.5,40.6c13.3,0,25.8-3.5,35.8-9.3
					c-10.7,8.7-26,14.1-42.7,14.1c-30,0-53.9-17.8-53.5-40.3C1070.8,69.3,1078.9,57.7,1091.5,49.8z"/>
				<path class="st13" d="M1276.9,163.3h24.6c2.9,0,5.4-1.3,5.7-2.9l3.4-19.2c0.3-1.6-1.8-3-4.8-3h-25c-2.9,0-5.5,1.3-5.8,3l-3,19.2
					C1271.9,162,1274.1,163.3,1276.9,163.3z"/>
				<path class="st12" d="M1270.8,202h23.9c2.8,0,5.3-1.2,5.6-2.8l3.3-18.2c0.3-1.6-1.8-2.8-4.6-2.8h-24.3c-2.8,0-5.4,1.3-5.6,2.8
					l-2.8,18.2C1265.9,200.8,1268,202,1270.8,202z"/>
				<path class="st1" d="M1264.9,238.8h23.3c2.7,0,5.2-1.2,5.4-2.6l3.1-17.3c0.3-1.5-1.8-2.7-4.5-2.7h-23.7c-2.8,0-5.2,1.2-5.4,2.7
					l-2.7,17.3C1260.2,237.6,1262.2,238.8,1264.9,238.8z"/>
				<path class="st12" d="M1259.3,273.8h22.7c2.7,0,5-1.1,5.3-2.5l2.9-16.4c0.3-1.4-1.7-2.6-4.4-2.6h-23.1c-2.7,0-5.1,1.1-5.3,2.6
					l-2.6,16.4C1254.7,272.6,1256.7,273.8,1259.3,273.8z"/>
				<polygon class="st8" points="1235.3,274.2 1237.3,274.2 1256.7,138.8 1254.5,138.8 				"/>
				<g>
					<path class="st1" d="M1203.9,145.7c-4.5,5.9-1.7,12.9,6.2,15.6c7.9,2.7,18,0.2,22.6-5.6c4.6-5.9,2-12.9-6-15.7
						S1208.4,139.8,1203.9,145.7z"/>
					<path class="st8" d="M1208,163.5L1208,163.5c0.5,0.2,1.2,0,1.5-0.4l7.9-10.1c0.3-0.4,0.1-0.8-0.4-1l0,0c-0.5-0.2-1.2,0-1.5,0.4
						l-7.9,10.1C1207.3,162.9,1207.4,163.3,1208,163.5z"/>
				</g>
				<g>
					<path class="st12" d="M1200.7,198.3c6.5,3.7,16.7,2.9,22.7-1.9c6.1-4.8,5.8-11.9-0.8-15.7c-6.6-3.9-16.9-3-23,1.9
						C1193.6,187.5,1194.1,194.5,1200.7,198.3z"/>
					<path class="st8" d="M1225.7,198L1225.7,198c0.4-0.3,0.4-0.8-0.1-1l-11.3-6.5c-0.4-0.2-1.1-0.2-1.5,0.1l0,0
						c-0.4,0.3-0.4,0.8,0.1,1l11.3,6.5C1224.7,198.4,1225.3,198.3,1225.7,198z"/>
				</g>
				<g>
					<path class="st1" d="M1201.2,217.5c-7.3,3.6-9.2,10.3-4.4,14.9c4.8,4.6,14.5,5.4,21.7,1.8c7.3-3.6,9.4-10.2,4.6-14.9
						C1218.4,214.7,1208.6,213.9,1201.2,217.5z"/>
					<path class="st8" d="M1193.8,233.7L1193.8,233.7c0.3,0.3,0.9,0.4,1.4,0.1l12.5-6.2c0.5-0.2,0.6-0.7,0.3-1l0,0
						c-0.3-0.3-1-0.4-1.4-0.1l-12.5,6.2C1193.6,233,1193.5,233.4,1193.8,233.7z"/>
				</g>
				<g>
					<path class="st12" d="M1192.6,268.4c6.1,3.5,15.8,2.9,21.7-1.3c5.9-4.3,5.8-10.7-0.3-14.3c-6.1-3.6-16-3-21.9,1.4
						C1186.2,258.5,1186.5,264.9,1192.6,268.4z"/>
					<path class="st8" d="M1216.4,268.6L1216.4,268.6c0.4-0.3,0.4-0.7,0-0.9l-10.5-6.1c-0.4-0.2-1-0.2-1.4,0.1l0,0
						c-0.4,0.3-0.4,0.7,0,0.9l10.5,6.1C1215.4,268.9,1216,268.9,1216.4,268.6z"/>
				</g>
				<path class="st12" d="M1097.3,163.3h-24.6c-2.9,0-5.2-1.3-5.2-2.9l0.4-19.2c0-1.6,2.4-3,5.4-3h25c2.9,0,5.2,1.3,5.2,3l-0.8,19.2
					C1102.6,162,1100.2,163.3,1097.3,163.3z"/>
				<path class="st13" d="M1095.8,202h-23.9c-2.8,0-5.1-1.2-5-2.8l0.3-18.2c0-1.6,2.4-2.8,5.2-2.8h24.3c2.8,0,5.1,1.3,5,2.8
					l-0.8,18.2C1101,200.8,1098.6,202,1095.8,202z"/>
				<path class="st12" d="M1094.4,238.8h-23.3c-2.7,0-4.9-1.2-4.9-2.6l0.3-17.3c0-1.5,2.3-2.7,5.1-2.7h23.7c2.8,0,5,1.2,4.9,2.7
					l-0.7,17.3C1099.4,237.6,1097.1,238.8,1094.4,238.8z"/>
				<path class="st1" d="M1093.1,273.8h-22.7c-2.7,0-4.8-1.1-4.8-2.5l0.3-16.4c0-1.4,2.2-2.6,4.9-2.6h23.1c2.7,0,4.8,1.1,4.8,2.6
					l-0.7,16.4C1097.9,272.6,1095.7,273.8,1093.1,273.8z"/>
				<polygon class="st8" points="1117,274.2 1115,274.2 1122.5,138.8 1124.6,138.8 				"/>
				<g>
					<path class="st12" d="M1161.7,140c8.9,1.3,14.1,7.6,11.7,14c-2.4,6.3-11.4,10.3-20.2,9.1c-8.8-1.3-14.1-7.5-11.8-13.8
						C1143.6,142.9,1152.8,138.7,1161.7,140z"/>
					<path class="st8" d="M1177,154.3L1177,154.3c-0.2,0.4-0.8,0.7-1.3,0.6l-15.3-2.3c-0.6-0.1-0.9-0.5-0.8-0.9l0,0
						c0.2-0.4,0.7-0.7,1.3-0.6l15.3,2.3C1176.8,153.5,1177.1,153.9,1177,154.3z"/>
				</g>
				<g>
					<path class="st1" d="M1146.6,199.6c-6.6-3.8-7.2-10.8-1.3-15.7c6-4.9,16.3-5.6,22.9-1.7c6.6,3.9,7,10.9,1,15.7
						C1163.3,202.7,1153.2,203.4,1146.6,199.6z"/>
					<path class="st8" d="M1142.5,182.6L1142.5,182.6c0.4-0.3,1.1-0.4,1.5-0.1l11.5,6.7c0.4,0.3,0.5,0.7,0.1,1l0,0
						c-0.4,0.3-1.1,0.4-1.5,0.1l-11.5-6.7C1142.1,183.4,1142.1,182.9,1142.5,182.6z"/>
				</g>
				<g>
					<path class="st12" d="M1144.6,218c7.8-2.9,17.3-1.1,21.2,4c3.8,5.1,0.6,11.6-7.1,14.4c-7.7,2.9-17.1,1.1-21-3.9
						C1133.7,227.4,1136.8,220.9,1144.6,218z"/>
					<path class="st8" d="M1168.7,220.6L1168.7,220.6c0.3,0.3,0,0.8-0.5,1l-13.5,5c-0.5,0.2-1.1,0.1-1.4-0.3l0,0
						c-0.3-0.3,0-0.8,0.5-0.9l13.5-5.1C1167.8,220.2,1168.5,220.3,1168.7,220.6z"/>
				</g>
				<g>
					<path class="st1" d="M1165.5,262.9c-2.7,5.4-11.3,8.5-19.3,7.1s-12.5-6.9-10-12.3c2.6-5.4,11.3-8.7,19.4-7.2
						C1163.8,251.9,1168.2,257.5,1165.5,262.9z"/>
					<path class="st8" d="M1145.5,272.1L1145.5,272.1c-0.5-0.1-0.8-0.4-0.6-0.8l4.5-9.3c0.2-0.4,0.7-0.6,1.3-0.5l0,0
						c0.5,0.1,0.8,0.5,0.6,0.8l-4.5,9.3C1146.6,272,1146.1,272.2,1145.5,272.1z"/>
				</g>
				<path class="st8" d="M1581.4,156.9L1581.4,156.9c4,0,7.8-1.8,8.6-4l40-109c0.9-2.6-1.8-4.6-6-4.6l0,0c-4.3,0-8.5,2.1-9.4,4.6
					l-38.9,108.9C1574.9,155.1,1577.4,156.9,1581.4,156.9z"/>
				<path class="st1" d="M1543,157L1543,157c4,0,7.8-1.8,8.5-4l37.1-108.9c0.9-2.6-1.9-4.6-6.1-4.6l0,0c-4.3,0-8.4,2.1-9.3,4.6
					L1537.1,153C1536.4,155.2,1539,157,1543,157z"/>
				<path class="st8" d="M1504.6,157.2L1504.6,157.2c4,0,7.7-1.8,8.4-4l34.3-108.9c0.8-2.6-2-4.6-6.3-4.6l0,0
					c-4.3,0-8.4,2.1-9.1,4.6l-33.3,108.9C1498,155.4,1500.6,157.2,1504.6,157.2z"/>
				<path class="st1" d="M1466.2,157.4L1466.2,157.4c4,0,7.7-1.8,8.3-4L1506,44.6c0.7-2.6-2.1-4.6-6.4-4.6l0,0c-4.3,0-8.3,2.1-9,4.6
					l-30.5,108.8C1459.5,155.6,1462.2,157.4,1466.2,157.4z"/>
				<path class="st8" d="M1427.8,157.6L1427.8,157.6c4,0,7.6-1.8,8.2-4l28.7-108.8c0.7-2.6-2.2-4.6-6.5-4.6l0,0
					c-4.3,0-8.3,2.1-8.9,4.6l-27.7,108.8C1421.1,155.8,1423.8,157.6,1427.8,157.6z"/>
				<path class="st1" d="M1389.4,157.8L1389.4,157.8c4,0,7.6-1.8,8.1-4l26-108.8c0.6-2.6-2.4-4.6-6.6-4.6l0,0
					c-4.3,0-8.2,2.1-8.8,4.6l-24.9,108.8C1382.6,156,1385.4,157.8,1389.4,157.8z"/>
				<path class="st11" d="M1472.8,221.5h74.3c10,0,19.7-4.3,21.6-9.7l10.4-28.2c2.1-5.6-4.6-10.2-14.9-10.2h-76.8
					c-10.3,0-20,4.6-21.6,10.2l-8.2,28.2C1456,217.2,1462.8,221.5,1472.8,221.5z"/>
				<path class="st8" d="M1431.2,175.8c-0.4,1.4,0.9,2.5,2.9,2.5s3.8-1.1,4.2-2.5c0.4-1.4-0.9-2.5-2.9-2.5
					C1433.4,173.3,1431.6,174.4,1431.2,175.8z"/>
				<path class="st8" d="M1419.4,220.4c-0.3,1.3,0.9,2.3,2.8,2.3s3.7-1,4.1-2.3c0.3-1.3-0.9-2.3-2.8-2.3S1419.7,219.1,1419.4,220.4z
					"/>
				<path class="st8" d="M1372.4,175.8c-0.3,1.4,1,2.5,3,2.5s3.8-1.1,4.1-2.5c0.3-1.4-1-2.5-3-2.5S1372.7,174.4,1372.4,175.8z"/>
				<path class="st8" d="M1362.4,220.4c-0.3,1.3,1,2.3,2.9,2.3s3.7-1,4-2.3s-1-2.3-2.9-2.3C1364.4,218.1,1362.7,219.1,1362.4,220.4z
					"/>
				<path class="st8" d="M1370.8,240.2c-4.6,3.4-7.8,7.6-8.9,12.1c-2.5,11,8.8,19.7,25.2,19.7c6.7,0,13.3-1.5,18.9-3.9
					c-6.7,4.7-16.1,7.8-25.8,7.8c-16.4,0-27.7-8.7-25.3-19.6C1356.5,249.7,1362.6,243.9,1370.8,240.2z"/>
				<path class="st1" d="M1455.7,278.2h71.4c9.6,0,18.8-4,20.6-9l9.5-26c1.9-5.2-4.6-9.4-14.5-9.4H1469c-9.9,0-19.1,4.2-20.6,9.4
					l-7.5,26C1439.5,274.2,1446.1,278.2,1455.7,278.2z"/>
				<path class="st1" d="M1278.3,779.2c-92.6-5.5-185.3-8.2-278-8.2l0,0c-0.1,0-0.2,0-0.3,0s-0.2,0-0.3,0l0,0
					c-92.7,0-185.4,2.7-278,8.2l-157.3,460.7h871.2L1278.3,779.2z"/>
				<g>
					<polygon class="st1" points="1130,872.7 871.3,872.7 890.9,794.2 1110.3,794.2 					"/>
					<polygon class="st1" points="1182,1080.5 819.2,1080.5 864.7,899 1136.6,899 					"/>
					<path class="st5" d="M946.1,805.1c-24.2,0-46.5,12.5-50.1,28.8h93.2C989.6,817.6,970.3,805.1,946.1,805.1z"/>
					<path class="st5" d="M1054.3,805.1c-24.2,0-43.5,12.5-43.2,28.8h93.2C1100.9,817.6,1078.5,805.1,1054.3,805.1z"/>
					<path class="st8" d="M986.6,847h-91.3c-1.2,0-2.1-0.7-1.9-1.5l0.3-1.2c0.2-0.8,1.3-1.5,2.6-1.5h90.5c1.2,0,2.2,0.7,2.2,1.5v1.2
						C988.9,846.4,987.9,847,986.6,847z"/>
					<path class="st8" d="M986.2,862.2h-94.1c-1.3,0-2.2-0.7-2-1.6l0.3-1.3c0.2-0.9,1.4-1.6,2.7-1.6h93.3c1.3,0,2.3,0.7,2.3,1.6v1.3
						C988.5,861.4,987.5,862.2,986.2,862.2z"/>
					<path class="st8" d="M1105,847h-91.3c-1.2,0-2.3-0.7-2.3-1.5v-1.2c0-0.8,1-1.5,2.2-1.5h90.5c1.2,0,2.4,0.7,2.6,1.5l0.3,1.2
						C1107.1,846.4,1106.3,847,1105,847z"/>
					<path class="st8" d="M1108.2,862.2h-94.1c-1.3,0-2.3-0.7-2.4-1.6v-1.3c0-0.9,1-1.6,2.3-1.6h93.3c1.3,0,2.5,0.7,2.7,1.6l0.3,1.3
						C1110.4,861.4,1109.5,862.2,1108.2,862.2z"/>
					<path class="st8" d="M1121.9,1049.3l-23.8-136c-0.2-1.1,0.8-2,2.2-2h2c1.4,0,2.7,0.9,2.9,2l25.6,136c0.3,1.7-0.9,3.1-2.6,3.1
						h-2.6C1123.8,1052.3,1122.2,1051,1121.9,1049.3z"/>
					<path class="st8" d="M1147.4,1049.3l-28.8-136c-0.2-1.1,0.7-2,2.1-2h2c1.4,0,2.8,0.9,3,2l30.6,136c0.4,1.7-0.7,3.1-2.5,3.1
						h-2.6C1149.5,1052.3,1147.7,1051,1147.4,1049.3z"/>
					<path class="st14" d="M946.5,834.4l-0.5,0.2c-0.3,0.2-0.7,0.1-1-0.1l-17-15.6c-0.2-0.2-0.1-0.5,0.2-0.6l0.4-0.2
						c0.3-0.1,0.7-0.1,0.9,0.1l17,15.5C946.9,834,946.8,834.2,946.5,834.4z"/>
					<path class="st14" d="M1058.5,834.5l-0.5,0.1c-0.3,0.1-0.8,0-0.9-0.3l-13.4-18.3c-0.2-0.2,0-0.5,0.3-0.5l0.5-0.1
						c0.3-0.1,0.7,0,0.9,0.2l13.5,18.3C1059,834.2,1058.8,834.5,1058.5,834.5z"/>
					<path class="st8" d="M1036,956c-32.3,0-59.4,22.5-60.6,52.6h127.3C1098,978.5,1068.3,956,1036,956z"/>
					<path class="st14" d="M1040,1009.7l-0.7,0.3c-0.5,0.2-1,0-1.3-0.5l-17.1-33.7c-0.2-0.4,0-0.8,0.5-1l0.7-0.2
						c0.4-0.2,1,0,1.2,0.4l17.2,33.6C1040.7,1009,1040.5,1009.5,1040,1009.7z"/>
					<path class="st8" d="M896.6,797.6c-0.1,0.5-1,1-1.9,1s-1.5-0.4-1.4-1c0.1-0.5,1-1,1.9-1S896.7,797.1,896.6,797.6z"/>
					<path class="st8" d="M880.1,867.4c-0.2,0.7-1.2,1.3-2.2,1.3s-1.7-0.6-1.6-1.3c0.2-0.7,1.2-1.3,2.2-1.3
						C879.6,866.1,880.3,866.7,880.1,867.4z"/>
					<path class="st8" d="M1107.9,797.6c0.1,0.5-0.5,1-1.4,1s-1.7-0.4-1.9-1c-0.1-0.5,0.5-1,1.4-1S1107.8,797.1,1107.9,797.6z"/>
					<path class="st8" d="M1124.9,867.4c0.2,0.7-0.5,1.3-1.6,1.3c-1,0-2-0.6-2.2-1.3s0.5-1.3,1.6-1.3
						C1123.7,866.1,1124.7,866.7,1124.9,867.4z"/>
					<path class="st14" d="M908.5,943.5h-30.9c-3.1,0-5.2-2-4.6-4.5l5.2-23.6c0.5-2.3,3.3-4.1,6.2-4.1h29.2c2.9,0,5.1,1.8,4.7,4.1
						l-3.5,23.6C914.4,941.5,911.6,943.5,908.5,943.5z"/>
					<path class="st8" d="M965.8,943.5h-30.9c-3.1,0-5.4-2-5.1-4.5l2.9-23.6c0.3-2.3,2.9-4.1,5.8-4.1h29.2c2.9,0,5.2,1.8,5.1,4.1
						l-1.2,23.6C971.5,941.5,968.9,943.5,965.8,943.5z"/>
					<path class="st14" d="M1023.1,943.5h-30.9c-3.1,0-5.6-2-5.5-4.5l0.6-23.6c0.1-2.3,2.5-4.1,5.4-4.1h29.2c2.9,0,5.4,1.8,5.5,4.1
						l1.1,23.6C1028.6,941.5,1026.2,943.5,1023.1,943.5z"/>
					<path class="st6" d="M1002.8,1052.3h-27c-1.9,0-3.4-1.5-3.3-3.3l1-24.7c0.1-1.7,1.6-3,3.4-3h25.8c1.8,0,3.3,1.3,3.3,3l0.2,24.7
						C1006.2,1050.9,1004.7,1052.3,1002.8,1052.3z"/>
					<path class="st13" d="M1055.1,1052.3h-27c-1.9,0-3.5-1.5-3.5-3.3l-0.9-24.7c-0.1-1.7,1.4-3,3.2-3h25.8c1.8,0,3.4,1.3,3.5,3
						l2.1,24.7C1058.4,1050.9,1057,1052.3,1055.1,1052.3z"/>
					<path class="st14" d="M1107.4,1052.3h-27c-1.9,0-3.6-1.5-3.8-3.3l-2.7-24.7c-0.2-1.7,1.1-3,2.9-3h25.8c1.8,0,3.5,1.3,3.8,3
						l3.9,24.7C1110.6,1050.9,1109.3,1052.3,1107.4,1052.3z"/>
					<path class="st5" d="M954.2,1052.3h-99.4c-3.7,0-6.1-2.9-5.3-6.4l18.1-82.4c0.6-2.7,3.7-4.8,6.8-4.8h86.1
						c3.2,0,5.7,2.2,5.5,4.8l-4.7,82.4C961,1049.5,957.9,1052.3,954.2,1052.3z"/>
					<path class="st8" d="M1080.4,943.5h-30.9c-3.1,0-5.8-2-6-4.5l-1.7-23.6c-0.2-2.3,2.1-4.1,5-4.1h29.2c2.9,0,5.6,1.8,5.9,4.1
						l3.4,23.6C1085.8,941.5,1083.5,943.5,1080.4,943.5z"/>
					<g>
						<path class="st8" d="M1131.7,873.8H869.6l20.3-80.3h221.4L1131.7,873.8z M872.9,871.7h255.4l-19-76.8H892L872.9,871.7z"/>
					</g>
					<g>
						<path class="st8" d="M1184.5,1082.5H816.7L863.4,898h274.3L1184.5,1082.5z M821.7,1078.5h357.8l-44.2-178.3H865.9
							L821.7,1078.5z"/>
					</g>
				</g>
				<path class="st3" d="M482.6,1239.9c4.3-13,127.7-134.3,128-135.3c0.3-1.1,778.8,0,778.8,0l106.3,135.3H482.6z"/>
				<g>
					<path class="st14" d="M853,799c-0.9,3.3-5.4,6.5-10,7c-4.7,0.5-7.7-1.8-6.8-5.1s5.4-6.4,10-6.9
						C850.8,793.4,853.8,795.7,853,799z"/>
					<path class="st6" d="M843.3,835.7c-0.9,3.5-5.5,6.7-10.3,7.2s-7.8-1.9-6.9-5.4c0.9-3.5,5.5-6.7,10.3-7.2
						C841.1,829.8,844.2,832.2,843.3,835.7z"/>
					<path class="st6" d="M833.2,874c-1,3.7-5.7,7-10.6,7.5c-4.9,0.5-8-2.1-7-5.8c1-3.6,5.7-6.9,10.5-7.4
						C831,867.9,834.2,870.4,833.2,874z"/>
					<path class="st6" d="M822.7,914.2c-1,3.8-5.9,7.3-10.8,7.8c-5,0.4-8.1-2.3-7.1-6.1s5.9-7.2,10.8-7.7S823.7,910.4,822.7,914.2z"
						/>
					<path class="st14" d="M811.6,956.4c-1.1,4-6,7.6-11.1,8.1c-5.1,0.4-8.3-2.5-7.2-6.5s6-7.6,11.1-8
						C809.4,949.5,812.6,952.4,811.6,956.4z"/>
					<path class="st6" d="M799.9,1000.6c-1.1,4.2-6.2,8-11.4,8.4s-8.5-2.7-7.3-6.9c1.1-4.2,6.2-7.9,11.4-8.3
						C797.8,993.4,801.1,996.4,799.9,1000.6z"/>
					<path class="st14" d="M787.7,1047.1c-1.2,4.4-6.4,8.3-11.8,8.7c-5.3,0.4-8.6-2.9-7.4-7.4c1.2-4.4,6.4-8.3,11.7-8.6
						C785.5,1039.4,788.9,1042.7,787.7,1047.1z"/>
					<polygon class="st13" points="807.5,816 773,819.8 780.6,794.9 814.7,791.1 					"/>
					<polygon class="st14" points="796.8,853.4 761.5,857 769.5,831.1 804.2,827.4 					"/>
					<polygon class="st13" points="785.5,892.6 749.5,896 757.8,868.9 793.3,865.3 					"/>
					<polygon class="st14" points="773.7,933.6 736.9,936.9 745.7,908.4 781.9,905 					"/>
					<polygon class="st13" points="761.3,976.6 723.7,979.7 732.9,949.8 769.9,946.6 					"/>
					<polygon class="st14" points="748.3,1021.8 709.8,1024.7 719.5,993.3 757.3,990.3 					"/>
					<polygon class="st13" points="734.6,1067.4 695.3,1070 705.4,1037 744.1,1034.3 					"/>
				</g>
				<g>
					<path class="st14" d="M1156.7,799c0.9,3.3,5.4,6.5,10,7c4.7,0.5,7.7-1.8,6.8-5.1c-0.9-3.3-5.4-6.4-10-6.9
						C1158.9,793.4,1155.8,795.7,1156.7,799z"/>
					<path class="st6" d="M1166.3,835.7c0.9,3.5,5.5,6.7,10.3,7.2s7.8-1.9,6.9-5.4s-5.5-6.7-10.3-7.2
						C1168.5,829.8,1165.4,832.2,1166.3,835.7z"/>
					<path class="st6" d="M1176.4,874c1,3.7,5.7,7,10.6,7.5s8-2.1,7-5.8c-1-3.6-5.7-6.9-10.5-7.4
						C1178.6,867.9,1175.5,870.4,1176.4,874z"/>
					<path class="st6" d="M1187,914.2c1,3.8,5.9,7.3,10.8,7.8c5,0.4,8.1-2.3,7.1-6.1s-5.9-7.2-10.8-7.7S1186,910.4,1187,914.2z"/>
					<path class="st14" d="M1198.1,956.4c1.1,4,6,7.6,11.1,8.1c5.1,0.4,8.3-2.5,7.2-6.5c-1.1-4-6-7.6-11.1-8
						C1200.3,949.5,1197,952.4,1198.1,956.4z"/>
					<path class="st6" d="M1209.7,1000.6c1.1,4.2,6.2,8,11.4,8.4c5.2,0.4,8.5-2.7,7.3-6.9c-1.1-4.2-6.2-7.9-11.4-8.3
						C1211.9,993.4,1208.6,996.4,1209.7,1000.6z"/>
					<path class="st14" d="M1221.9,1047.1c1.2,4.4,6.4,8.3,11.8,8.7c5.3,0.4,8.6-2.9,7.4-7.4c-1.2-4.4-6.4-8.3-11.7-8.6
						C1224.1,1039.4,1220.8,1042.7,1221.9,1047.1z"/>
					<polygon class="st13" points="1202.1,816 1236.7,819.8 1229,794.9 1195,791.1 					"/>
					<polygon class="st14" points="1212.9,853.4 1248.2,857 1240.2,831.1 1205.4,827.4 					"/>
					<polygon class="st13" points="1224.2,892.6 1260.2,896 1251.8,868.9 1216.3,865.3 					"/>
					<polygon class="st14" points="1236,933.6 1272.8,936.9 1264,908.4 1227.8,905 					"/>
					<polygon class="st13" points="1248.4,976.6 1286,979.7 1276.8,949.8 1239.7,946.6 					"/>
					<polygon class="st14" points="1261.4,1021.8 1299.8,1024.7 1290.2,993.3 1252.3,990.3 					"/>
					<polygon class="st13" points="1275.1,1069.3 1314.4,1071.9 1304.2,1039 1265.5,1036.2 					"/>
				</g>
				<g>
					<path class="st8" d="M1162.9,1127.9h-327c-2.5,0-4-2-3.4-4.5l0,0c0.6-2.4,3-4.4,5.4-4.4h323c2.4,0,4.8,2,5.4,4.4l0,0
						C1166.9,1125.9,1165.3,1127.9,1162.9,1127.9z"/>
					<path class="st8" d="M1168.8,1154.1H830c-2.5,0-4.1-2.2-3.5-4.8l0,0c0.6-2.6,3.1-4.7,5.6-4.7h334.5c2.5,0,5,2.1,5.6,4.7l0,0
						C1172.9,1152,1171.3,1154.1,1168.8,1154.1z"/>
					<path class="st8" d="M1175.1,1182.3H823.6c-2.6,0-4.2-2.3-3.6-5.2l0,0c0.7-2.8,3.3-5.1,5.9-5.1h346.9c2.6,0,5.2,2.3,5.9,5.1
						l0,0C1179.4,1180,1177.8,1182.3,1175.1,1182.3z"/>
					<path class="st8" d="M1182,1212.7H816.8c-2.7,0-4.4-2.5-3.7-5.6l0,0c0.7-3,3.5-5.5,6.2-5.5h360.2c2.7,0,5.5,2.4,6.2,5.5l0,0
						C1186.4,1210.1,1184.7,1212.7,1182,1212.7z"/>
				</g>
				<g>
					<path class="st8" d="M671.4,1234.1L671.4,1234.1c-3.4,0-4.7-2.8-2.7-6.2l59.8-101.3c1-3.4,4.7-6.2,8.1-6.2l0,0
						c3.4,0,5.4,2.8,4.4,6.2l-59.8,101.3C679.3,1231.3,674.9,1234.1,671.4,1234.1z"/>
					<path class="st8" d="M729.2,1234.1L729.2,1234.1c-3.4,0-4.7-2.8-2.7-6.2l59.8-101.3c1-3.4,4.7-6.2,8.1-6.2l0,0
						c3.4,0,5.4,2.8,4.4,6.2L739,1227.9C737,1231.3,732.6,1234.1,729.2,1234.1z"/>
					<path class="st1" d="M712.4,1166.6L712.4,1166.6c-1.9,0-3.1-1.3-2.9-3.1l5.5-65.9c0.2-2.4,2.8-4.8,5.3-4.8l0,0
						c1.9,0,3.1,1.3,2.9,3.1l-5.5,65.9C717.5,1164.3,714.9,1166.6,712.4,1166.6z"/>
					<path class="st1" d="M769.2,1166.6L769.2,1166.6c-1.9,0-3.1-1.3-2.9-3.1l5.5-65.9c0.2-2.4,2.8-4.8,5.3-4.8l0,0
						c1.9,0,3.1,1.3,2.9,3.1l-5.5,65.9C774.3,1164.3,771.7,1166.6,769.2,1166.6z"/>
					<path class="st14" d="M787.6,1097.2h-84.3c-4.7,0-7.4-3.8-6-8.5l0,0c1.4-4.7,6.4-8.5,11.2-8.5h84.3c4.7,0,7.4,3.8,6,8.5l0,0
						C797.3,1093.4,792.3,1097.2,787.6,1097.2z"/>
				</g>
				<path class="st8" d="M1325,1234.1L1325,1234.1c3.4,0,4.7-2.8,2.7-6.2l-59.8-101.3c-1-3.4-4.7-6.2-8.1-6.2l0,0
					c-3.4,0-5.4,2.8-4.4,6.2l59.8,101.3C1317.2,1231.3,1321.6,1234.1,1325,1234.1z"/>
				<path class="st8" d="M1267.2,1234.1L1267.2,1234.1c3.4,0,4.7-2.8,2.7-6.2l-59.8-101.3c-1-3.4-4.7-6.2-8.1-6.2l0,0
					c-3.4,0-5.4,2.8-4.4,6.2l59.8,101.3C1259.4,1231.3,1263.8,1234.1,1267.2,1234.1z"/>
				<g>
					<path class="st1" d="M1254.3,1215L1254.3,1215c-1.9,0-2.7-1.2-2-2.8l25-59.6c0.9-2.2,4.2-4.3,6.7-4.3l0,0c1.9,0,2.7,1.2,2,2.8
						l-25,59.6C1260.1,1212.9,1256.8,1215,1254.3,1215z"/>
					<path class="st1" d="M1311.1,1215L1311.1,1215c-1.9,0-2.7-1.2-2-2.8l25-59.6c0.9-2.2,4.2-4.3,6.7-4.3l0,0c1.9,0,2.7,1.2,2,2.8
						l-25,59.6C1316.9,1212.9,1313.6,1215,1311.1,1215z"/>
					<path class="st14" d="M1350.1,1152.2h-84.3c-4.7,0-6.3-3.4-3.5-7.7l0,0c2.8-4.2,8.9-7.7,13.7-7.7h84.3c4.7,0,6.3,3.4,3.5,7.7
						l0,0C1360.9,1148.8,1354.8,1152.2,1350.1,1152.2z"/>
				</g>
				<polygon class="st8" points="514.1,773.2 538,775.8 638,350.4 614.1,347.8 				"/>
				<polygon class="st8" points="1497.9,773.2 1474,775.8 1374.1,350.4 1398,347.8 				"/>
				<path class="st15" d="M756.8,983c-5,0.4-27.5,9.7-29.8,10.5s-21.6,8.9-22.7,8.4c-1.1-0.5,8.1-8.8,11.6-15.7
					c1.2-2.4,3.2-6.4,2.5-9.4c-0.8-3.2-5.1-3.7-6.7-0.8c-1,1.9-2.6,4.6-3.7,5.4c-1.8,1.4-5.2,4.9-8.2,7.9c-3,2.9-8,7.9-10.3,10.4
					c-2,2.1-7.7,12.8-9.9,18.4c-1.7,4.5-3.9,9.6-7.1,14.8l-4.8,39.1c2.2-2.5,52.6-24.3,61.4-29.9c8.8-5.6,29.8-11.5,30-16.5
					c0,0,0.6-2.2-1.9-2.9c-2.9-0.8-23.4,8.1-24.6,7.6c-1.2-0.5,0.6-1.9,0.6-1.9s27-11.2,29.7-15.2c2.3-3.4-0.2-5.8-2.8-5.8
					c-2.6,0.1-25.7,12.1-27,10.9c-1.2-1.3,2.5-2.9,2.5-2.9s30.2-12.8,32.2-17.7c1.7-4-1.9-5.3-6.4-4s-31.9,15-34,14.1
					s1.7-2.8,1.7-2.8s30.2-15.2,31.8-17C762.9,985.7,761.8,982.6,756.8,983z"/>
				<g>
					<polygon class="st1" points="1537.7,841.2 1335.8,826.3 1381.5,984.1 1569.1,1009.7 					"/>
					<g>
						<path class="st8" d="M1377.4,988.9l-48.8-168.4l213.4,15.8l33.5,179.7L1377.4,988.9z M1342.9,832.2l42.6,147.1l177.1,24.2
							l-29.3-157.2L1342.9,832.2z"/>
					</g>
				</g>
				<path class="st6" d="M660.7,1033.5l11.9-7.6c1.3-0.8,2.9-0.9,4.3-0.3c7,3.3,19.5,16,22.5,30.9c0,0-16.9,11.2-16.7,11
					S660.7,1033.5,660.7,1033.5z"/>
				<path class="st14" d="M741.3,1085.5c0,0,14.5-5,27-5.3s18.1,12.1,18.1,12.8s-3.4,4.1-5.4,4.2s-24.3-3-25-3
					S741.3,1085.5,741.3,1085.5z"/>
				<path class="st8" d="M593,1239.9c-0.8-80.1-8.2-120.9-13.5-124.6c-85.8-61.1-237.3,70.1-287.3,124.1L593,1239.9z"/>
				<g>
					<g>
						<path class="st16" d="M258.4,779.2l-37.2,102.6c0,0,45.8,14.4,73.5,12.6c23.2-1.5,14.5-33.3,14.5-33.3s-2.9-42,5.2-62
							C322.6,779.2,258.4,779.2,258.4,779.2z"/>
						<path class="st17" d="M261.9,803.4c10,7.7,30.5,19.8,47.3,25.3c0.6-10.7,2.1-21.9,5.3-29.6c3.8-9.2-7.9-14.1-21.5-16.8
							c-18.1-2.4-34.5-3.1-34.5-3.1l-5.4,13.7C255.6,797.2,258.6,800.8,261.9,803.4z"/>
						<path class="st16" d="M221,681.4c-1.8-0.4-0.6,86.5,26.3,107.4c27,20.9,73.5,23.4,86.8,3c14.8-22.6-0.6-114.3-40.6-134.4
							C253.6,637.3,221,681.4,221,681.4z"/>
						<path class="st3" d="M272.6,613.2c-27.1,8.6-42.7,26.7-48.3,34.3c-12.5,2.9-28.7,11.4-42.1,41.2c-16.5,36.6,5.6,72.5,34,88.1
							s28.7,36.7,28.7,36.7l8.2-20.9c0,0-2.6-20.3-10.7-32c-8.1-11.7,9.9-22.1,13.7-33c2.9-8.4,0.3-26.6,4.8-40.4
							c0,0,22.5-21.9,40.6-24.5C332.3,658.2,307.4,602.2,272.6,613.2z"/>
					</g>
					<path class="st3" d="M274.4,676c0,0-5.1,10.6-2.2,21.3c3,10.7,24.5,83.1,18.2,91.5s-45.6,24.7-45.6,24.7l-17.7-59.4l18.3-82.9
						L274.4,676z"/>
					<path class="st8" d="M268.8,699.7c0,0-29.4-44.2-35.4-63.3c0,0-9.1-0.6-14,3.9s18.3,58.4,30.2,79.4L268.8,699.7z"/>
					<g>
						<path class="st8" d="M312.6,760.6c-7.8-5.3-15.3-10.7-15.4-10.8l2.9-4c13.1,9.5,28.2,19.6,31.7,20.5
							c3.1-1.6,15.6-14.2,26.4-25.8l3.6,3.4c-0.1,0.1-6.2,6.6-12.6,13.2c-13.6,13.8-15.6,14.1-16.7,14.2c-0.2,0-0.4,0.1-0.6,0.1
							C330.3,771.4,326.9,770.3,312.6,760.6z M332,766.4L332,766.4L332,766.4z"/>
					</g>
					<path class="st8" d="M357.9,733.1c-3.2,4.7-3.1,10.4,0.1,12.6c3.3,2.2,8.5,0.2,11.7-4.5s3.1-10.4-0.1-12.6
						C366.3,726.3,361.1,728.4,357.9,733.1z"/>
					<path class="st8" d="M243.6,717.2c-4,18,7.4,35.8,25.4,39.8s35.8-7.4,39.8-25.4s-7.4-35.8-25.4-39.8S247.6,699.2,243.6,717.2z"
						/>
					<path class="st12" d="M247.5,718c-4,18,7.4,35.8,25.4,39.8s35.8-7.4,39.8-25.4s-7.4-35.8-25.4-39.8
						C269.3,688.7,251.5,700,247.5,718z"/>
					<path class="st8" d="M259.9,720.7c-2.5,11.2,4.6,22.2,15.8,24.7c11.2,2.5,22.2-4.6,24.7-15.8s-4.6-22.2-15.8-24.7
						C273.4,702.5,262.4,709.6,259.9,720.7z"/>
					<path class="st18" d="M292.6,728c2.2-9.8-3-19.6-12-23.4c1.3,0,2.6,0.2,4,0.5c11.2,2.5,18.2,13.5,15.8,24.7
						c-2.5,11.2-13.5,18.2-24.7,15.8c-1.3-0.3-2.6-0.7-3.8-1.2C281.6,744.4,290.4,737.8,292.6,728z"/>
				</g>
				<path class="st7" d="M211.5,864.8l21.1-25.2c2.1-2.6,5.3-4.1,8.6-4.1l70.2-1.5c2.5-0.1,4.9,1.2,6.3,3.4l17.1,27
					c0,0-40,13.8-43.1,13.8C288.5,878.1,211.5,864.8,211.5,864.8z"/>
				<path class="st6" d="M113.5,897.3c0,0,22.1-29.5,62.7-31.3s212.7-11,235.9,0c66.4,31.3,199.1,223,188,256.2
					c-7.6,22.8-41.1,40.7-71.9,18.4c-33.2-24-106.9-106.9-106.9-106.9l5.1,206.3h-26.6l-154.4-77.7L113.5,897.3z"/>
				<path class="st1" d="M465.3,1239.9l88.2-110.4l-48.4-1.1c-0.6,0-1.2-0.1-1.8,0h-0.2l0,0c-5.3,0.2-11.3,2-17.7,6.9
					c-22,16.9-82.6,68.9-99.7,104.5L465.3,1239.9L465.3,1239.9z"/>
				<path class="st8" d="M45.9,867.3l132.6,372.6l-294.9-0.1V904.4C-88.8,895,45.9,867.3,45.9,867.3z"/>
				<path class="st5" d="M475,1239.9c32.7-34,74.2-77.2,89.4-93c3.5-3.6,2.9-9.5-1.1-12.5c-7.5-5.5-25-7.9-40.1,3.7
					c-22,16.9-78.5,66.6-94.9,101.8H475z"/>
				<path class="st19" d="M86.6,890.1h239.8c18.1,0,33.3,13.5,35.5,31.4l38.3,318.4H266.1l-213-308.3l7.7-22.5
					c3.6-10.5,12.9-18.2,24-18.9C85.4,890.1,86,890.1,86.6,890.1z"/>
				<g>
					<path class="st16" d="M1694.5,1123.6l-86.3-120.9c-0.4-1.1-1.1-3.2-2.3-6.5c-4.3-12-13.4-37-21.3-61.8l-0.1-0.3
						c-2.5-8.7-7.7-23.8-12.8-38.5c-5.6-16.3-12.6-36.5-12.9-39.9c0.2-0.6,0.6-1.6,1.2-3c3.2-8.2,7.4-27.8,9-36.3
						c1-5.4,1.9-18.6-4.5-18.6c-10.1,0-5.3,13.1-10,21.4c-1.7-5.5-5.2-16.4-7-27.4l-1.7-25.7c-0.3-1.9,1.7-16.1-5.4-16.1h-0.3
						c-6.4,0.5-6.2,15.5-8.9,41c-0.8-2.9-1.7-6.5-2.3-9.7c0.1-1.7-1.2-9.4-2.2-13.5c1.3-7.1,0.5-18.3-7-17.3
						c-3.8,0.5-3.5,16.2-3.5,16.2c0,2.1,0.3,18.7,0.1,21.9c-0.8-5.5-3.8-29.2-9.7-29.2c-4.9,0-5.3,6.4-5.2,11.4
						c0.1,3,3.2,28.6,3.3,31.6c-2.3-3.9-5.1-26.5-7.4-26.5c-9.6,0-6.1,32.1-2.6,40.5c0.3,0.9,0.7,2.5,1.1,4.5
						c1.2,5.7,3.2,15.3,8.2,23.9c6,10.3,14.3,26.7,15.6,29.2c0.9,5.1,3.8,23.5,7.4,46.7c1.6,9.9,3.3,20.8,5,32h0.1
						c0.3,2.4,2.1,10.2,9,39.2c9.3,39.8,10.3,41.5,10.7,42.2c4.1,7.2,97.1,133.5,101.1,138.9l2.3,3.2L1694.5,1123.6z"/>
					<path class="st14" d="M1534,841.7c0,0,7-17.9,19.5-17.9c0,0-7-2.5-12.9,2.2C1534.5,830.7,1534,841.7,1534,841.7z"/>
				</g>
				<path class="st20" d="M1526.7,943.9c0-5.1-11.4-65.3-9.9-65.7s45.2-23.9,45.9-21.2c0.7,2.7,7.8,16.3,7.8,16.3L1526.7,943.9z"/>
				<path class="st12" d="M69,921.1h225.3c18,0,33.2,13.4,35.4,31.3l37.3,287.5H92.9L52.1,940.5C50.7,930.3,58.6,921.1,69,921.1z"/>
				<path class="st11" d="M1425.5,1239.9c0.8-80.1,8.1-121.3,13.5-125c59.2-41,265.6,101,262.6,125H1425.5z"/>
				<path class="st8" d="M1954.1,867.3l-132.6,372.6l294.9-0.1V904.4C2088.8,895,1954.1,867.3,1954.1,867.3z"/>
				<g>
					<g>
						<path class="st16" d="M1712.3,779.3l37.2,102.6c0,0-45.8,14.4-73.5,12.6c-23.2-1.5-14.5-33.3-14.5-33.3s2.9-42-5.2-62
							C1648.1,779.3,1712.3,779.3,1712.3,779.3z"/>
						<path class="st17" d="M1708.8,803.5c-10,7.7-30.5,19.8-47.3,25.3c-0.6-10.7-2.1-21.9-5.3-29.6c-3.8-9.2,7.9-14.1,21.5-16.8
							c18.1-2.4,34.5-3.1,34.5-3.1l5.4,13.7C1715.1,797.3,1712.2,800.9,1708.8,803.5z"/>
						<path class="st16" d="M1749.7,681.5c1.8-0.4,0.6,86.5-26.3,107.4c-27,20.9-73.5,23.4-86.8,3c-14.8-22.6,0.6-114.3,40.6-134.4
							C1717.1,637.4,1749.7,681.5,1749.7,681.5z"/>
						<path class="st12" d="M1698.1,613.3c27.1,8.6,42.7,26.7,48.3,34.3c12.5,2.9,28.7,11.4,42.1,41.2c16.5,36.6-5.6,72.5-34,88.1
							s-28.7,36.7-28.7,36.7l-8.2-20.9c0,0,2.6-20.3,10.7-32s-9.9-22.1-13.7-33c-2.9-8.4-0.3-26.6-4.8-40.4c0,0-22.5-21.9-40.6-24.5
							C1638.5,658.3,1663.3,602.3,1698.1,613.3z"/>
					</g>
					<path class="st12" d="M1696.3,676.1c0,0,5.1,10.6,2.2,21.3c-3,10.7-24.5,83.1-18.2,91.5s45.6,24.7,45.6,24.7l17.7-59.4
						l-18.3-82.9L1696.3,676.1z"/>
					<path class="st8" d="M1701.9,699.8c0,0,29.4-44.2,35.4-63.3c0,0,9.1-0.6,14,3.9s-18.3,58.4-30.2,79.4L1701.9,699.8z"/>
					<g>
						<path class="st8" d="M1644.4,775.9c-0.2,0-0.4,0-0.6-0.1c-1.2-0.2-3.1-0.5-16.7-14.2c-6.5-6.5-12.6-13.1-12.6-13.2l3.6-3.4
							c10.8,11.6,23.4,24.1,26.4,25.8c3.4-1,18.5-11,31.7-20.5l2.9,4c-0.1,0.1-7.6,5.5-15.4,10.8
							C1649.3,774.8,1645.9,775.9,1644.4,775.9z M1644.2,771L1644.2,771L1644.2,771z"/>
					</g>
					<path class="st8" d="M1727.1,717.3c4,18-7.4,35.8-25.4,39.8s-35.8-7.4-39.8-25.4s7.4-35.8,25.4-39.8
						C1705.3,687.9,1723.1,699.3,1727.1,717.3z"/>
					<path class="st3" d="M1723.2,718.1c4,18-7.4,35.8-25.4,39.8s-35.8-7.4-39.8-25.4s7.4-35.8,25.4-39.8
						C1701.4,688.8,1719.2,700.1,1723.2,718.1z"/>
					
						<ellipse transform="matrix(2.637418e-03 -1 1 2.637418e-03 960.8453 2413.9775)" class="st8" cx="1690.6" cy="725.3" rx="20.7" ry="20.7"/>
					<path class="st18" d="M1678.1,728.1c-2.2-9.8,3-19.6,12-23.4c-1.3,0-2.6,0.2-4,0.5c-11.2,2.5-18.2,13.5-15.8,24.7
						c2.5,11.2,13.5,18.2,24.7,15.8c1.3-0.3,2.6-0.7,3.8-1.2C1689.2,744.5,1680.3,737.9,1678.1,728.1z"/>
					<path class="st8" d="M1618.4,737.7c3.2,4.7,3.1,10.4-0.1,12.6c-3.3,2.2-8.5,0.2-11.7-4.5s-3.1-10.4,0.1-12.6
						C1609.9,730.9,1615.2,732.9,1618.4,737.7z"/>
				</g>
				<path class="st20" d="M1665.3,1090.6l-162.2,29.4c0,0,1.9-50.1,8.1-52.3c6.2-2.2,132.9,6.8,132.9,6.8l14.9,14.4L1665.3,1090.6z"
					/>
				<path class="st6" d="M1759.2,864.9l-21.1-25.2c-2.1-2.6-5.3-4.1-8.6-4.1l-70.2-1.5c-2.5-0.1-4.9,1.2-6.3,3.4l-17.1,27
					c0,0,40,13.8,43.1,13.8C1682.2,878.2,1759.2,864.9,1759.2,864.9z"/>
				<path class="st6" d="M1857.2,897.4c0,0-22.1-29.5-62.7-31.3s-192.5-14.8-215.8-3.9c-66.4,31.3-34.5,377.8-34.5,377.8h26.7
					l154.3-77.6L1857.2,897.4z"/>
				<path class="st1" d="M1505.4,1240l-83.6-110l43.7-1.5c0.6,0,1.2-0.1,1.8,0h0.2l0,0c5.3,0.2,11.3,2,17.7,6.9
					c22,16.9,82.6,68.8,99.7,104.4L1505.4,1240z"/>
				<path class="st7" d="M1472.9,1066.5c0,0,79.1,3.7,82.8,2.4c0,0,74.9-97.4,76.3-158.5c0.8-33.8-34.8-58.6-62-48.8
					C1551.2,868.2,1472.9,1066.5,1472.9,1066.5z"/>
				<path class="st5" d="M1495.7,1239.9c-32.7-34-74.2-77.2-89.4-93c-3.5-3.6-2.9-9.5,1.1-12.5c7.5-5.5,25-7.9,40.1,3.7
					c22,16.9,78.5,66.6,94.9,101.8H1495.7z"/>
				<path class="st19" d="M1884.1,890.2h-239.8c-18.1,0-33.3,13.5-35.5,31.4l-38.3,318.3h134.2l213-308.3l-7.7-22.5
					c-3.6-10.5-12.9-18.2-24-18.9C1885.4,890.2,1884.7,890.2,1884.1,890.2z"/>
				<path class="st12" d="M1901.7,921.1h-225.3c-18,0-33.2,13.4-35.4,31.3l-37.3,287.5h274.1l40.9-299.4
					C1920.1,930.3,1912.1,921.1,1901.7,921.1z"/>
				<path class="st7" d="M1568.5,1045c0,0-38.6,75.3-68.1,75.2c-29.5-0.1-51.6-28.2-4.3-97.5C1538.4,960.6,1568.5,1045,1568.5,1045z
					"/>
				<path class="st6" d="M1516.8,878.2c0,0-2-7.6-1.5-7.9c0.6-0.4,45.6-20,45.6-20l1.8,6.8L1516.8,878.2z"/>
				<g>
					<polygon class="st1" points="463.5,841.2 665.4,826.3 619.7,984.1 432.1,1009.7 					"/>
					<g>
						<path class="st8" d="M425.6,1016l33.5-179.7l213.4-15.8l-48.8,168.4L425.6,1016z M467.8,846.2l-29.3,157.2l177.1-24.2
							l42.6-147.1L467.8,846.2z"/>
					</g>
				</g>
				<path class="st7" d="M660.7,1033.5c-19.9,3.3-93.9,21-93.9,21s-27,102.1,17.2,90.6c35-9.1,80.5-53.2,98.8-77.5
					C686.8,1043.3,660.7,1033.5,660.7,1033.5z"/>
				<path class="st7" d="M413.9,867.8c-1.4-0.6-3.2-1.2-5.5-1.7c-80.2-8.2,13.8,168.5,13.8,168.5l1,4.5l-0.1-3.6
					c0,0,73.7,82.9,106.9,106.9c30.8,22.2,64.3,4.4,71.9-18.4C613,1090.8,480.2,899.1,413.9,867.8z"/>
			</g>
		</g>
	</g>
</g>
</svg>
