<?xml version="1.0" encoding="utf-8"?>
<!-- Generator: Adobe Illustrator 24.2.3, SVG Export Plug-In . SVG Version: 6.00 Build 0)  -->
<svg version="1.1" xmlns="http://www.w3.org/2000/svg" xmlns:xlink="http://www.w3.org/1999/xlink" x="0px" y="0px"
	 viewBox="0 0 450 450" style="enable-background:new 0 0 450 450;" xml:space="preserve">
<style type="text/css">
	.st0{fill:url(#SVGID_1_);}
	.st1{fill:#FF0000;}
	.st2{fill:#FFFFFF;}
</style>
<g id="Layer_2">
	<radialGradient id="SVGID_1_" cx="225" cy="225" r="404.2013" gradientUnits="userSpaceOnUse">
		<stop  offset="0" style="stop-color:#FFFFFF"/>
		<stop  offset="0.2646" style="stop-color:#FAFAFA"/>
		<stop  offset="0.5697" style="stop-color:#ECECEC"/>
		<stop  offset="0.8938" style="stop-color:#D5D5D5"/>
		<stop  offset="1" style="stop-color:#CCCCCC"/>
	</radialGradient>
	<rect class="st0" width="450" height="450"/>
</g>
<g id="Layer_1">
	<rect class="st1" width="450" height="450"/>
	<g>
		<g>
			<path class="st2" d="M292.9,272.3c-1.4,0.7-3,1.6-4.6,2.4C289.8,273.9,291.4,273.1,292.9,272.3z"/>
			<path class="st2" d="M261.5,283.1c4.7-3.3,8.7-9.6,11.7-18.6c4.3-0.8,8.5-1.8,12.6-3c-2.7-0.5-5.4-1.1-8.1-1.7
				c-1.1,0.2-2.2,0.5-3.2,0.7c0.1-0.4,0.2-0.9,0.3-1.3c-3.1-0.7-6.3-1.5-9.4-2.4c-0.4,1.8-0.7,3.6-1.2,5.3
				c-20.1,2.4-41.3,1.3-61.4-3c0.2-6.1,0.7-13.2,1.6-21.3c0.1-1,0.2-2,0.3-2.9c-3.5-1.6-6.9-3.2-10.3-4.9c-0.2,1.8-0.4,3.5-0.6,5.2
				c-0.9,8.1-1.3,15.2-1.3,21.4c-19.6-5.4-37.6-14-52-25.4c-1.1-6.6-1.2-14.1-0.4-22.2c0.3-3.3,0.9-6.7,1.5-10c-1-0.3-2-0.6-2.9-0.8
				c-1.8,0.3-3.6,0.6-5.4,0.9c-0.2,1.2-0.3,2.5-0.5,3.7c-0.9,8.1-0.6,15.6,0.6,22.4c-6.1-5.8-10.8-11.8-14.3-18
				c-0.4,0.1-0.8,0.2-1.2,0.3c3.5,7.7,9,15.2,16.5,22.3c2.5,9.7,7.2,17.8,13.6,23.9l5.2,4.7l3.2,2.6l5.6,4.2
				c10.1,7.2,22.3,12.6,35.4,16.2c0.9,1,1.8,1.6,2.9,1.9l4.7,1.2l2.2,0.5c-0.8-0.2-1.4-0.8-2-1.7c15.2,3.3,31.3,4.1,46.5,2.2
				c-1.2,0.7-2.5,1.2-3.8,1.3l5.4-0.8l2.2-0.4c1.3-0.3,2.7-0.7,3.9-1.4c8.1-1.5,15.8-3.8,23-6.9c0,0,0,0,0.1,0
				c1.7-0.8,3.8-1.8,5.8-2.8c-0.9,0.4-1.8,0.9-2.7,1.3C278,279.2,269.9,281.6,261.5,283.1z M155.1,259.9
				c-6.6-5.8-11.4-13.9-13.8-24.2c14.1,11.2,31.9,19.6,51.2,25c0.3,9.2,1.7,15.7,3.9,19.3C180.9,275.8,166.5,269,155.1,259.9z
				 M253.3,284.4c-16,1.9-32.8,1.1-48.8-2.4c-1.4-3.4-2.1-9.8-2-18.8c19.8,4.2,40.7,5.3,60.5,2.9
				C260.4,275.1,257.1,281.2,253.3,284.4z"/>
			<path class="st2" d="M163.3,63.5c1.2-0.9,2.5-1.7,3.8-2.6C166,61.7,164.6,62.6,163.3,63.5z"/>
			<path class="st2" d="M355.6,153.3c0-0.2,0-0.4-0.1-0.6l-0.6-5l-0.6-3.9c0.2,1.4,0.4,2.8,0.6,4.2c-2.1-12.5-7.5-24.2-15.4-34.6
				c-0.8-9.8-5.2-19.8-13.4-29.1l-3.4-3.7l-2.3-2.4c-0.2-0.2-0.4-0.4-0.6-0.6c-0.1-0.1-0.2-0.2-0.3-0.3c0.2,0.2,0.4,0.3,0.5,0.5
				c9.8,9.9,15,20.7,15.9,31.3c-8.6-10-19.7-18.5-32.7-25.1c-0.6-6.8-4-13.7-10.3-20c10.5,2.1,19.5,6.7,26.5,13.4
				c-2.1-2-4.6-4.3-6.6-6.1c-14.6-12.5-37.8-14.7-65.3-4c0.1,0.1,0.2,0.2,0.3,0.3c14.8-4.6,28.6-6,40.5-4.4c5.7,5.7,8.8,12,9.3,18.1
				c-14.5-6.5-31-10.7-48.8-11.8c0,0.1,0,0.2,0,0.3c17.8,2.2,34.4,7.3,48.8,14.6c-0.3,6-3.2,11.9-8.4,16.8
				c-12.2-11.9-26.2-22.1-41.3-29.7c-0.1,0.1-0.2,0.2-0.3,0.3c14.2,8.4,27.3,19.3,38.7,31.9c-2.8,2.1-6,4-9.7,5.6
				c-4.4,1.9-9.2,3.4-14.2,4.3c-4.9-15.2-10.8-29.2-17.3-40.8c-0.2,0-0.3,0-0.5,0.1c5,11.8,9.4,26,13,41.4
				c-9.5,1.1-19.4,0.6-28.9-1.4c4.2-15.1,8.5-28.8,12.8-40.2c-0.2,0-0.3-0.1-0.5-0.1c-5.8,11-11.6,24.4-17.1,39.1
				c-9.2-2.5-17.7-6.6-24.4-11.9c12.1-11.5,25.3-21.3,39-28.5c0,0-0.1-0.1-0.1-0.1c-0.1-0.1-0.1-0.1-0.2-0.2
				c-14.7,6.2-28.9,15.2-41.9,25.9c-6-5.7-9.3-11.9-10-18.1c15.7-5.9,33-9.3,50.9-9.7c0-0.1,0-0.2,0-0.3c-18-0.6-35.3,1.9-51,6.9
				c0.1-6.1,2.7-11.9,7.7-17c13.7-0.4,28.6,2.2,44.2,8.3c0.1-0.1,0.2-0.2,0.3-0.3c-14.6-6.8-28.8-10.2-41.7-10.5
				c2.9-2.4,6.5-4.5,10.6-6.3c4-1.8,8.4-3.1,12.9-4c6.5,3.1,13.6,9.6,20.6,19.7c0.2,0,0.3-0.1,0.5-0.1
				c-5.6-10.4-11.1-17.2-16.4-20.5c9.4-1.3,19.4-0.9,28.9,0.9c-2.6,3-5.7,9.5-9.4,19.6c0.2,0,0.3,0.1,0.5,0.1
				c5.3-9.8,9.9-15.9,13.8-18.6c10.1,2.6,19.3,7,26.5,12.9c1.5,0.1,2.9,0.2,4.3,0.5c-7.9-6.6-18.2-11.4-29.3-14.2
				c1.4-0.7,2.7-0.9,3.9-0.6l-2.7-0.7l-4.2-0.9c-0.7-0.1-1.5,0.2-2.4,1c-10.5-2.1-21.5-2.5-31.9-1c-2.3-1.1-4.5-1.4-6.6-1.1
				l-3.3,0.5l-4.5,0.8c2.9-0.6,5.9-0.4,9.1,0.7c-5,1-9.8,2.5-14.3,4.5c-4.6,2-8.5,4.3-11.7,7c-11.7,0.5-22.3,3.7-31.1,9.4
				c0.9-0.8,1.9-1.5,2.9-2.2c-1.6,1.1-3.3,2.2-4.6,3.2c-0.7,0.5-1.3,1-2,1.5c-0.5,0.4-1,0.8-1.5,1.2l-4.7,4.1l-5,4.8
				c1.9-2,4-3.8,6.2-5.5c-9,9.1-13.7,19.7-13.9,30.6c-10,9.5-17.8,20.5-22.5,32.7c0.1-5.8,1.2-11.5,3.4-17l-3,8.5
				c-1.4,4.5-2.2,9.1-2.3,13.7c-1.5,4.7-2.5,9.6-3,14.6l1.1,1.9c0.6-3.3,1.3-6.5,2.3-9.6c0.8,6.1,2.7,12.3,5.8,18.4l2.4-0.8
				c0.6-0.2,1.2-0.4,1.7-0.5c-4.5-7.3-7.2-14.9-8.1-22.3c4.7-12.4,12.5-23.8,22.5-33.8c1.4,11.1,7.4,22.4,18.1,32.6
				c-6.7,10.3-12.2,21-16.2,31.8l1.2,0.1c2.6,0.3,5.1,0.6,7.6,0.9c3.6-9.3,8.1-18.6,13.5-27.7c3.3,2.7,6.9,5.1,10.7,7.4
				c0.6-0.6,1.3-0.9,2.1-1.1c0.3,0,0.7-0.1,1,0c0.8,0.1,1.7,0.4,2.3,1l1.5,1.4c0.2,0.2,0.3,0.3,0.4,0.5c0.7,0.9,1.1,1.9,1.3,2.9
				c7.7,3.8,16,7,24.7,9.4c-3.9,15.3-7.2,30.5-9.6,44.9c-2.7-0.7-5.3-1.6-8-2.4c2.6,1.4,5.1,2.8,7.7,4.2c3.3,1.8,6.7,3.5,10,5.1
				c2,1,4,2,6.1,2.9c18.6,3.4,37.9,4,56.3,1.8c-0.2,5.5-0.6,10.8-1.1,15.9c0,0.4-0.1,0.8-0.1,1.3c3.4,0.8,6.8,1.4,10.1,2
				c0.2-1.6,0.4-3.2,0.6-4.9c0.5-5.1,0.9-10.4,1-15.8c10.9-2,21.3-5.1,30.9-9.3c8.1-3.5,15.1-7.6,21.1-12.2
				c0.3,5.3,0.2,10.5-0.4,15.6c-0.9,8.1-2.7,15.4-5.4,21.9c-3.8,2.9-8.2,5.6-12.9,8.2c1.8,0,3.6,0,5.3,0c1.9-1.2,3.8-2.5,5.5-3.9
				c-0.7,1.3-1.4,2.5-2.1,3.8c0.8,0,1.7-0.1,2.5-0.1c2.1-2.7,4.1-5.7,5.8-8.9c4.9-4.6,8.8-9.6,11.6-14.8l2.6-5.1
				c-2.9,5.5-7,10.7-12.1,15.6c2.9-6.6,4.8-14,5.6-22.1c0.5-5.1,0.6-10.3,0.3-15.5c11.3-10.7,17.5-23.3,18.2-36.4
				c0.1,1.5,0.2,3,0.3,4.5c0-3.6-0.1-7.3-0.3-10.4C355.7,153.9,355.7,153.6,355.6,153.3z M303.4,87.5c13,7.4,24.1,16.6,32.7,27.1
				c-0.6,10.5-5.5,20.6-14.6,29.2c-7.2-13.4-16.5-26.2-27.4-37.7C299.9,100.6,303,94.1,303.4,87.5z M227.2,119
				c10.4,2.2,21.4,2.8,31.9,1.6c3.2,14.7,5.7,30.3,7.4,46c-16.4,2-33.7,1.1-50.1-2.4C219.7,148.7,223.3,133.3,227.2,119z
				 M155.6,70.1c9.3-6.1,20.5-9.8,32.9-11c-5.5,5.5-8.4,12-8.5,18.7c-14.3,5.3-27.1,12.6-37.8,21.6C142.4,89,146.9,78.8,155.6,70.1z
				 M159.9,136.4c-10.3-9.9-16.1-20.7-17.4-31.4c10.6-9.6,23.4-17.6,37.6-23.6c0.9,6.8,4.5,13.7,11.1,20
				C179.5,111.8,168.8,123.7,159.9,136.4z M165.6,141.4c8.3-13.2,18.2-25.7,29.2-36.8c7.4,5.9,16.8,10.4,27,13.2
				c-5,14-9.7,29.1-13.8,44.3C192.1,157.6,177.3,150.7,165.6,141.4z M269,219c-20.3,2.4-41.7,1.3-62-3c2.1-14.5,4.8-29.9,8-45.3
				c17.1,3.7,35.1,4.6,52.2,2.5C268.6,188.9,269.3,204.5,269,219z M264.4,119.7c5.5-1,10.8-2.6,15.7-4.7c4.1-1.8,7.7-3.9,10.8-6.2
				c10.2,12.1,18.9,25.4,25.6,39.3c-4.8,3.7-10.4,7-16.9,9.8c-7.7,3.4-16,5.8-24.7,7.4C272.3,149.7,268.8,134.2,264.4,119.7z
				 M309.9,208.2c-9.5,4.2-19.8,7.2-30.6,9.2c0-14.5-1.2-30-3.4-45.6c9-1.7,17.7-4.2,25.7-7.7c6.7-2.9,12.6-6.4,17.6-10.2
				c6.1,14,10.1,28.3,11.6,42.2C324.8,200.6,317.9,204.7,309.9,208.2z M337,190.8c-1.6-13.7-6-27.8-12.6-41.4
				c9.4-8.9,14.5-19.4,15.2-30.4c7.9,10.9,13.3,22.9,15.4,35.6C354.3,167.7,348.2,180.2,337,190.8z"/>
			<path class="st2" d="M356,164.6c0,2.5,0,4.9,0,7C356.1,169.3,356.1,167,356,164.6z"/>
		</g>
		<g>
			<path class="st2" d="M96,159.1l2.9-11.3c-39.6-42.4-41.2-80.5,1.2-91.6c3.4-0.9,7.1-1.6,11-2.1c7.7-1,23.7-0.9,35-0.4
				c0.5,0,1.4,0.1,2.7,0.1c4.6,0.1,13,0.4,14.3,0.5c4.9-2,7.3-3,15.1-5c-2.8-0.5-12.9-2.6-18-3.5c-0.8-0.1-1.5-0.3-2-0.3
				c-20.5-3-46-4.7-60.4-2.8c-4.3,0.6-8.4,1.4-12.2,2.4C34.3,58.5,40.6,107.2,96,159.1z"/>
			<path class="st2" d="M371.1,162.5c-0.2-0.2-0.8-1-1.7-1.9c-1.5-1.7-3.8-4.3-5.7-6.2c0.2,3.7,0.2,6.7,0,9.5
				c1.5,1.8,3.9,5.4,5.4,7.7c0.6,1,1.1,1.7,1.2,1.9c18.1,34.3,12.7,65.9-19.7,74.4c-3.4,0.9-7.1,1.6-11,2.1
				c-6.3,0.8-12.7,1.3-19.4,1.5c-0.6,0-1.1,0-1.7,0c-2.4,0-4.9,0-7.4,0c-2.1,0-4.2-0.1-6.2-0.2c-9-0.5-18.4-1.5-27.9-3.2
				c-3.3-0.6-6.6-1.3-10-2c-19.6-4.4-40.1-11.4-61.2-21.6c-3.4-1.6-6.7-3.3-10.1-5.1c-5.8-3.1-11.7-6.4-17.6-10l-11-0.6l-3.2-0.2
				c10,6.3,20.3,12.1,30.9,17.4c3.4,1.7,6.8,3.3,10.2,4.9c20.1,9.3,40.8,16.8,61,22.1c3.2,0.9,6.5,1.7,9.7,2.4
				c3.6,0.8,7.2,1.6,10.8,2.3c2.5,0.5,4.9,0.9,7.3,1.3c5.3,0.9,10.5,1.6,15.6,2.2c0,0,0,0,0,0c15.8,1.7,30.5,1.8,43.6,0.1
				c4.3-0.6,8.4-1.4,12.2-2.4C409.7,247.3,408,206.5,371.1,162.5z"/>
			<path class="st2" d="M178.1,199.7c0,0,8.3-2.6,1.5-10c0,0-3.8-4.5-17-8.2c1.4-1.2,3.9-3.6,6.5-6.3l3.3,2.4
				c0.2,0.2,0.4,0.3,0.6,0.4c0.2,0.1,0.3,0.2,0.5,0.2c1.6,0.5,3.2-0.5,3.7-2.1c0.3-1.1,0.1-2.2-0.6-3c-0.3-0.4-0.8-0.7-1.3-0.9
				c-0.1,0-0.2,0-0.3-0.1l-2.2-1.3c3.7-4.6,6.4-9.5,4.3-12.3l-1.5-1.4c0,0-4.7,8.8-25.4,21.7c-0.9-0.2-1.9-0.3-2.9-0.4
				c-2.5-0.4-5.1-0.7-8-0.9c0,0-0.3,0-0.7-0.1c-1.2-0.2-3.7-0.6-6.7-1c-2.2-0.3-4.6-0.7-7-1.1c-2.5-0.4-4.9-0.7-7-1l4.8-2.3l3.2-1.5
				c0,0,0.5-0.5,0.6-0.9c0.1-0.2,0-0.5-0.4-0.5c-0.4-0.1-1.3,0-2.9,0.6l-1.7,0.6l-6.1,2l-4.7-8L110,163l-3.5-6c0,0-3-5.7-2.1,1.3
				c0,0,1.8,9.8,4.7,14.7l-15.4,3.2c0,0-2.3,1,1,1.2l15.2-0.1c0.2,0.5,0.6,1.1,0.9,1.7c0,0,0,0,0,0c0.1,0.2,0.3,0.4,0.4,0.7
				c1.3,1.9,3.5,3.9,6.6,5.9c1.7,1.1,3.9,2.3,7.2,3.8c-6.1,0.9-23.9,2.9-44.8,0.9c0,0-9.3,0.1,7.2,4.8c0,0,1,3,1.5,4.5
				c0.7,1.9,4.4,1.7,4.6-0.2c0.1-1-0.9-3-0.9-3c5.3,0.9,10.8,1.1,18,1c0,0,2.4,4.1,3.6,5.5c0.5,0.6,1.2,0.8,2,0.9c0.3,0,0.6,0,0.9,0
				c1.6-0.2,3.1-1.2,3.5-2.2c0.2-0.7,0.2-1.4,0-2.1c-0.1-0.4-0.4-0.8-0.7-1.2l-0.7-1.3c4.7-0.3,9.7-0.9,14.7-1.7
				c1.6-0.3,3.3-0.6,5-0.9c1.1,0.3,2.3,0.7,3.5,1c1.3,0.4,2.6,0.7,4,1.1c2.9,0.8,6.2,1.6,9.7,2.5c0,0,3,0.8,7,1.3
				C167.6,200.8,173.5,201.1,178.1,199.7z"/>
		</g>
	</g>
	<g>
		<g>
			<path class="st2" d="M66,316c3.5,0.2,6.8,1,9.9,2.5s5.8,3.4,8.1,5.8c2.3,2.4,4.1,5.2,5.4,8.3c1.3,3.2,2,6.5,2,10.1
				c0,3.6-0.7,6.9-1.9,10c-1.3,3.1-3.1,5.8-5.4,8.2c-2.3,2.4-5,4.2-8,5.7c-3.1,1.4-6.4,2.2-10,2.4H53.9v-53.1L66,316L66,316z
				 M66,356.8c1.9-0.2,3.6-0.7,5.2-1.5c1.6-0.8,3-1.8,4.2-3c1.2-1.2,2.1-2.6,2.8-4.3c0.7-1.6,1-3.4,1-5.2c0-1.9-0.3-3.7-1-5.4
				c-0.7-1.7-1.6-3.2-2.8-4.5c-1.2-1.3-2.6-2.4-4.2-3.2c-1.6-0.8-3.3-1.4-5.2-1.5V356.8z"/>
			<path class="st2" d="M116.9,316.1c3.6,0,7.1,0.7,10.3,2.1c3.2,1.4,6,3.3,8.4,5.7s4.3,5.2,5.7,8.4c1.4,3.2,2.1,6.6,2.1,10.3
				s-0.7,7.1-2.1,10.3c-1.4,3.2-3.3,6-5.7,8.4c-2.4,2.4-5.2,4.3-8.4,5.6c-3.2,1.4-6.6,2.1-10.3,2.1c-3.6,0-7.1-0.7-10.3-2.1
				c-3.2-1.4-6-3.3-8.4-5.6c-2.4-2.4-4.3-5.2-5.6-8.4c-1.4-3.2-2.1-6.6-2.1-10.3s0.7-7.1,2.1-10.3c1.4-3.2,3.3-6,5.6-8.4
				c2.4-2.4,5.2-4.3,8.4-5.7C109.9,316.8,113.3,316.1,116.9,316.1z M117,356.8c2,0,3.8-0.4,5.5-1.1c1.7-0.7,3.2-1.8,4.5-3.1
				c1.3-1.3,2.3-2.8,3.1-4.5c0.7-1.7,1.1-3.6,1.1-5.5s-0.4-3.8-1.1-5.5c-0.7-1.7-1.8-3.2-3.1-4.5c-1.3-1.3-2.8-2.3-4.5-3.1
				c-1.7-0.7-3.6-1.1-5.5-1.1c-2,0-3.8,0.4-5.5,1.1c-1.7,0.7-3.2,1.8-4.5,3.1c-1.3,1.3-2.3,2.8-3.1,4.5c-0.7,1.7-1.1,3.6-1.1,5.5
				s0.4,3.8,1.1,5.5c0.7,1.7,1.8,3.2,3.1,4.5c1.3,1.3,2.8,2.3,4.5,3.1C113.1,356.4,115,356.8,117,356.8z"/>
			<path class="st2" d="M177.5,316.2h12.2V369h-13.2l-17.3-30.8V369H147v-52.7h13.2l17.2,30.7V316.2z"/>
			<path class="st2" d="M243,316.1l-27.1,26.5L243,369h-17.6l-17-16.6V369h-12.2v-52.9h12.2v16.7l17.1-16.7H243z"/>
			<path class="st2" d="M276.9,328.4h-21.7v8h17.6v12.2h-17.6v8.3h21.7V369H243v-52.7l33.9-0.1V328.4z"/>
			<path class="st2" d="M291.4,369l6.1-15l-18.1-38.3h13.5l10.9,23l9.3-23h13.2L304.6,369H291.4z"/>
		</g>
		<g>
			<path class="st2" d="M217.2,413.8l-1.4-4.4h-11.5l-1.5,4.4h-8.9l12.5-36.7h8l11.8,36.7H217.2z M207.1,401h5.9l-2.9-8.9L207.1,401
				z"/>
			<path class="st2" d="M237,413.8h-8.4v-36.7h8.4V413.8z"/>
			<path class="st2" d="M253.1,404.4c-0.4,0.1-0.9,0.1-1.3,0.2c-0.4,0-0.9,0.1-1.3,0.1v9.2H242v-36.5h8.4c2.1,0,4.1,0.4,5.9,1.1
				c1.8,0.7,3.4,1.7,4.8,2.9c1.4,1.2,2.5,2.7,3.2,4.3c0.8,1.6,1.2,3.4,1.2,5.2c0,2-0.4,3.8-1.3,5.5c-0.8,1.7-2,3.1-3.5,4.4l8.1,13.1
				H259L253.1,404.4z M250.4,396.1c0.9,0,1.8-0.2,2.6-0.5c0.8-0.3,1.5-0.7,2.1-1.1c0.6-0.5,1.1-1,1.4-1.6s0.5-1.3,0.5-2
				s-0.2-1.4-0.5-2c-0.3-0.6-0.8-1.1-1.4-1.6c-0.6-0.5-1.3-0.8-2.1-1.1c-0.8-0.3-1.7-0.4-2.6-0.5V396.1z"/>
			<path class="st2" d="M294.5,413.8h-21.8v-36.7h8.4v28.3h13.4V413.8z"/>
			<path class="st2" d="M306.4,413.8h-8.4v-36.7h8.4V413.8z"/>
			<path class="st2" d="M332.5,377.2h8.4v36.7h-9.1l-12-21.4v21.4h-8.4v-36.6h9.2l11.9,21.3V377.2z"/>
			<path class="st2" d="M368.6,385.6h-15.1v5.5h12.2v8.4h-12.2v5.8h15.1v8.4H345v-36.6l23.5-0.1V385.6z"/>
			<path class="st2" d="M383.8,414.5c-1.2,0-2.3-0.2-3.5-0.5c-1.1-0.3-2.2-0.8-3.3-1.5c-1.8-1.2-3.2-2.7-4.2-4.5
				c-1-1.8-1.5-3.9-1.5-6.1h8.4c0,1,0.2,1.8,0.7,2.3c0.4,0.5,0.8,0.9,1.1,1.1c0.6,0.4,1.2,0.6,1.9,0.7c0.7,0,1.4-0.1,2-0.4
				c0.5-0.2,0.8-0.5,1.1-0.8c0.3-0.3,0.5-0.6,0.7-0.9c0.1-0.3,0.2-0.6,0.3-0.8c0-0.3,0-0.5,0-0.7c0-0.2,0-0.4,0-0.7
				c0-0.3-0.1-0.5-0.3-0.8c-0.2-0.3-0.4-0.6-0.7-0.9c-0.3-0.3-0.7-0.5-1.1-0.8c-0.4-0.2-0.8-0.3-1.2-0.5c-0.4-0.1-0.9-0.3-1.3-0.4
				c-0.8-0.3-1.7-0.6-2.6-0.9c-0.9-0.3-1.8-0.8-2.7-1.3c-1.2-0.7-2.1-1.7-2.9-2.7c-0.8-1.1-1.4-2.3-1.7-3.5
				c-0.3-1.3-0.5-2.6-0.3-3.9c0.1-1.4,0.5-2.6,1.1-3.9c0.6-1.1,1.4-2.1,2.2-2.9c0.9-0.8,1.9-1.5,3-2c1.1-0.5,2.3-0.8,3.5-0.9
				c1.3-0.1,2.5,0,3.8,0.3c1.3,0.3,2.4,0.8,3.4,1.4c1,0.7,1.9,1.4,2.7,2.4c0.7,0.9,1.3,1.9,1.7,3.1c0.4,1.1,0.6,2.3,0.6,3.5h-8.4
				c0-0.8-0.2-1.3-0.7-1.6c-0.5-0.3-0.9-0.5-1.3-0.6c-0.1,0-0.2,0-0.5-0.1c-0.3,0-0.5,0-0.8,0c-0.3,0-0.6,0.2-1,0.3
				c-0.3,0.2-0.6,0.5-0.8,0.9c-0.3,0.5-0.3,1.1-0.1,1.7c0.2,0.6,0.5,1,1,1.4c0.5,0.3,1,0.5,1.5,0.7c0.6,0.2,1.2,0.4,1.8,0.6
				c0.6,0.2,1.1,0.3,1.7,0.5c0.6,0.2,1.2,0.4,1.8,0.7c2.2,1,3.9,2.5,5.1,4.4c1.2,1.9,1.9,4.1,1.9,6.4c0,2.3-0.6,4.5-1.9,6.4
				c-1.2,1.9-3,3.4-5.1,4.4c-0.9,0.4-1.7,0.7-2.6,0.9S384.7,414.5,383.8,414.5z"/>
		</g>
	</g>
</g>
</svg>
