<?xml version="1.0" encoding="utf-8"?>
<!-- Generator: Adobe Illustrator 24.2.3, SVG Export Plug-In . SVG Version: 6.00 Build 0)  -->
<svg version="1.1" id="Calque_1" xmlns="http://www.w3.org/2000/svg" xmlns:xlink="http://www.w3.org/1999/xlink" x="0px" y="0px"
	 viewBox="0 0 100 100" style="enable-background:new 0 0 100 100;" xml:space="preserve">
<style type="text/css">
	.st0{fill:#ED1C24;}
	.st1{fill:#FFFFFF;}
</style>
<g>
	<circle class="st0" cx="50" cy="50" r="45"/>
	<g>
		<g>
			<path class="st1" d="M17.4,37.5c0.9,0.1,1.8,0.3,2.6,0.7c0.8,0.4,1.5,0.9,2.1,1.5c0.6,0.6,1.1,1.4,1.4,2.2
				c0.4,0.8,0.5,1.7,0.5,2.7c0,0.9-0.2,1.8-0.5,2.6c-0.3,0.8-0.8,1.5-1.4,2.1c-0.6,0.6-1.3,1.1-2.1,1.5c-0.8,0.4-1.7,0.6-2.6,0.6
				h-3.2v-14L17.4,37.5L17.4,37.5z M17.4,48.3c0.5-0.1,1-0.2,1.4-0.4c0.4-0.2,0.8-0.5,1.1-0.8c0.3-0.3,0.6-0.7,0.7-1.1
				c0.2-0.4,0.3-0.9,0.3-1.4c0-0.5-0.1-1-0.3-1.4c-0.2-0.5-0.4-0.8-0.7-1.2c-0.3-0.4-0.7-0.6-1.1-0.9c-0.4-0.2-0.9-0.4-1.4-0.4V48.3
				z"/>
			<path class="st1" d="M30.8,37.6c1,0,1.9,0.2,2.7,0.6c0.8,0.4,1.6,0.9,2.2,1.5c0.6,0.6,1.1,1.4,1.5,2.2c0.4,0.8,0.6,1.7,0.6,2.7
				c0,1-0.2,1.9-0.6,2.7c-0.4,0.8-0.9,1.6-1.5,2.2s-1.4,1.1-2.2,1.5c-0.8,0.4-1.7,0.6-2.7,0.6c-1,0-1.9-0.2-2.7-0.6
				c-0.8-0.4-1.6-0.9-2.2-1.5c-0.6-0.6-1.1-1.4-1.5-2.2c-0.4-0.8-0.6-1.7-0.6-2.7s0.2-1.9,0.6-2.7c0.4-0.8,0.9-1.6,1.5-2.2
				s1.4-1.1,2.2-1.5C28.9,37.8,29.8,37.6,30.8,37.6z M30.8,48.3c0.5,0,1-0.1,1.5-0.3c0.5-0.2,0.9-0.5,1.2-0.8
				c0.3-0.3,0.6-0.7,0.8-1.2c0.2-0.5,0.3-0.9,0.3-1.5s-0.1-1-0.3-1.5c-0.2-0.5-0.5-0.9-0.8-1.2c-0.3-0.3-0.7-0.6-1.2-0.8
				c-0.5-0.2-0.9-0.3-1.5-0.3c-0.5,0-1,0.1-1.5,0.3c-0.5,0.2-0.9,0.5-1.2,0.8c-0.3,0.3-0.6,0.7-0.8,1.2c-0.2,0.5-0.3,0.9-0.3,1.5
				s0.1,1,0.3,1.5c0.2,0.5,0.5,0.9,0.8,1.2c0.3,0.3,0.7,0.6,1.2,0.8C29.8,48.2,30.3,48.3,30.8,48.3z"/>
			<path class="st1" d="M46.7,37.6h3.2v13.9h-3.5l-4.5-8.1v8.1h-3.2V37.6h3.5l4.5,8.1L46.7,37.6L46.7,37.6z"/>
			<path class="st1" d="M63.9,37.6l-7.1,7l7.1,6.9h-4.6l-4.5-4.4v4.4h-3.2V37.6h3.2V42l4.5-4.4H63.9z"/>
			<path class="st1" d="M72.9,40.8h-5.7v2.1h4.6v3.2h-4.6v2.2h5.7v3.2h-8.9V37.6l8.9,0V40.8z"/>
			<path class="st1" d="M76.6,51.5l1.6-3.9l-4.7-10.1H77l2.9,6l2.4-6h3.5l-5.7,14H76.6z"/>
		</g>
		<g>
			<path class="st1" d="M35.5,62.5l-0.3-1h-2.6l-0.3,1h-2l2.8-8.3h1.8l2.7,8.3H35.5z M33.3,59.6h1.3l-0.7-2L33.3,59.6z"/>
			<path class="st1" d="M40,62.5h-1.9v-8.3H40V62.5z"/>
			<path class="st1" d="M43.7,60.4c-0.1,0-0.2,0-0.3,0c-0.1,0-0.2,0-0.3,0v2.1h-1.9v-8.3h1.9c0.5,0,0.9,0.1,1.3,0.3
				c0.4,0.2,0.8,0.4,1.1,0.7c0.3,0.3,0.6,0.6,0.7,1c0.2,0.4,0.3,0.8,0.3,1.2c0,0.4-0.1,0.9-0.3,1.2c-0.2,0.4-0.5,0.7-0.8,1l1.8,3H45
				L43.7,60.4z M43.1,58.5c0.2,0,0.4-0.1,0.6-0.1c0.2-0.1,0.4-0.2,0.5-0.3c0.1-0.1,0.3-0.2,0.3-0.4c0.1-0.1,0.1-0.3,0.1-0.5
				c0-0.2,0-0.3-0.1-0.4c-0.1-0.1-0.2-0.3-0.3-0.4c-0.1-0.1-0.3-0.2-0.5-0.3c-0.2-0.1-0.4-0.1-0.6-0.1V58.5z"/>
			<path class="st1" d="M53,62.5h-4.9v-8.3H50v6.4h3V62.5z"/>
			<path class="st1" d="M55.7,62.5h-1.9v-8.3h1.9V62.5z"/>
			<path class="st1" d="M61.6,54.2h1.9v8.3h-2.1l-2.7-4.8v4.8h-1.9v-8.3h2.1l2.7,4.8V54.2z"/>
			<path class="st1" d="M69.8,56.1h-3.4v1.3h2.8v1.9h-2.8v1.3h3.4v1.9h-5.3v-8.3l5.3,0V56.1z"/>
		</g>
	</g>
</g>
</svg>
