<?xml version="1.0" encoding="utf-8"?>
<!-- Generator: Adobe Illustrator 24.2.3, SVG Export Plug-In . SVG Version: 6.00 Build 0)  -->
<svg version="1.1" xmlns="http://www.w3.org/2000/svg" xmlns:xlink="http://www.w3.org/1999/xlink" x="0px" y="0px"
	 viewBox="0 0 750 500" style="enable-background:new 0 0 750 500;" xml:space="preserve">
<style type="text/css">
	.st0{fill:url(#SVGID_1_);}
	.st1{fill:#FFFFFF;}
	.st2{fill:#A2C6E8;}
	.st3{opacity:0.5;fill:#99BBDB;}
	.st4{fill:#99BBDB;}
	.st5{clip-path:url(#SVGID_3_);}
	.st6{fill:#63631E;}
	.st7{opacity:0.5;}
	.st8{fill:#A3A343;}
	.st9{opacity:0.5;fill:#A3A343;}
	.st10{fill:#707022;}
	.st11{fill:#5C5C25;}
	.st12{fill:#61611D;}
	.st13{fill:#545422;}
	.st14{fill:#B0B04A;}
	.st15{opacity:0.5;fill:#B0B04A;}
	.st16{fill:#EDDD7E;}
	.st17{opacity:0.5;fill:#EDDD7E;}
	.st18{fill:#82822E;}
	.st19{fill:#CDCF5F;}
	.st20{opacity:0.5;fill:#CDCF5F;}
	.st21{fill:#FFF4B0;}
	.st22{opacity:0.5;fill:#FFF7C7;}
	.st23{fill:#8E8F39;}
	.st24{fill:#858535;}
	.st25{fill:#696926;}
	.st26{fill:none;stroke:#42421B;stroke-miterlimit:10;}
	.st27{fill:#FFE678;}
	.st28{fill:#7D7D32;}
	.st29{opacity:0.5;fill:#7D7D32;}
</style>
<g id="BACKGROUND">
	<linearGradient id="SVGID_1_" gradientUnits="userSpaceOnUse" x1="375" y1="353.4" x2="375" y2="-87.313">
		<stop  offset="0.3772" style="stop-color:#FFFFFF"/>
		<stop  offset="0.8347" style="stop-color:#8CD7FF"/>
	</linearGradient>
	<rect class="st0" width="750" height="500"/>
</g>
<g id="OBJECTS">
	<g>
		<path class="st1" d="M200.6,191.3h-137c-7.6-14.5-5.1-32.8,3.8-46.5c4.5-6.9,10.3-13,17.6-16.8c7.3-3.8,16-5.1,23.8-2.7
			c6.3,2,11.8,6.2,16,11.4c4.2,5.1,7.3,11.1,10.1,17.1c3.3-6.3,11.3-9.5,18.1-7.3c6.8,2.2,11.5,9.6,10.6,16.7
			c1.9-2.4,4.3-4.3,7.3-5.3c2.9-1,6.3-0.9,9,0.6c3,1.6,5,4.8,6,8.1c1,3.3,1.1,6.8,1.2,10.3c3.5-2.2,8.6-0.9,11.2,2.3
			C200.9,182.3,201.1,187.2,200.6,191.3z"/>
		<path class="st1" d="M217.8,106H21c-5-2.2-8.9-7-9.4-12.4c-0.6-5.4,2.3-11.1,7.2-13.5c4.8-2.4,11.3-1.2,14.7,3
			c-4.2-11.5-3.4-25.7,3.1-36.1s18.8-17.2,31.1-16.2c11,0.9,21.1,7.7,27.2,16.9c6.1,9.2,8.6,20.5,8.4,31.5c2.2-2.7,3.6-5.6,6.3-7.7
			c2.8-2.2,6.2-3.7,9.7-3.6c3.3,0.1,6.4,1.6,8.7,3.8c4.2,3.9,6,10.2,4.5,15.8c2.9-6.6,11-11.6,18.1-10.5c7.1,1.2,13,7.5,13.7,14.7
			c2.2-11.8,8.7-23,17.3-31.4c4.4-4.3,10.4-8.1,16.3-6.3c5.6,1.7,8.6,7.6,10.4,13.1c2.3,7.2,3.6,14.7,3.8,22.3
			c1.8-2.4,6.4-3.8,8.6-1.8c2.2,2.1,2.8,5.4,2.2,8.4C222.4,99.1,219.3,103.4,217.8,106z"/>
		<path class="st1" d="M750,114.4c-1.3-0.4-2.7-0.6-4.1-0.6c-3.3,0.1-6.4,1.6-8.7,3.8c-4.2,3.9-6,10.2-4.5,15.8
			c-2.9-6.6-11-11.6-18.1-10.5c-7.1,1.2-13,7.5-13.7,14.7c-2.2-11.8-8.7-23-17.3-31.4c-4.4-4.3-10.4-8.1-16.3-6.3
			c-5.6,1.7-8.6,7.6-10.4,13.1c-2.3,7.2-3.6,14.7-3.8,22.3c-1.8-2.4-6.4-3.8-8.6-1.8c-2.2,2.1-2.8,5.4-2.2,8.4
			c0.6,3,3.7,7.3,5.2,9.9H750V114.4z"/>
		<path class="st1" d="M688.6,94.5H581.8c-3.8-6-8-11.6-10.3-18.4c-2.3-6.8-3-14.3-0.4-21c2.5-6.7,8.6-12.2,15.7-12.8
			c7.6-0.6,14.7,4.4,18.8,10.7s5.8,14,7.4,21.4c2.7-3.8,5-7.6,8.6-10.5c3.7-2.8,8.5-4.5,13-3.3c3.6,1,6.6,3.7,8.6,6.9
			c2,3.2,3.1,6.8,4.1,10.5c1.1-3.3,4.3-5.5,7.7-4.8c3.4,0.7,6,4.1,5.7,7.6c1.9-4.8,5.1-10,8.9-13.5c3.7-3.5,9.8-5.1,14-2.3
			c3.2,2.1,4.6,6,5.5,9.8C690.7,81.9,690.3,87.4,688.6,94.5z"/>
	</g>
	<g>
		<g>
			<g>
				<path class="st2" d="M400.8,163.7c-31.1,27.7-56.3,60.3-86.3,89.3c-26.3,25.5-55.8,48.8-89.6,62.4c-4.7,1.9-9.5,3.6-14.4,5.1
					c-28.6,8.7-58.3,8.5-87.1,2c-29.6-6.6-58.3-19.8-84-36.6c-1.7-1.1-3.3-2.2-5-3.3c-2.6-1.7-5.1-3.5-7.5-5.3
					c4,1.5,8.3-1.3,11.7-3.9c7.5-5.7,15-11.5,22.4-17.3c11.7-9.2,23.3-18.5,34.8-28c33.8-27.9,67.2-57.7,88.8-95.8
					c4.6-8.1,8.8-16.8,16.1-22.6c5.2-4.1,12.5-6.2,18.7-4.7c2.6,0.6,4.9,1.8,6.9,3.7c3.1-5.5,12.6-5.1,16.2,0.1
					c3.7,5.3,1.6,13.8,6.6,17.8c3.2,2.6,7.5,1.9,11.6,0.2c1.3-0.6,2.6-1.2,3.8-1.9c0.5-0.3,0.9-0.5,1.4-0.8
					c5.1-3.2,12.1-6.3,16.7-2.4c2.6,2.1,3.5,5.8,6.3,7.6c2.7,1.8,6.3,1.3,9.3,0.2c3-1.1,6-2.6,9.2-2.8c3.2-0.2,6.9,1.7,7.3,4.9
					c0.7,5,2.8,9.6,5.9,13.4c5.7,7.2,14.8,12.1,24.1,13.9c5.7,1.1,11.4,0.8,17.2,0.3c3.8-0.4,7.6-0.8,11.4-1.1
					C382.9,157.2,393.2,157.9,400.8,163.7z"/>
			</g>
			<g>
				<path class="st3" d="M400.8,163.7c-31.1,27.7-56.3,60.3-86.3,89.3c-26.3,25.5-55.8,48.8-89.6,62.4c-4.7,1.9-9.5,3.6-14.4,5.1
					c-28.6,8.7-58.3,8.5-87.1,2c-29.6-6.6-58.3-19.8-84-36.6c-1.7-1.1-3.3-2.2-5-3.3c-2.6-1.7-5.1-3.5-7.5-5.3
					c4,1.5,8.3-1.3,11.7-3.9c7.5-5.7,15-11.5,22.4-17.3c4.8,2.6,9.7,4.8,14.8,6.8c9.7,3.7,19.8,6.4,30.1,7.8
					c26.9,3.8,55-0.2,79.4-12.1c-2.3,6-6.2,11.7-11.1,15.9c14.6-4,28.8-9,42.6-15.1c23.5-10.4,45.5-24.1,64.9-41.1
					c-0.7,3.9-1.4,7.9-2.1,11.8c20.7-8.1,38.7-21.9,54.3-37.8c10.2-10.4,19.3-21.6,28.1-33.2c3.8-0.4,7.6-0.8,11.4-1.1
					C382.9,157.2,393.2,157.9,400.8,163.7z"/>
				<path class="st3" d="M260.7,126.8c-2.2,7.6-6.3,14.7-11.4,20.7c-9.2,10.9-21.4,18.8-33.4,26.5c8.1-1.5,16.2-1.9,24.3-3.4
					c-9.1,7.5-19.3,13.6-29.4,19.8c-20.6,12.4-41.2,24.9-61.8,37.4c3.6,0.4,7.2,0.7,10.8,1.1c-9,8.3-19.1,15.5-30,21.3
					c5.4,0.8,9.9,0,15.2-1c-11.9,8.8-25.2,16.1-39.1,21.5c-19.2,7.5-39.9,11.6-60.4,12h0c-3.7,0.1-7.4,0-11.1-0.1
					c-2.6-1.7-5.1-3.5-7.5-5.3c4,1.5,8.3-1.3,11.7-3.9c7.5-5.7,15-11.5,22.4-17.3c11.7-9.2,23.3-18.5,34.8-28
					c33.8-27.9,67.2-57.7,88.8-95.8c4.6-8.1,8.8-16.8,16.1-22.6c5.2-4.1,12.5-6.2,18.7-4.7c2.6,0.6,4.9,1.8,6.9,3.7
					c3.1-5.5,12.6-5.1,16.2,0.1c3.7,5.3,1.6,13.8,6.6,17.8C252.4,129.2,256.7,128.5,260.7,126.8z"/>
				<path class="st3" d="M217.9,126c-20.4,19.1-41,39.6-61.5,58.7c7.4-2.4,14.9-4.8,22.3-7.2c-21.1,17.2-42.4,35.4-63.5,52.6
					c5.4-1.5,10.9-2.9,16.3-4.4c-18.6,12.1-37.2,24.7-55.8,37.1c-8.4,5.6-16.8,11.2-25.2,16.6c-1.7,1.1-3.4,2.2-5.1,3.2h0
					c-2,1.2-4,2.3-6.1,3.2c-1.7-1.1-3.3-2.2-5-3.3c-2.6-1.7-5.1-3.5-7.5-5.3c4,1.5,8.3-1.3,11.7-3.9c7.5-5.7,15-11.5,22.4-17.3
					c11.7-9.2,23.3-18.5,34.8-28c33.8-27.9,67.2-57.7,88.8-95.8c4.6-8.1,8.8-16.8,16.1-22.6c5.2-4.1,12.5-6.2,18.7-4.7
					c-6.2,7.2-12,14.7-17.7,22.3c-0.6,0.8-1.1,1.8-0.6,2.6c0.6,0.9,1.8,0.7,2.8,0.4C208.6,128.8,213.2,127.4,217.9,126z"/>
				<path class="st3" d="M400.8,163.7c-31.1,27.7-56.3,60.3-86.3,89.3c-26.3,25.5-55.8,48.8-89.6,62.4c-4.7,1.9-9.5,3.6-14.4,5.1
					c-28.6,8.7-58.3,8.5-87.1,2c10.3-4.5,20-10.9,29.4-17.2c21.8-14.7,43.3-29.8,64-46c14.1-11.1,27.7-22.8,40.7-35.2
					c24.4-23.5,46.4-49.9,63.2-79.2c5.7,7.2,14.8,12.1,24.1,13.9c5.7,1.1,11.4,0.8,17.2,0.3c3.8-0.4,7.6-0.8,11.4-1.1
					C382.9,157.2,393.2,157.9,400.8,163.7z"/>
			</g>
		</g>
		<g>
			<g>
				<path class="st4" d="M748.2,264.6C692.8,283.8,635,292,576.7,298.4c-47,5.1-94.3,9.1-140.9,16.8c-5.9,1-11.8,2-17.6,3.1
					c-3.2,0.6-6.4,1.2-9.6,1.8c-1.3,0.2-2.6,0.5-4,0.7c-33.4,6.2-66.7,12.8-100.6,14c-2,0.1-4,0.1-6,0.2
					c-39.3,0.8-80.7-3.9-112.8-25.4c-1.4-0.9-2.8-1.9-4.2-2.9c-1.3-1-2.7-2-4-3c0.6-2,1.4-3.9,2.5-5.6c5.7-9.1,17.3-14.2,28.4-15.6
					c13.1-1.7,26.6,0.2,39.6-2.5c15.7-3.2,29.4-12.7,41.7-23c22.4-18.7,42-40.6,64.5-59c28.8-23.6,62.6-41.7,86.7-70
					c10.9-12.8,19.5-27.3,30.4-40.1c8.9-10.4,19.7-19.7,32.3-24.5c1.6-0.6,3.2-0.8,4.9-0.6c2.8,0.3,5.5,1.7,7.5,4
					c1.8,2.1,4,3.9,6.4,5.3c1.6,0.9,3.3,1.7,5,2.2c2.3,0.7,4.7,1.1,7,1.2c2.2,0,4.3-0.3,6.5-0.4c1.9-0.1,3.8,0,5.6,0.6
					c7.5,2.6,9.1,12.1,11.2,19.7c2.7,9.9,8.1,19,15.4,26.2c3.9,3.8,8.4,7.1,13.2,9.7c10,5.3,22.3,8.2,28.6,17.6
					c4.4,6.5,5.4,15.5,11.6,20.3c3.6,2.7,8,3.4,12.5,3.8c4,0.3,8,0.4,11.8,1.4c10.3,2.8,17.3,11.9,23.9,20.3
					C695.4,221.2,720.4,244.9,748.2,264.6z"/>
			</g>
			<path class="st3" d="M748.2,264.6C692.8,283.8,635,292,576.7,298.4c-47,5.1-94.3,9.1-140.9,16.8c-5.9,1-11.8,2-17.6,3.1
				c-3.2,0.6-6.4,1.2-9.6,1.8c-1.3,0.2-2.6,0.5-4,0.7c-33.4,6.2-66.7,12.8-100.6,14c-2,0.1-4,0.1-6,0.2c8.1-13,21-22.6,34.7-29.6
				c15-7.7,31.1-12.7,46.6-19.2c15.5-6.5,30.1-14.9,41.2-27.5c-28.6,8.5-57.1,17.1-85.7,25.6c-10.9,3.3-23.5,7.3-33.6,2.1
				c26.7-11.2,49.1-30.6,75.2-43.2c19.5-9.4,40.8-14.8,60.8-23c19.4-8,37.8-20.1,49.2-37.6c0.4-0.6,0.8-1.2,1.2-1.9
				c-0.9,0.5-1.8,1-2.7,1.5c-21.5,12.1-45,20.5-69.3,24.7c22.8-17.4,43.8-36.3,66.6-53.6c-5.4,1.4-10.9,2.7-16.3,4.1
				c-2.1,0.5-5,0.6-5.7-1.4c-0.6-1.7,1.1-3.3,2.5-4.4c19.1-14.1,38.1-30.9,57.2-45.1c-8.5,1.9-17,3.8-25.5,5.8
				c7.7-14.3,16.9-27.9,27.4-40.4c1.6,0.9,3.3,1.7,5,2.2c2.3,0.7,4.7,1.1,7,1.2c2.2,0,4.3-0.3,6.5-0.4c1.9-0.1,3.8,0,5.6,0.6
				c7.5,2.6,9.1,12.1,11.2,19.7c2.7,9.9,8.1,19,15.4,26.2c3.9,3.8,8.4,7.1,13.2,9.7c10,5.3,22.3,8.2,28.6,17.6
				c4.4,6.5,5.4,15.5,11.6,20.3c3.6,2.7,8,3.4,12.5,3.8c4,0.3,8,0.4,11.8,1.4c10.3,2.8,17.3,11.9,23.9,20.3
				C695.4,221.2,720.4,244.9,748.2,264.6z"/>
			<path class="st3" d="M463.5,108.8c8-3.1,16.2-6.8,23.8-10.8c-32.7,37-78.1,62.3-104.9,103.7c9.9-4.2,19.9-8.5,29.2-13.9
				c-12.8,14.9-30.8,21.9-49.3,28.6c-18.5,6.7-37.9,14.9-48.6,31.4c11.2-2.4,22.6-6.3,32.6-11.9c-22.8,24.5-61.2,30.3-82.7,56
				c5.8,0.3,11.6,0.6,17.3,0.8c-17.2,4.7-35.4,4.9-53.2,6.2c-14.7,1.1-29.8,3.6-42.6,10.6c-1.4-0.9-2.8-1.9-4.2-2.9
				c-1.3-1-2.7-2-4-3c0.6-2,1.4-3.9,2.5-5.6c5.7-9.1,17.3-14.2,28.4-15.6c13.1-1.7,26.6,0.2,39.6-2.5c15.7-3.2,29.4-12.7,41.7-23
				c22.4-18.7,42-40.6,64.5-59c28.8-23.6,62.6-41.7,86.7-70c10.9-12.8,19.5-27.3,30.4-40.1c8.9-10.4,19.7-19.7,32.3-24.5
				c1.6-0.6,3.2-0.8,4.9-0.6C493.1,78,478.3,93.4,463.5,108.8z"/>
			<path class="st3" d="M533.5,85.7c-5.5,10.1-10.6,20.5-15.3,31.1c4.1,0.6,8.2,1.3,12.3,1.9c-20.2,20-40.4,40-60.7,60
				c5,1.1,10,2.3,15,3.4c0.5,0.1,1,0.2,1.5,0.3c1.9,0.4,3.8,0.9,5.7,1.3c-20,24.5-40.1,49-60.1,73.4c5,1,10,1.9,15,2.9
				c-16.3,16.7-26.3,38.4-37.8,58.8c-0.2,0.4-0.4,0.7-0.6,1.1c-1.3,0.2-2.6,0.5-4,0.7c-33.4,6.2-66.7,12.8-100.6,14
				c-2,0.1-4,0.1-6,0.2c-39.3,0.8-80.7-3.9-112.8-25.4c-1.4-0.9-2.8-1.9-4.2-2.9c-0.6-2.9-1.1-5.8-1.4-8.7
				c5.7-9.1,17.3-14.2,28.4-15.6c13.1-1.7,26.6,0.2,39.6-2.5c15.7-3.2,29.4-12.7,41.7-23c22.4-18.7,42-40.6,64.5-59
				c28.8-23.6,62.6-41.7,86.7-70c10.9-12.8,19.5-27.3,30.4-40.1c8.9-10.4,19.7-19.7,32.3-24.5c1.6-0.6,3.2-0.8,4.9-0.6
				c2.8,0.3,5.5,1.7,7.5,4c1.8,2.1,4,3.9,6.4,5.3c1.6,0.9,3.3,1.7,5,2.2c2.3,0.7,4.7,1.1,7,1.2c2.2,0,4.3-0.3,6.5-0.4
				C537.8,78.6,535.4,82.2,533.5,85.7z"/>
			<path class="st3" d="M748.2,264.6C692.8,283.8,635,292,576.7,298.4c-47,5.1-94.3,9.1-140.9,16.8c-5.9,1-11.8,2-17.6,3.1
				c-3.2,0.6-6.4,1.2-9.6,1.8c-1.3,0.2-2.6,0.5-4,0.7c1.5-0.6,3-1.2,4.6-1.8c7.7-3,15.5-5.8,23.4-8.3c26.1-8.6,52.9-15.7,77.5-28.1
				c-3.2-3-6.3-6-9.5-9c9.9-0.8,19.9-1.6,29.8-2.5c-14.4-11.6-28.9-23.1-43.3-34.7c30.3,13.5,64.1,18.1,96.9,13.1
				c-4.3-3.6-8.5-7.2-12.8-10.8c-0.8-0.6-1.6-1.7-0.9-2.5c0.3-0.4,0.9-0.4,1.4-0.5c4.3-0.2,9.3-0.6,13.7-0.9
				c-14.7-11-29.5-22.2-41-36.5c17.9,5.4,35.8,9.7,54.3,7.1c-12.3-9.8-23.6-20.9-33.7-33.1c3.5-6.5,9-12.8,12.5-19.3
				c3.2,5.1,6.8,10.6,12.3,13.2c5.5,2.7,13.5,1.1,15.5-4.6c1.4-3.9-0.4-8.3-3.2-11.4c-2.8-3-6.5-5.1-9.9-7.4
				c-8.1-5.5-14.8-12.9-19.6-21.5c3.9,3.8,8.4,7.1,13.2,9.7c10,5.3,22.3,8.2,28.6,17.6c4.4,6.5,5.4,15.5,11.6,20.3
				c3.6,2.7,8,3.4,12.5,3.8c4,0.3,8,0.4,11.8,1.4c10.3,2.8,17.3,11.9,23.9,20.3C695.4,221.2,720.4,244.9,748.2,264.6z"/>
		</g>
	</g>
	<g>
		<defs>
			<rect id="SVGID_2_" width="750" height="500"/>
		</defs>
		<clipPath id="SVGID_3_">
			<use xlink:href="#SVGID_2_"  style="overflow:visible;"/>
		</clipPath>
		<g class="st5">
			<g>
				<g>
					<path class="st6" d="M79,246.1c0.2-2.7,2.5-5.6,1.1-7.9c-3-5.2-5.6-11.1-6.5-17.1c-0.1-0.5-0.8-0.6-1-0.1
						c-1.7,5.6-3.1,11.2-4.3,16.9c-0.5,2.3-0.9,4.6-1.6,6.9c-0.4-0.9-0.8-1.7-1.1-2.6c-1.1-2.9-1.6-6-2.3-9.1
						c-1.2-5.7-2.6-11.4-4.3-16.9c-0.2-0.5-0.9-0.5-1,0.1c-0.8,5.2-2.8,10.3-5.3,15c-0.2-1.3-0.2-2.5-0.1-3.8
						c0.3-3.9,3.5-7.9,1.6-11.2c-4.3-7.4-7.9-15.7-9.2-24.3c-0.1-0.8-1.2-0.8-1.4-0.1c-2.4,7.9-4.4,15.9-6,23.9
						c-0.7,3.5-1.4,7.1-2.4,10.5c-0.9-3.9-1.9-7.8-3.1-11.7c-0.2-0.5-0.9-0.5-1,0.1c-0.9,6-3.5,11.9-6.5,17.1
						c-1.4,2.4,0.9,5.2,1.1,7.9c0.1,1.6-0.1,3.1-0.4,4.6c-0.4-0.9-0.8-1.7-1.1-2.6c-1.1-2.9-1.6-6-2.3-9.1
						c-1.2-5.7-2.6-11.4-4.3-16.9c-0.2-0.5-0.9-0.5-1,0.1c-0.9,6-3.5,11.9-6.5,17.1c-1.4,2.4,0.9,5.2,1.1,7.9
						c0.5,5.6-3.4,11.1-2.4,16.6c3.2,0.2,5.5,1.3,8.7,1.5c3.2,0.2,6.7,0.4,9.6-1.1c0.1-0.3,0.2-0.5,0.3-0.8c1.4,0.3,2.8,0.7,4.5,0.8
						c3.2,0.2,6.7,0.4,9.6-1.1c0.6-1.1,0.8-2.4,0.8-3.7c0.4,0,0.7,0,1.1-0.1c2.6-0.1,4.8-0.7,7.1-1.2c-0.5,2.1-0.8,4.2-0.4,6.3
						c3.2,0.2,5.5,1.3,8.7,1.5c1,0.1,2,0.1,3,0.1c0,1.2,0.3,2.4,0.8,3.5c2.9,1.5,6.4,1.3,9.6,1.1c3.2-0.2,5.5-1.3,8.7-1.5
						C82.4,257.2,78.5,251.8,79,246.1z"/>
					<g class="st7">
						<path class="st6" d="M54.2,222.5c-4.2-7.3-7.7-15.5-8.9-23.8c-0.1-0.8-1.2-0.8-1.4-0.1c-2.3,7.9-4.4,15.9-6,23.9
							c-0.7,3.5-1.4,7.1-2.4,10.5c-0.9-3.9-2-7.8-3.1-11.7c-0.2-0.5-0.9-0.5-1,0.1c-0.8,5.6-3.1,11.1-5.9,16.1
							c-0.7-2-1.6-3.9-0.6-5.7c3-5.2,5.6-11.1,6.5-17.1c0.1-0.5,0.8-0.6,1-0.1c1.1,3.9,2.2,7.8,3.1,11.7c1-3.4,1.7-7,2.4-10.5
							c1.7-8.1,3.7-16.1,6-23.9c0.2-0.7,1.3-0.7,1.4,0.1c1.3,8.5,4.9,16.8,9.2,24.2C55.5,218.1,54.9,220.3,54.2,222.5z"/>
						<path class="st6" d="M79.5,243.9c-2.8-5-5.1-10.5-5.9-16.1c-0.1-0.5-0.8-0.6-1-0.1c-1.7,5.6-3.1,11.2-4.3,16.9
							c-0.5,2.3-0.9,4.6-1.6,6.9c-0.4-0.9-0.8-1.7-1.1-2.6c-1.1-2.9-1.6-6-2.3-9.1c-1.2-5.7-2.6-11.3-4.3-16.9
							c-0.1-0.5-0.9-0.5-1,0.1c-0.8,5.2-2.8,10.3-5.3,15c-0.2-1.3-0.2-2.6-0.1-3.8c0.2-2,1.1-4.1,1.8-6.1c0,0,0,0,0,0
							c1.7-3.7,3-7.7,3.6-11.7c0.1-0.5,0.8-0.6,1-0.1c1.7,5.6,3.1,11.2,4.3,16.9c0.6,3.1,1.2,6.2,2.3,9.1c0.3,0.9,0.7,1.7,1.1,2.6
							c0.6-2.3,1.1-4.6,1.6-6.9c1.2-5.7,2.6-11.3,4.3-16.9c0.1-0.5,0.9-0.5,1,0.1c0.9,6,3.4,11.9,6.5,17.1
							C81.1,239.9,80.2,241.9,79.5,243.9z"/>
						<path class="st6" d="M25.5,251.1c-0.4-0.9-0.8-1.7-1.1-2.6c-1.1-2.9-1.6-6-2.3-9.1c-1.2-5.7-2.6-11.4-4.2-16.9
							c-0.2-0.5-0.9-0.5-1,0.1c-0.8,5.6-3.1,11.1-5.9,16.1c-0.7-2-1.6-3.9-0.6-5.7c3-5.2,5.6-11.1,6.5-17.2c0.1-0.5,0.8-0.6,1-0.1
							c1.7,5.6,3.1,11.2,4.2,16.9c0.6,3.1,1.2,6.2,2.3,9.1c0.3,0.8,0.6,1.5,1,2.3c0,0,0,0,0,0c0.3,0.8,0.5,1.6,0.6,2.4
							C26,248,25.8,249.5,25.5,251.1z"/>
					</g>
				</g>
				<g>
					<g>
						<path class="st6" d="M223.7,315.8c-0.9-2.7-2.2-5.2-3.2-7.8c-1.1-2.9-1.6-6-2.3-9.1c-1.2-5.7-2.6-11.4-4.3-16.9
							c-0.2-0.5-0.9-0.5-1,0.1c-0.9,6-3.5,11.9-6.5,17.1c-1.4,2.4,0.9,5.2,1.1,7.9c0.5,5.6-3.4,11.1-2.4,16.6
							c3.2,0.2,5.5,1.3,8.7,1.5s6.7,0.4,9.6-1.1C224.8,321.5,224.5,318.5,223.7,315.8z"/>
						<path class="st6" d="M177.4,288.6c0.2-2.7,2.5-5.6,1.1-7.9c-3-5.2-5.6-11.1-6.5-17.1c-0.1-0.5-0.8-0.6-1-0.1
							c-1.7,5.6-3.1,11.2-4.3,16.9c-0.6,3.1-1.2,6.2-2.3,9.1c-0.8,2.1-1.8,4-2.6,6.1c-0.1-0.8-0.3-1.6-0.5-2.3
							c-0.9-2.7-2.2-5.2-3.2-7.8c-1.1-2.9-1.6-6-2.3-9.1c-1.2-5.7-2.6-11.4-4.3-16.9c-0.2-0.5-0.9-0.5-1,0.1
							c-0.8,5.4-2.9,10.6-5.5,15.4c-0.1-1.2-0.2-2.4-0.1-3.7c0.3-3.9,3.5-7.9,1.6-11.2c-4.3-7.4-7.9-15.7-9.2-24.3
							c-0.1-0.8-1.2-0.8-1.4-0.1c-2.4,7.9-4.4,15.9-6,23.9c-0.4,1.8-0.7,3.7-1.1,5.5c-0.4-1.6-0.7-3.3-1.1-5
							c-1.2-5.7-2.6-11.4-4.3-16.9c-0.2-0.5-0.9-0.5-1,0.1c-0.8,5.6-3.1,11.1-5.9,16c-1-2.9-1.6-5.9-2.2-8.8
							c-1.2-5.7-2.6-11.4-4.3-16.9c-0.2-0.5-0.9-0.5-1,0.1c-0.9,6-3.5,11.9-6.5,17.1c-1.4,2.4,0.9,5.2,1.1,7.9
							c0.5,5.6-3.4,11.1-2.4,16.6c3.2,0.2,5.5,1.3,8.7,1.5c1.8,0.1,3.7,0.2,5.5,0c-0.8,2.7-1.5,5.5-0.9,8.2c2.5,0.1,4.5,0.8,6.8,1.2
							c-0.6,3-0.5,6.2,0.8,8.9c4.1,2.1,9,1.9,13.6,1.6c2.7-0.1,4.9-0.7,7.2-1.3c-0.4,1.9-0.6,3.8-0.3,5.6c3.2,0.2,5.5,1.3,8.7,1.5
							c3,0.2,6.2,0.3,8.9-0.8c0,1.3,0.3,2.6,0.8,3.7c2.9,1.5,6.4,1.3,9.6,1.1c3.2-0.2,5.5-1.3,8.7-1.5
							C180.9,299.7,177,294.2,177.4,288.6z"/>
					</g>
					<g class="st7">
						<path class="st6" d="M178.6,280.7c0.9,1.5,0.2,3.3-0.4,5c-2.9-5.1-5.3-10.7-6.1-16.5c-0.1-0.5-0.8-0.6-1-0.1
							c-1.7,5.6-3.1,11.2-4.2,16.9c-0.6,3.1-1.2,6.2-2.3,9.1c-0.8,2.1-1.8,4-2.6,6.1c-0.1-0.8-0.3-1.5-0.6-2.3
							c-0.9-2.7-2.2-5.2-3.2-7.8c-1.1-2.9-1.6-6-2.3-9.1c-1.2-5.7-2.6-11.4-4.2-16.9c-0.2-0.5-0.9-0.5-1,0.1
							c-0.8,5.4-2.9,10.6-5.5,15.4c-0.1-1.2-0.2-2.4-0.1-3.6c0.1-1.1,0.4-2.2,0.8-3.4c0,0,0,0,0,0c2.3-4.4,4.1-9.2,4.8-14.1
							c0.1-0.5,0.8-0.6,1-0.1c1.7,5.6,3.1,11.2,4.2,16.9c0.6,3.1,1.2,6.2,2.3,9.1c1,2.6,2.3,5.1,3.2,7.8c0.2,0.7,0.4,1.5,0.6,2.3
							c0.8-2,1.8-4,2.6-6.1c1.1-2.9,1.7-6,2.3-9.1c1.2-5.7,2.6-11.4,4.2-16.9c0.2-0.5,0.9-0.5,1,0.1
							C173,269.5,175.5,275.4,178.6,280.7z"/>
						<path class="st6" d="M146.7,265.7c-4.3-7.4-7.9-15.7-9.2-24.2c-0.1-0.8-1.2-0.8-1.4-0.1c-2.4,7.9-4.4,15.9-6,23.9
							c-0.4,1.8-0.7,3.7-1.1,5.5c-0.4-1.6-0.7-3.3-1.1-5c-1.2-5.7-2.6-11.3-4.2-16.9c-0.2-0.5-0.9-0.5-1,0.1
							c-0.8,5.6-3.1,11.1-5.9,16c-1-2.9-1.6-5.9-2.2-8.9c-1.2-5.7-2.6-11.3-4.2-16.9c-0.2-0.5-0.9-0.5-1,0.1
							c-0.9,5.8-3.2,11.4-6.1,16.5c-0.6-1.8-1.2-3.5-0.4-5c3-5.2,5.6-11.1,6.5-17.2c0.1-0.5,0.8-0.6,1-0.1
							c1.7,5.6,3.1,11.2,4.2,16.9c0.6,3,1.2,6,2.2,8.8c2.8-4.9,5-10.4,5.9-16c0.1-0.5,0.8-0.6,1-0.1c1.7,5.6,3.1,11.2,4.2,16.9
							c0.3,1.6,0.7,3.3,1.1,5c0.4-1.8,0.8-3.7,1.1-5.5c1.7-8.1,3.7-16.1,6-24c0.2-0.7,1.3-0.7,1.4,0.1c1.3,8.5,4.9,16.8,9.2,24.2
							C147.7,261.8,147.3,263.7,146.7,265.7z"/>
						<path class="st6" d="M224.1,322.8c-0.1-0.5-0.2-0.9-0.4-1.3c-0.9-2.7-2.2-5.2-3.2-7.8c-1.1-2.9-1.6-6-2.3-9.1
							c-1.2-5.7-2.6-11.4-4.3-16.9c-0.2-0.5-0.9-0.5-1,0.1c-0.9,5.8-3.2,11.4-6.1,16.5c-0.6-1.8-1.2-3.5-0.4-5
							c3-5.2,5.6-11.1,6.5-17.1c0.1-0.5,0.8-0.6,1-0.1c1.7,5.6,3.1,11.2,4.3,16.9c0.6,3.1,1.2,6.1,2.3,9.1c1,2.6,2.3,5.1,3.2,7.8
							C224.4,318,224.7,320.5,224.1,322.8z"/>
					</g>
				</g>
			</g>
			<g>
				<path class="st8" d="M260,328.5c-66.7,34.8-133.5,70.8-195.1,114.1c-20.2,14.2-39.8,29.2-60.3,43c-10.8,7.3-23.7,14.5-36.3,11.2
					c-8.9-2.4-15.7-9.8-19.6-18.1s-5.2-17.6-6.2-26.7c-3.9-33.6-5-67.8,0.2-101.3c5.2-33.4,20.1-67.3,40.2-94.5
					c3.6-0.8,7.1-1.6,10.7-2.2c38.6-7,79.1-2.9,115.4,11.8c24.3,9.8,46.5,24.1,69.6,36.6c1.1,0.6,2.2,1.2,3.4,1.8
					C206.2,317.2,232.5,328.1,260,328.5z"/>
				<path class="st9" d="M260,328.5c-6.2,3.2-12.4,6.5-18.7,9.8c-20.7-3.7-40.6-12.4-59.4-22.4c-24.3-12.9-47.4-28.2-72.9-38.5
					c-39.7-16-84.4-19.4-126.2-9.6c-20.1,27.2-35,61-40.2,94.5c-2.2,13.9-3.2,28-3.4,42c-0.3-18,0.7-35.9,3.4-53.7
					c5.2-33.5,20.1-67.3,40.2-94.5c41.7-9.9,86.4-6.5,126.2,9.6c25.5,10.3,48.7,25.5,72.9,38.4C206.2,317.2,232.5,328.1,260,328.5z"
					/>
				<path class="st9" d="M260,328.5c-66.7,34.8-133.5,70.8-195.1,114.1c-20.2,14.2-39.8,29.2-60.3,43c-10.8,7.3-23.7,14.5-36.3,11.2
					c-8.9-2.4-15.7-9.8-19.6-18.1s-5.2-17.6-6.2-26.7c-3.9-33.6-5-67.8,0.2-101.3c5.2-33.4,20.1-67.3,40.2-94.5
					c3.6-0.8,7.1-1.6,10.7-2.2c3.2,29.2,8.5,58.9,24.8,83.2c6.4,9.6,15,18.5,26.1,21.4c16,4.2,32.1-4.8,46.2-13.5
					c25.5-15.6,51.4-31.4,79.9-40.4c2.6-0.8,5.3-1.6,8-2.3c1.1,0.6,2.2,1.2,3.4,1.8C206.2,317.2,232.5,328.1,260,328.5z"/>
			</g>
		</g>
		<g class="st5">
			<g>
				<g>
					<g>
						<path class="st10" d="M78.7,402L63,405l-1,0.2l-18,3.4l0.6-18.6l0-1.2l0.4-12.1l0-1.5l0.4-13.9l2.9-4.6l-2.8,1.9l0.4-13.4
							l0.1-1.7l0.4-13.6l0.1-1.9l1.1,2.5l8.4,19.2l0.6,1.5l5.9,13.6l-2.8-1.3c0,0,1.9,1.7,3.6,3.1l0,0l2.2,5.1l0.5,1.1l7.3,16.8
							l-4.5-2.3l5.6,4.8L78.7,402z"/>
						<path class="st11" d="M58.7,384.1l1.7,8.2l0.1,0.1l0,0L63,405l-1,0.2l-1-4.9L44.6,390l0-1.2l16,10.1l-1.3-6.1l-14.4-16l0-1.5
							l14,15.5L51.2,353l-5.2-7.6l0.1-1.7l4.6,6.8L46.5,330l0.1-1.9l1.1,2.5l5.9,28.7c0.4-1.7,1.2-4.6,2.5-9.5l0.6,1.5
							c-1.3,5.1-2.5,9.8-2.6,10.3l4.3,21.1l7.2-10.9l0.5,1.1L58.7,384.1z"/>
					</g>
					<g>
						<path class="st10" d="M128,377.8l-10.8,2.1l-0.7,0.1l-12.3,2.4l0.4-12.8l0-0.8l0.3-8.3l0-1l0.3-9.5l2-3.2l-1.9,1.3l0.3-9.2
							l0-1.2l0.3-9.3l0-1.3l0.7,1.7l5.7,13.2l0.4,1l4.1,9.3l-1.9-0.9c0,0,1.3,1.1,2.5,2.1l0,0l1.5,3.5l0.3,0.7l5,11.5l-3.1-1.6
							l3.8,3.3L128,377.8z"/>
						<path class="st11" d="M114.3,365.6l1.2,5.6l0,0l0,0l1.8,8.6l-0.7,0.1l-0.7-3.4l-11.2-7.1l0-0.8l11,6.9l-0.9-4.2l-9.9-11l0-1
							l9.6,10.6l-5.3-26l-3.6-5.2l0-1.2l3.2,4.7l-2.9-14l0-1.3l0.7,1.7l4.1,19.7c0.3-1.2,0.8-3.1,1.7-6.5l0.4,1
							c-0.9,3.5-1.7,6.7-1.8,7.1l3,14.5l4.9-7.5l0.3,0.7L114.3,365.6z"/>
					</g>
					<g>
						<path class="st10" d="M140.5,368.9l-7.7,1.5l-0.5,0.1l-8.7,1.7l0.3-9.1l0-0.6l0.2-5.9l0-0.7l0.2-6.8l1.4-2.2l-1.4,0.9l0.2-6.5
							l0-0.8l0.2-6.6l0-0.9l0.5,1.2l4.1,9.4l0.3,0.7l2.9,6.6l-1.4-0.6c0,0,0.9,0.8,1.7,1.5l0,0l1.1,2.5l0.2,0.5l3.5,8.2l-2.2-1.1
							l2.7,2.3L140.5,368.9z"/>
						<path class="st11" d="M130.7,360.2l0.8,4l0,0l0,0l1.3,6.1l-0.5,0.1l-0.5-2.4l-8-5l0-0.6l7.8,4.9l-0.6-3l-7-7.8l0-0.7l6.8,7.6
							l-3.8-18.4l-2.5-3.7l0-0.8l2.3,3.3l-2-9.9l0-0.9l0.5,1.2l2.9,14c0.2-0.8,0.6-2.2,1.2-4.6l0.3,0.7c-0.7,2.5-1.2,4.8-1.3,5
							l2.1,10.3l3.5-5.3l0.2,0.5L130.7,360.2z"/>
					</g>
					<g>
						<path class="st12" d="M112.1,386.9l-17.3,4.5l-1.1,0.3l-19.8,5.2L73.2,376l-0.1-1.3l-0.5-13.5l-0.1-1.6l-0.5-15.5l2.8-5.3
							l-3,2.3l-0.5-15l-0.1-1.9l-0.5-15.2l-0.1-2.1l1.4,2.7l10.8,20.8l0.8,1.6l7.6,14.8l-3.2-1.2c0,0,2.3,1.7,4.2,3.1l0,0l2.9,5.6
							l0.6,1.2l9.4,18.2l-5.2-2.2l6.6,4.9L112.1,386.9z"/>
						<path class="st13" d="M88.4,368.5l2.5,9l0.1,0.1l0,0l3.8,13.8l-1.1,0.3l-1.5-5.4l-19-10.3l-0.1-1.3l18.7,10.1l-1.9-6.8
							l-17.3-16.8l-0.1-1.6l16.7,16.3l-11.5-41.7l-6.4-8.1l-0.1-1.9l5.7,7.2l-6.2-22.5l-0.1-2.1l1.4,2.7l8.7,31.6
							c0.3-1.9,1-5.2,2-10.8l0.8,1.6c-1.1,5.8-2.1,11.1-2.2,11.7l6.4,23.2l7.3-12.7l0.6,1.2L88.4,368.5z"/>
					</g>
					<g>
						<path class="st12" d="M162.6,361.4l-12.1,3.1l-0.8,0.2l-13.8,3.6l-0.5-14.5l0-0.9l-0.3-9.4l0-1.1l-0.4-10.8l2-3.7l-2.1,1.6
							l-0.4-10.4l0-1.3l-0.4-10.6l-0.1-1.5l1,1.9l7.5,14.5l0.6,1.1l5.3,10.3l-2.2-0.8c0,0,1.6,1.2,2.9,2.2l0,0l2,3.9l0.4,0.8
							l6.5,12.6l-3.6-1.5l4.6,3.4L162.6,361.4z"/>
						<path class="st13" d="M146.1,348.6l1.7,6.3l0,0l0,0l2.7,9.6l-0.8,0.2l-1-3.8l-13.2-7.2l0-0.9l13,7l-1.3-4.7l-12-11.7l0-1.1
							l11.6,11.3l-8-29l-4.4-5.7l0-1.3l3.9,5l-4.3-15.6l-0.1-1.5l1,1.9l6.1,22c0.2-1.3,0.7-3.6,1.4-7.5l0.6,1.1
							c-0.8,4.1-1.5,7.7-1.5,8.2l4.5,16.2l5-8.8l0.4,0.8L146.1,348.6z"/>
					</g>
				</g>
				<g>
					<g>
						<path class="st6" d="M632.2,264.4c-0.2-2.7-2.5-5.6-1.1-7.9c3-5.2,5.6-11.1,6.5-17.1c0.1-0.5,0.8-0.6,1-0.1
							c1.7,5.6,3.1,11.2,4.3,16.9c0.5,2.3,0.9,4.6,1.6,6.9c0.4-0.9,0.8-1.7,1.1-2.6c1.1-2.9,1.6-6,2.3-9.1
							c1.2-5.7,2.6-11.4,4.3-16.9c0.2-0.5,0.9-0.5,1,0.1c0.8,5.2,2.8,10.3,5.3,15c0.2-1.3,0.2-2.5,0.1-3.8
							c-0.3-3.9-3.5-7.9-1.6-11.2c4.3-7.4,7.9-15.7,9.2-24.3c0.1-0.8,1.2-0.8,1.4-0.1c2.4,7.9,4.4,15.9,6,23.9
							c0.7,3.5,1.4,7.1,2.4,10.5c0.9-3.9,1.9-7.8,3.1-11.7c0.2-0.5,0.9-0.5,1,0.1c0.9,6,3.5,11.9,6.5,17.1c1.4,2.4-0.9,5.2-1.1,7.9
							c-0.1,1.6,0.1,3.1,0.4,4.6c0.4-0.9,0.8-1.7,1.1-2.6c1.1-2.9,1.6-6,2.3-9.1c1.2-5.7,2.6-11.4,4.3-16.9c0.2-0.5,0.9-0.5,1,0.1
							c0.9,6,3.5,11.9,6.5,17.1c1.4,2.4-0.9,5.2-1.1,7.9c-0.5,5.6,3.4,11.1,2.4,16.6c-3.2,0.2-5.5,1.3-8.7,1.5s-6.7,0.4-9.6-1.1
							c-0.1-0.3-0.2-0.5-0.3-0.8c-1.4,0.3-2.8,0.7-4.5,0.8c-3.2,0.2-6.7,0.4-9.6-1.1c-0.6-1.1-0.8-2.4-0.8-3.7c-0.4,0-0.7,0-1.1-0.1
							c-2.6-0.1-4.8-0.7-7.1-1.2c0.5,2.1,0.8,4.2,0.4,6.3c-3.2,0.2-5.5,1.3-8.7,1.5c-1,0.1-2,0.1-3,0.1c0,1.2-0.3,2.4-0.8,3.5
							c-2.9,1.5-6.4,1.3-9.6,1.1c-3.2-0.2-5.5-1.3-8.7-1.5C628.8,275.5,632.7,270,632.2,264.4z"/>
						<g class="st7">
							<path class="st6" d="M657,240.8c4.2-7.3,7.7-15.5,9-23.8c0.1-0.8,1.2-0.8,1.4-0.1c2.4,7.9,4.4,15.9,6,23.9
								c0.7,3.5,1.4,7.1,2.4,10.5c0.9-3.9,2-7.8,3.1-11.7c0.2-0.5,0.9-0.5,1,0.1c0.8,5.6,3.1,11.1,5.9,16.1c0.7-2,1.6-3.9,0.6-5.7
								c-3-5.2-5.6-11.1-6.5-17.1c-0.1-0.5-0.8-0.6-1-0.1c-1.1,3.9-2.2,7.8-3.1,11.7c-1-3.4-1.7-7-2.4-10.5
								c-1.7-8.1-3.7-16.1-6-23.9c-0.2-0.7-1.3-0.6-1.4,0.1c-1.3,8.5-4.9,16.9-9.2,24.2C655.7,236.4,656.3,238.6,657,240.8z"/>
							<path class="st6" d="M631.7,262.2c2.8-5,5.1-10.5,5.9-16.1c0.1-0.5,0.8-0.6,1-0.1c1.7,5.6,3.1,11.2,4.3,16.9
								c0.5,2.3,0.9,4.6,1.6,6.9c0.4-0.9,0.8-1.7,1.1-2.6c1.1-2.9,1.6-6,2.3-9.1c1.2-5.7,2.6-11.3,4.3-16.9c0.2-0.5,0.9-0.5,1,0.1
								c0.8,5.2,2.8,10.3,5.3,15c0.2-1.3,0.2-2.5,0.1-3.8c-0.2-2-1.1-4.1-1.8-6.1c0,0,0,0,0,0c-1.7-3.7-3-7.7-3.6-11.7
								c-0.1-0.5-0.8-0.6-1-0.1c-1.7,5.6-3.1,11.2-4.3,16.9c-0.6,3.1-1.2,6.1-2.3,9.1c-0.3,0.9-0.7,1.7-1.1,2.6
								c-0.7-2.3-1.1-4.6-1.6-6.9c-1.2-5.7-2.6-11.3-4.3-16.9c-0.2-0.5-0.9-0.5-1,0.1c-0.9,6-3.5,11.9-6.5,17.2
								C630.1,258.2,631,260.2,631.7,262.2z"/>
							<path class="st6" d="M685.7,269.4c0.4-0.9,0.8-1.7,1.1-2.6c1.1-2.9,1.6-6,2.3-9.1c1.2-5.7,2.6-11.3,4.2-16.9
								c0.2-0.5,0.9-0.5,1,0.1c0.8,5.6,3.1,11.1,5.9,16.1c0.7-2,1.6-3.9,0.6-5.7c-3-5.2-5.6-11.1-6.5-17.1c-0.1-0.5-0.8-0.6-1-0.1
								c-1.7,5.6-3.1,11.2-4.2,16.9c-0.6,3.1-1.2,6.2-2.3,9.1c-0.3,0.8-0.6,1.5-1,2.3c0,0,0,0,0,0c-0.3,0.8-0.5,1.6-0.6,2.4
								C685.2,266.3,685.4,267.8,685.7,269.4z"/>
						</g>
					</g>
					<g>
						<path class="st6" d="M505.4,281.4c0.2-2.7,2.5-5.6,1.1-7.9c-3-5.2-5.6-11.1-6.5-17.1c-0.1-0.5-0.8-0.6-1-0.1
							c-1.7,5.6-3.1,11.2-4.3,16.9c-0.5,2.3-0.9,4.6-1.6,6.9c-0.4-0.9-0.8-1.7-1.1-2.6c-1.1-2.9-1.6-6-2.3-9.1
							c-1.2-5.7-2.6-11.4-4.3-16.9c-0.2-0.5-0.9-0.5-1,0.1c-0.8,5.2-2.8,10.3-5.3,15c-0.2-1.3-0.2-2.5-0.1-3.8
							c0.3-3.9,3.5-7.9,1.6-11.2c-4.3-7.4-7.9-15.7-9.2-24.3c-0.1-0.8-1.2-0.8-1.4-0.1c-2.4,7.9-4.4,15.9-6,23.9
							c-0.7,3.5-1.4,7.1-2.4,10.5c-0.9-3.9-1.9-7.8-3.1-11.7c-0.2-0.5-0.9-0.5-1,0.1c-0.9,6-3.5,11.9-6.5,17.1
							c-1.4,2.4,0.9,5.2,1.1,7.9c0.1,1.6-0.1,3.1-0.4,4.6c-0.4-0.9-0.8-1.7-1.1-2.6c-1.1-2.9-1.6-6-2.3-9.1
							c-1.2-5.7-2.6-11.4-4.3-16.9c-0.2-0.5-0.9-0.5-1,0.1c-0.9,6-3.5,11.9-6.5,17.1c-1.4,2.4,0.9,5.2,1.1,7.9
							c0.5,5.6-3.4,11.1-2.4,16.6c3.2,0.2,5.5,1.3,8.7,1.5c3.2,0.2,6.7,0.4,9.6-1.1c0.1-0.3,0.2-0.5,0.3-0.8
							c1.4,0.3,2.8,0.7,4.5,0.8c3.2,0.2,6.7,0.4,9.6-1.1c0.6-1.1,0.8-2.4,0.8-3.7c0.4,0,0.7,0,1.1-0.1c2.6-0.1,4.8-0.7,7.1-1.2
							c-0.5,2.1-0.8,4.2-0.4,6.3c3.2,0.2,5.5,1.3,8.7,1.5c1,0.1,2,0.1,3,0.1c0,1.2,0.3,2.4,0.8,3.5c2.9,1.5,6.4,1.3,9.6,1.1
							c3.2-0.2,5.5-1.3,8.7-1.5C508.8,292.5,504.9,287,505.4,281.4z"/>
						<g class="st7">
							<path class="st6" d="M480.6,257.7c-4.2-7.3-7.7-15.5-9-23.8c-0.1-0.8-1.2-0.8-1.4-0.1c-2.4,7.9-4.4,15.9-6,23.9
								c-0.7,3.5-1.4,7.1-2.4,10.5c-0.9-3.9-1.9-7.8-3.1-11.7c-0.2-0.5-0.9-0.5-1,0.1c-0.8,5.6-3.1,11.2-5.9,16.1
								c-0.7-2-1.6-4-0.6-5.7c3-5.2,5.6-11.1,6.5-17.2c0.1-0.5,0.8-0.6,1-0.1c1.1,3.9,2.2,7.8,3.1,11.7c1-3.4,1.7-7,2.4-10.5
								c1.7-8.1,3.7-16.1,6-23.9c0.2-0.7,1.3-0.7,1.4,0.1c1.3,8.5,4.9,16.8,9.2,24.2C482,253.4,481.4,255.5,480.6,257.7z"/>
							<path class="st6" d="M505.9,279.1c-2.8-5-5.1-10.5-5.9-16.1c-0.1-0.5-0.8-0.6-1-0.1c-1.7,5.6-3.1,11.2-4.3,16.9
								c-0.5,2.3-0.9,4.6-1.6,6.9c-0.4-0.9-0.8-1.7-1.1-2.6c-1.1-2.9-1.6-6-2.3-9.1c-1.2-5.7-2.6-11.4-4.3-16.9
								c-0.1-0.5-0.9-0.5-1,0.1c-0.8,5.2-2.8,10.3-5.3,15c-0.2-1.3-0.2-2.6-0.1-3.8c0.2-2,1.2-4.1,1.8-6.1c0,0,0,0,0,0
								c1.7-3.7,3-7.7,3.6-11.7c0.1-0.5,0.8-0.6,1-0.1c1.7,5.6,3.1,11.2,4.3,16.9c0.6,3.1,1.2,6.1,2.3,9.1c0.3,0.9,0.7,1.7,1.1,2.6
								c0.6-2.3,1.1-4.6,1.6-6.9c1.2-5.7,2.6-11.4,4.3-16.9c0.2-0.5,0.9-0.5,1,0.1c0.9,6,3.4,11.9,6.5,17.2
								C507.5,275.2,506.6,277.1,505.9,279.1z"/>
							<path class="st6" d="M451.9,286.3c-0.4-0.9-0.8-1.7-1.1-2.6c-1.1-2.9-1.6-6-2.3-9.1c-1.2-5.7-2.6-11.4-4.2-16.9
								c-0.2-0.5-0.9-0.5-1,0.1c-0.8,5.6-3.1,11.1-5.9,16.1c-0.7-2-1.6-4-0.6-5.7c3-5.2,5.6-11.1,6.5-17.2c0.1-0.5,0.8-0.6,1-0.1
								c1.7,5.6,3.1,11.2,4.2,16.9c0.6,3.1,1.2,6.1,2.3,9.1c0.3,0.8,0.6,1.5,0.9,2.3c0,0,0,0,0,0c0.3,0.8,0.5,1.6,0.6,2.4
								C452.5,283.2,452.3,284.8,451.9,286.3z"/>
						</g>
					</g>
					<g>
						<g>
							<path class="st6" d="M511.1,276.7c0.9-2.7,2.2-5.2,3.2-7.8c1.1-2.9,1.6-6,2.3-9.1c1.2-5.7,2.6-11.4,4.3-16.9
								c0.2-0.5,0.9-0.5,1,0.1c0.9,6,3.5,11.9,6.5,17.1c1.4,2.4-0.9,5.2-1.1,7.9c-0.5,5.6,3.4,11.1,2.4,16.6
								c-3.2,0.2-5.5,1.3-8.7,1.5c-3.2,0.2-6.7,0.4-9.6-1.1C510,282.4,510.2,279.3,511.1,276.7z"/>
							<path class="st6" d="M538.7,281.7c-0.5-2.4-3.3-5.2-1.9-7.1c3.1-4.2,5.6-9.1,6.2-14.3c0.1-0.5,0.9-0.4,1.1,0.1
								c2.3,5.1,4.3,10.2,6.1,15.4c0.9,2.8,1.8,5.6,3.2,8.3c1,1.9,2.3,3.8,3.4,5.6c0.1-0.7,0.2-1.3,0.5-2c0.8-2.3,2.2-4.3,3.1-6.5
								c1-2.4,1.5-5.1,2-7.7c0.9-4.9,2.2-9.7,3.7-14.4c0.1-0.4,1-0.3,1.1,0.2c1.3,4.8,4.1,9.7,7.4,14.2c0.1-1,0.1-2.1-0.1-3.2
								c-0.6-3.4-4.6-7.3-2.6-10c4.4-6,8-12.9,8.8-20.2c0.1-0.7,1.3-0.6,1.6,0.1c3.3,7.2,6.1,14.5,8.6,21.8c0.6,1.7,1.1,3.3,1.7,5
								c0.3-1.4,0.6-2.8,0.9-4.2c0.9-4.9,2.2-9.7,3.7-14.4c0.1-0.4,1-0.3,1.1,0.2c1.4,5,4.3,10.1,7.9,14.8c1-2.4,1.4-5,1.9-7.5
								c0.9-4.9,2.2-9.7,3.7-14.4c0.1-0.4,1-0.3,1.1,0.2c1.5,5.4,4.8,10.9,8.7,15.9c1.7,2.2-0.7,4.5-0.7,6.8
								c-0.1,4.9,4.7,10.1,3.9,14.9c-3.7-0.2-6.2,0.5-9.9,0.2c-2.1-0.1-4.2-0.3-6.3-0.7c1.1,2.5,2.1,5,1.7,7.3
								c-2.9-0.2-5.1,0.2-7.7,0.3c0.9,2.7,1,5.5-0.3,7.8c-4.5,1.4-10.2,0.5-15.5-0.2c-3.1-0.5-5.7-1.2-8.3-2c0.6,1.7,1,3.4,0.7,5
								c-3.7-0.2-6.2,0.5-9.9,0.2c-3.4-0.2-7.1-0.5-10.3-1.8c0.1,1.1-0.1,2.2-0.7,3.2c-3.2,1-7.2,0.4-11-0.2
								c-3.7-0.6-6.4-1.8-10.1-2.3C535.6,291,539.7,286.7,538.7,281.7z"/>
						</g>
						<g class="st7">
							<path class="st6" d="M536.9,274.6c-0.9,1.2-0.1,2.8,0.8,4.5c2.9-4.1,5.3-8.8,5.9-13.8c0.1-0.5,0.9-0.4,1.1,0.1
								c2.3,5.1,4.3,10.2,6.1,15.4c0.9,2.8,1.8,5.5,3.3,8.3c1,1.9,2.3,3.8,3.4,5.6c0.1-0.7,0.2-1.3,0.5-2c0.8-2.3,2.2-4.3,3.1-6.5
								c1-2.4,1.5-5.1,2-7.7c0.9-4.9,2.2-9.7,3.7-14.3c0.1-0.4,1-0.3,1.1,0.2c1.3,4.8,4.1,9.7,7.4,14.2c0.1-1,0.1-2.1-0.1-3.2
								c-0.2-1-0.7-2-1.2-3.1c0,0,0,0,0,0c-2.9-4.2-5.3-8.6-6.5-12.9c-0.1-0.5-1-0.6-1.1-0.2c-1.5,4.7-2.7,9.5-3.7,14.4
								c-0.5,2.6-0.9,5.3-2,7.7c-0.9,2.2-2.3,4.2-3.1,6.5c-0.2,0.6-0.4,1.3-0.5,2c-1.1-1.9-2.4-3.7-3.4-5.7
								c-1.4-2.7-2.3-5.5-3.3-8.3c-1.7-5.2-3.8-10.3-6.1-15.4c-0.2-0.5-1.1-0.5-1.1-0.1C542.5,265.5,540,270.4,536.9,274.6z"/>
							<path class="st6" d="M572.4,265.3c4.4-6,7.9-12.9,8.8-20.2c0.1-0.7,1.3-0.6,1.6,0.1c3.3,7.2,6.1,14.5,8.6,21.8
								c0.6,1.7,1.1,3.3,1.7,5c0.3-1.4,0.6-2.8,0.9-4.2c0.9-4.9,2.2-9.7,3.7-14.4c0.1-0.4,1-0.3,1.1,0.2c1.4,5,4.4,10.1,7.9,14.8
								c1-2.4,1.4-5,1.9-7.5c0.9-4.9,2.2-9.7,3.7-14.3c0.1-0.4,1-0.3,1.1,0.2c1.4,5.2,4.5,10.4,8.2,15.2c0.6-1.5,1.2-2.9,0.1-4.4
								c-3.9-5-7.2-10.5-8.7-15.9c-0.1-0.5-1-0.6-1.1-0.2c-1.5,4.7-2.7,9.5-3.7,14.4c-0.5,2.5-0.9,5.1-1.9,7.5
								c-3.5-4.7-6.5-9.8-7.9-14.8c-0.1-0.5-1-0.6-1.1-0.2c-1.5,4.7-2.7,9.5-3.7,14.4c-0.3,1.4-0.5,2.8-0.9,4.2
								c-0.6-1.7-1.1-3.3-1.7-5c-2.5-7.3-5.3-14.6-8.6-21.8c-0.3-0.7-1.5-0.7-1.6-0.1c-0.9,7.3-4.4,14.2-8.8,20.2
								C571,261.8,571.6,263.5,572.4,265.3z"/>
							<path class="st6" d="M510.7,283.7c0.1-0.5,0.2-0.9,0.4-1.3c0.9-2.7,2.2-5.2,3.2-7.8c1.1-2.9,1.6-6,2.3-9.1
								c1.2-5.7,2.6-11.4,4.3-16.9c0.1-0.5,0.9-0.5,1,0.1c0.9,5.8,3.2,11.4,6.1,16.5c0.6-1.8,1.2-3.5,0.4-5
								c-3-5.2-5.6-11.1-6.5-17.1c-0.1-0.5-0.8-0.6-1-0.1c-1.7,5.6-3.1,11.2-4.3,16.9c-0.6,3.1-1.2,6.1-2.3,9.1
								c-1,2.6-2.3,5.1-3.2,7.8C510.4,278.9,510.1,281.4,510.7,283.7z"/>
						</g>
					</g>
				</g>
			</g>
			<g>
				<path class="st14" d="M756.4,228.5V434c-2.2,24.9-2.3,50-0.4,75c-0.1,0.1,0.5,0.8,0.3,0.9H3.4c-1.2,0-3.3,0.4-4.5,0
					c-6.5-2.2-12-18.9-14.3-25.3c-2.8-7.6-4.2-15.6-3.6-23.7c0.5-7.3,6.4-10.5,11.8-15c0.8-0.6,1.5-1.3,2.3-1.9
					c11.1-9.2,22.7-17.8,34.7-25.8c25.7-17.2,53.2-31.6,81.5-44.1c35-15.4,71.4-27.8,108.1-38.5c42.5-12.5,85.7-23,129.2-31.4
					c12.4-2.4,24.9-4.7,37.4-6.8c51.6-8.6,103.7-14.4,155.9-17.3c37.4-2.1,75-2.7,111.9-9.1C690.6,264.5,727.2,252,756.4,228.5z"/>
				<path class="st15" d="M756.4,228.5v22.5c-29.2,23.5-65.8,36.1-102.7,42.5c-36.9,6.4-74.5,7-111.9,9.1
					c-52.2,2.9-104.3,8.7-155.9,17.3c-12.5,2.1-25,4.3-37.4,6.8c-43.5,8.5-86.6,18.9-129.2,31.4c-36.7,10.8-73,23.1-108.1,38.5
					c-28.3,12.4-55.7,26.9-81.5,44.1c-12.8,8.6-25.2,17.8-37,27.7c-3.8,3.2-7.9,5.8-10.2,9.7c-1.4-5.6-2-11.3-1.6-17.1
					c0.5-7.3,6.4-10.5,11.8-15c11.8-9.9,24.1-19.2,37-27.7c25.7-17.2,53.2-31.6,81.5-44.1c35-15.4,71.4-27.8,108.1-38.5
					c42.5-12.5,85.7-23,129.2-31.4c12.4-2.4,24.9-4.7,37.4-6.8c51.6-8.6,103.7-14.4,155.9-17.3c37.4-2.1,75-2.7,111.9-9.1
					C690.6,264.5,727.2,252,756.4,228.5z"/>
				<g>
					<path class="st16" d="M442.3,510h-31.7c6.1-38.6,7-78.4-3.1-116.1c-9.5-35.2-29.7-68.5-59-89.8c3.4-0.7,6.9-1.3,10.3-2
						c6.3-1.2,12.7-2.3,19-3.4c2.7-0.5,5.4-0.9,8.1-1.4c25.5,26,44.2,57.4,54.5,92.9C451.6,429,452.3,470.8,442.3,510z"/>
					<path class="st17" d="M437,432c-1,3.2-3.6,6.1-7,6.5c-3.5,0.3-6.7-2.2-8.3-5.3c-1.6-3.1-1.9-6.7-2.3-10.1
						c-5.3-45.7-27.3-89.2-60.6-120.9c6.3-1.2,12.7-2.3,19-3.4c27.2,37.7,53.3,77.6,59.5,123.4C437.6,425.4,438,428.8,437,432z"/>
				</g>
				<path class="st15" d="M756.4,434c-2.2,24.9-2.3,50-0.4,75c-0.1,0.1,0.5,0.8,0.3,0.9H3.4c-1.2,0-3.3,0.4-4.5,0
					c-6.5-2.2-12-18.9-14.3-25.3c-2.8-7.6-4.2-15.6-3.6-23.7c0.5-7.3,6.4-10.5,11.8-15c0.8-0.6,1.5-1.3,2.3-1.9
					c16.8,21.7,43.6,35.2,71,39.1c31.7,4.6,64.1-2.4,94-13.9c29.8-11.6,57.7-27.8,86.1-42.6C369.6,362,506,322.3,644.8,310.3
					c42.2-3.6,78.4-30.8,111.6-58.3V434z"/>
			</g>
			<g>
				<g>
					<path class="st18" d="M724.5,282.3c0.8,0.5,1.2,1.4,1.3,2.2c0.1,0.9,0.1,1.8-0.5,2.6c-0.3-0.9-0.4-1.6-0.5-2.4
						C724.7,283.9,724.6,283.2,724.5,282.3z"/>
				</g>
				<g>
					<path class="st18" d="M730.2,286.6c0.2,0.7,0.2,1.3,0,1.9c-0.2,0.6-0.4,1.1-0.9,1.6c-0.2-0.7-0.2-1.3,0-1.9
						C729.4,287.7,729.7,287.1,730.2,286.6z"/>
				</g>
				<g>
					<path class="st18" d="M723.5,319.4c0.5,0.5,0.8,1.1,0.9,1.6c0.1,0.6,0.2,1.2-0.1,1.9c-0.5-0.5-0.8-1.1-0.9-1.6
						C723.3,320.7,723.2,320.1,723.5,319.4z"/>
				</g>
				<g>
					<path class="st18" d="M424.7,303.7c0.8,0,1.4,0.5,1.8,1c0.4,0.6,0.6,1.3,0.4,2c-0.5-0.5-0.9-1-1.2-1.4
						C425.4,304.8,425.1,304.3,424.7,303.7z"/>
				</g>
				<g>
					<path class="st18" d="M430.4,305.4c0.4,0.7,0.5,1.5,0.5,2.2c0,0.7-0.1,1.5-0.5,2.2c-0.4-0.7-0.5-1.5-0.5-2.2
						C429.9,306.9,430,306.1,430.4,305.4z"/>
				</g>
				<g>
					<path class="st18" d="M441.8,343.3c0.9,0.4,1.5,1,2.1,1.6c0.6,0.7,1.1,1.4,1.4,2.3c-0.9-0.4-1.5-1-2.1-1.6
						C442.6,344.9,442.1,344.2,441.8,343.3z"/>
				</g>
				<g>
					<path class="st18" d="M454.8,339c0.4,0.4,0.5,0.7,0.5,1.1c0,0.4-0.1,0.7-0.5,1.1c-0.4-0.4-0.5-0.7-0.5-1.1
						C454.4,339.7,454.4,339.4,454.8,339z"/>
				</g>
				<g>
					<path class="st18" d="M461.8,312.8c0.5,0.8,0.6,1.7,0.7,2.6c0.1,0.9,0,1.8-0.3,2.7c-0.5-0.8-0.6-1.7-0.7-2.6
						C461.5,314.6,461.5,313.7,461.8,312.8z"/>
				</g>
				<g>
					<path class="st18" d="M488.9,294.1c0.3,0.7,0.3,1.4,0.3,2c-0.1,0.7-0.2,1.3-0.7,1.9c-0.3-0.7-0.3-1.4-0.3-2
						C488.3,295.3,488.5,294.7,488.9,294.1z"/>
				</g>
				<g>
					<path class="st18" d="M497.5,342.9c0.6,0.6,0.9,1.3,1.1,2c0.2,0.7,0.3,1.5,0.2,2.3c-0.6-0.6-0.9-1.3-1.1-2
						C497.5,344.5,497.4,343.8,497.5,342.9z"/>
				</g>
				<g>
					<path class="st18" d="M504.6,330.7c0.5,0.3,0.7,0.7,0.9,1.2c0.1,0.4,0.2,0.9,0,1.5c-0.5-0.3-0.8-0.7-0.9-1.2
						C504.4,331.7,504.4,331.3,504.6,330.7z"/>
				</g>
				<g>
					<path class="st18" d="M529.5,294.5c0.7,0.7,1,1.4,1.3,2.2c0.3,0.8,0.5,1.6,0.4,2.6c-0.7-0.7-1-1.4-1.3-2.2
						C529.6,296.3,529.4,295.4,529.5,294.5z"/>
				</g>
				<g>
					<path class="st18" d="M541.6,338.6c0.5,0.7,0.8,1.5,0.9,2.3c0.1,0.8,0.2,1.6-0.1,2.5c-0.5-0.7-0.8-1.5-0.9-2.3
						C541.4,340.3,541.3,339.5,541.6,338.6z"/>
				</g>
				<g>
					<path class="st18" d="M333.6,339.9c0.5,0.8,0.6,1.7,0.7,2.6c0.1,0.9,0,1.8-0.3,2.7c-0.5-0.8-0.6-1.7-0.7-2.6
						C333.3,341.7,333.3,340.8,333.6,339.9z"/>
				</g>
				<g>
					<path class="st18" d="M326.9,349.1c0.7,0.5,1,1.1,1.3,1.8c0.3,0.7,0.5,1.3,0.4,2.2c-0.7-0.5-1-1.1-1.3-1.8
						C327,350.6,326.8,349.9,326.9,349.1z"/>
				</g>
				<g>
					<path class="st18" d="M337.5,377.4c0.5,0.2,0.7,0.5,0.9,0.9c0.1,0.4,0.2,0.8,0,1.3c-0.5-0.2-0.7-0.5-0.9-0.9
						C337.3,378.3,337.2,377.9,337.5,377.4z"/>
				</g>
				<g>
					<path class="st18" d="M353.6,371.3c0.5,0.4,0.8,0.9,0.9,1.4c0.1,0.5,0.2,1,0,1.7c-0.5-0.4-0.8-0.9-0.9-1.4
						C353.4,372.4,353.4,371.9,353.6,371.3z"/>
				</g>
				<g>
					<path class="st18" d="M363.6,349.9c0.3,0.9,0.4,1.6,0.6,2.4c0.1,0.8,0.3,1.5,0.3,2.4c-0.7-0.6-1.1-1.4-1.3-2.2
						C363.1,351.6,363.1,350.7,363.6,349.9z"/>
				</g>
				<g>
					<path class="st18" d="M201.7,358.6c0.7,0.5,1.1,1.1,1.5,1.7c0.4,0.7,0.6,1.4,0.7,2.2c-0.7-0.5-1.2-1.1-1.5-1.7
						C202.1,360.2,201.8,359.5,201.7,358.6z"/>
				</g>
				<g>
					<path class="st18" d="M208.3,359.5c0.5,0.3,0.7,0.7,0.9,1.2c0.1,0.4,0.2,0.9,0,1.5c-0.5-0.3-0.8-0.7-0.9-1.2
						C208.1,360.5,208.1,360.1,208.3,359.5z"/>
				</g>
				<g>
					<path class="st18" d="M210,409.7c0.9,0.7,1.6,1.6,2.2,2.6c0.6,1,1.1,1.9,1.3,3.1c-0.9-0.7-1.6-1.6-2.2-2.6
						C210.8,411.8,210.3,410.8,210,409.7z"/>
				</g>
				<g>
					<path class="st18" d="M217.9,411.9c0.7,1,1.2,2,1.6,3.1c0.3,1.1,0.6,2.2,0.6,3.4c-0.7-1-1.2-2-1.6-3.1
						C218.2,414.2,217.9,413.1,217.9,411.9z"/>
				</g>
				<g>
					<path class="st18" d="M250.6,425.4c0.6,0.3,0.9,0.7,1.1,1.1c0.2,0.4,0.3,0.9,0.2,1.5c-0.6-0.3-0.9-0.7-1.1-1.1
						C250.6,426.5,250.5,426,250.6,425.4z"/>
				</g>
				<g>
					<path class="st18" d="M262.8,378.3c0.4,1.1,0.6,2.1,0.9,3c0.3,1,0.6,2,0.8,3.1c-0.9-0.7-1.5-1.7-1.8-2.8
						C262.5,380.5,262.4,379.3,262.8,378.3z"/>
				</g>
				<g>
					<path class="st18" d="M281.2,412.3c0.5,0.5,0.8,1,0.9,1.6c0.1,0.6,0.2,1.2,0,1.9c-0.5-0.5-0.8-1-0.9-1.6
						C281,413.6,280.9,413,281.2,412.3z"/>
				</g>
				<g>
					<path class="st18" d="M116.6,385.3c1,0.8,1.7,1.8,2.4,2.8c0.6,1,1.2,2.1,1.6,3.3c-1-0.8-1.7-1.8-2.4-2.8
						C117.5,387.6,116.9,386.5,116.6,385.3z"/>
				</g>
				<g>
					<path class="st18" d="M124.1,387.9c0.6,0.8,1,1.6,1.4,2.3c0.4,0.8,0.8,1.5,1.2,2.5c-0.9-0.4-1.6-1.1-2.1-2
						C124.2,389.8,123.9,388.9,124.1,387.9z"/>
				</g>
			</g>
			<g>
				<ellipse class="st1" cx="463.5" cy="294.5" rx="3.6" ry="1.4"/>
				<path class="st1" d="M474,296.3c0,0.3-0.6,0.5-1.3,0.5s-1.3-0.2-1.3-0.5c0-0.3,0.6-0.5,1.3-0.5S474,296.1,474,296.3z"/>
				<ellipse class="st1" cx="481.2" cy="299.8" rx="1" ry="0.3"/>
				<path class="st1" d="M443.7,301.9c0,0.7-1.7,1.2-3.8,1.2c-2.1,0-3.8-0.6-3.8-1.2c0-0.7,1.7-1.2,3.8-1.2
					C442,300.7,443.7,301.3,443.7,301.9z"/>
				<path class="st1" d="M447.1,305.8c0,0.1-0.3,0.2-0.7,0.2c-0.4,0-0.7-0.1-0.7-0.2c0-0.1,0.3-0.2,0.7-0.2
					C446.8,305.6,447.1,305.7,447.1,305.8z"/>
				<path class="st1" d="M453.6,303.8c0,0.1-0.4,0.2-0.8,0.2s-0.8-0.1-0.8-0.2c0-0.1,0.4-0.2,0.8-0.2S453.6,303.7,453.6,303.8z"/>
				<path class="st1" d="M479.9,310.1c0,0.1-0.3,0.2-0.6,0.2c-0.3,0-0.6-0.1-0.6-0.2c0-0.1,0.3-0.2,0.6-0.2
					C479.6,309.9,479.9,310,479.9,310.1z"/>
				<ellipse class="st1" cx="499.6" cy="299.1" rx="1" ry="0.4"/>
				<path class="st1" d="M501.6,303.4c0,0.1-0.1,0.2-0.2,0.2c-0.1,0-0.2-0.1-0.2-0.2c0-0.1,0.1-0.2,0.2-0.2
					C501.5,303.2,501.6,303.3,501.6,303.4z"/>
				<path class="st1" d="M488.4,307.5c0,0.2-0.3,0.3-0.6,0.3c-0.3,0-0.6-0.1-0.6-0.3c0-0.2,0.3-0.3,0.6-0.3
					C488.1,307.2,488.4,307.3,488.4,307.5z"/>
				<path class="st1" d="M523.6,292.9c0,0.1-0.2,0.2-0.5,0.2c-0.3,0-0.5-0.1-0.5-0.2c0-0.1,0.2-0.2,0.5-0.2
					C523.4,292.7,523.6,292.8,523.6,292.9z"/>
				<path class="st1" d="M523.1,297.1c0,0.1-0.1,0.3-0.3,0.3s-0.3-0.1-0.3-0.3s0.1-0.3,0.3-0.3S523.1,297,523.1,297.1z"/>
				<ellipse class="st1" cx="429" cy="296.8" rx="3.1" ry="0.9"/>
				<circle class="st1" cx="437.5" cy="296.3" r="0.5"/>
				<circle class="st1" cx="530" cy="306.9" r="0.3"/>
				<circle class="st1" cx="509" cy="312.4" r="0.3"/>
				<path class="st1" d="M497.2,311.1c0,0.4-0.2,0.7-0.4,0.7s-0.4-0.3-0.4-0.7c0-0.4,0.2-0.7,0.4-0.7S497.2,310.7,497.2,311.1z"/>
				<path class="st1" d="M502.9,288.1c0,0.2-0.5,0.4-1.1,0.4c-0.6,0-1.1-0.2-1.1-0.4c0-0.2,0.5-0.4,1.1-0.4
					C502.4,287.7,502.9,287.9,502.9,288.1z"/>
				<circle class="st1" cx="471.2" cy="302.2" r="0.3"/>
				<circle class="st1" cx="458.6" cy="300.6" r="0.7"/>
				<path class="st1" d="M512.4,292.2c0,0.3-0.7,0.5-1.7,0.5s-1.7-0.2-1.7-0.5c0-0.3,0.7-0.5,1.7-0.5S512.4,291.9,512.4,292.2z"/>
				<path class="st1" d="M520.2,287.1c0,0.4-0.6,0.6-1.3,0.6c-0.7,0-1.3-0.3-1.3-0.6s0.6-0.6,1.3-0.6
					C519.6,286.4,520.2,286.7,520.2,287.1z"/>
				<path class="st1" d="M514.6,290.8c0,0.2-0.4,0.4-0.9,0.4s-0.9-0.2-0.9-0.4c0-0.2,0.4-0.4,0.9-0.4S514.6,290.6,514.6,290.8z"/>
				<path class="st1" d="M475.2,308.4c0,0.3-0.3,0.6-0.6,0.6c-0.3,0-0.6-0.3-0.6-0.6s0.3-0.6,0.6-0.6
					C475,307.8,475.2,308,475.2,308.4z"/>
				<path class="st1" d="M481.9,295.8c0,0.3-0.6,0.5-1.3,0.5c-0.7,0-1.3-0.2-1.3-0.5c0-0.3,0.6-0.5,1.3-0.5
					C481.3,295.3,481.9,295.6,481.9,295.8z"/>
			</g>
			<g>
				<ellipse class="st1" cx="248.3" cy="345.2" rx="3.7" ry="1.7"/>
				<path class="st1" d="M255.7,341.5c0,0.6-0.7,1-1.5,1c-0.8,0-1.5-0.5-1.5-1c0-0.6,0.7-1,1.5-1
					C255.1,340.5,255.7,340.9,255.7,341.5z"/>
				<path class="st1" d="M252,358.4c0,0.6-1.5,1.1-3.3,1.1s-3.3-0.5-3.3-1.1c0-0.6,1.5-1.1,3.3-1.1S252,357.8,252,358.4z"/>
				<circle class="st1" cx="261" cy="354.3" r="1"/>
				<path class="st1" d="M267.2,348.8c0,0.4-0.3,0.7-0.7,0.7s-0.7-0.3-0.7-0.7c0-0.4,0.3-0.7,0.7-0.7S267.2,348.5,267.2,348.8z"/>
				<path class="st1" d="M277.5,338.4c0,0.8-1,1.4-2.3,1.4c-1.2,0-2.3-0.6-2.3-1.4s1-1.4,2.3-1.4C276.5,337,277.5,337.6,277.5,338.4
					z"/>
				<ellipse class="st1" cx="288.9" cy="350.4" rx="1" ry="0.5"/>
				<ellipse class="st1" cx="283.8" cy="354.6" rx="0.9" ry="0.4"/>
				<ellipse class="st1" cx="295.8" cy="342" rx="2.1" ry="1.5"/>
				<path class="st1" d="M303.8,353.6c0,0.4-0.3,0.6-0.6,0.6c-0.4,0-0.6-0.3-0.6-0.6c0-0.4,0.3-0.6,0.6-0.6
					C303.5,353,303.8,353.3,303.8,353.6z"/>
				<ellipse class="st1" cx="300.4" cy="358.5" rx="1.1" ry="0.1"/>
				<path class="st1" d="M309.5,345.6c0,0.3-0.2,0.5-0.5,0.5c-0.3,0-0.5-0.2-0.5-0.5c0-0.3,0.2-0.5,0.5-0.5
					C309.2,345.1,309.5,345.3,309.5,345.6z"/>
				<ellipse class="st1" cx="316.8" cy="359.5" rx="2.1" ry="1.1"/>
				<circle class="st1" cx="320.7" cy="355.5" r="0.9"/>
				<ellipse class="st1" cx="263.9" cy="365.2" rx="1.3" ry="0.7"/>
				<path class="st1" d="M268.2,361.7c0,0.6-0.5,1.1-1.1,1.1c-0.6,0-1.1-0.5-1.1-1.1c0-0.6,0.5-1.1,1.1-1.1
					C267.7,360.6,268.2,361.1,268.2,361.7z"/>
				<ellipse class="st1" cx="239.2" cy="350.6" rx="1.7" ry="1.1"/>
				<path class="st1" d="M261,338.4c0,0.4-0.5,0.7-1.1,0.7c-0.6,0-1.1-0.3-1.1-0.7c0-0.4,0.5-0.7,1.1-0.7
					C260.6,337.7,261,338,261,338.4z"/>
			</g>
		</g>
		<g class="st5">
			<g>
				<g>
					<path class="st10" d="M603.7,358.3l-16,0.1l-1,0l-18.3,0.2l3.9-18.2l0.2-1.1l2.5-11.8l0.3-1.4l2.9-13.6l3.6-4l-3.1,1.4
						l2.8-13.1l0.4-1.7l2.9-13.3l0.4-1.9l0.6,2.7l4.8,20.4l0.4,1.6l3.4,14.5l-2.5-1.7c0,0,1.6,2,3,3.6l0,0l1.3,5.5l0.3,1.2l4.2,17.8
						l-4-3.1l4.6,5.7L603.7,358.3z"/>
					<path class="st11" d="M587.1,337.1l0.2,8.4l0,0.1l0,0l0.3,12.8l-1,0l-0.1-5l-14.2-13.1l0.2-1.1l14,12.8l-0.2-6.3L575,327.4
						l0.3-1.4l11,17.8l-0.9-38.7l-3.8-8.5l0.4-1.7l3.3,7.5l-0.5-20.8l0.4-1.9l0.6,2.7l0.7,29.3c0.7-1.6,2-4.3,4.1-8.9l0.4,1.6
						c-2.2,4.8-4.2,9.2-4.4,9.7l0.5,21.5l9.1-9.4l0.3,1.2L587.1,337.1z"/>
				</g>
				<g>
					<path class="st10" d="M649.1,358.4l-14.5,0.1l-0.9,0l-16.6,0.2l3.6-16.5l0.2-1l2.3-10.7l0.3-1.3l2.6-12.3l3.3-3.6l-2.8,1.2
						l2.6-11.9l0.3-1.5l2.6-12.1l0.4-1.7l0.6,2.4l4.3,18.5l0.3,1.4l3.1,13.1l-2.3-1.6c0,0,1.5,1.8,2.7,3.3l0,0l1.2,5l0.2,1l3.8,16.2
						l-3.6-2.8l4.2,5.2L649.1,358.4z"/>
					<path class="st11" d="M634.1,339.2l0.2,7.6l0,0.1l0,0l0.3,11.6l-0.9,0l-0.1-4.5l-12.9-11.8l0.2-1l12.7,11.6l-0.1-5.7
						l-10.3-16.6l0.3-1.3l9.9,16.1l-0.8-35.1l-3.4-7.7l0.3-1.5l3,6.8l-0.4-18.9l0.4-1.7l0.6,2.4l0.6,26.6c0.6-1.4,1.8-3.9,3.7-8.1
						l0.3,1.4c-2,4.4-3.8,8.3-4,8.8l0.5,19.5l8.2-8.5l0.2,1L634.1,339.2z"/>
				</g>
				<g>
					<path class="st12" d="M626.4,359.2l-17.9,0.2l-1.1,0l-20.4,0.2l4.4-20.4l0.3-1.3l2.8-13.2l0.3-1.6l3.3-15.2l4.1-4.5l-3.4,1.5
						l3.2-14.7l0.4-1.9l3.2-14.9l0.5-2.1l0.7,3l5.4,22.8l0.4,1.7l3.8,16.2l-2.8-1.9c0,0,1.8,2.2,3.3,4.1l0,0l1.4,6.1l0.3,1.3
						l4.7,19.9l-4.5-3.4l5.2,6.4L626.4,359.2z"/>
					<path class="st13" d="M608,335.5l0.2,9.3l0,0.1l-0.1,0l0.3,14.4l-1.1,0l-0.1-5.6l-15.9-14.6l0.3-1.3l15.6,14.3l-0.2-7
						l-12.6-20.5l0.3-1.6L607,343l-1-43.3l-4.2-9.5l0.4-1.9l3.7,8.4l-0.5-23.3l0.5-2.1l0.7,3l0.8,32.8c0.8-1.8,2.2-4.8,4.6-10
						l0.4,1.7c-2.5,5.4-4.7,10.2-5,10.9l0.6,24.1l10.1-10.5l0.3,1.3L608,335.5z"/>
				</g>
				<g>
					<path class="st12" d="M703.2,367.7l-17.8-1.9l-1.1-0.1l-20.3-2.2l6.7-19.7l0.4-1.2l4.3-12.8l0.5-1.5l5-14.7l4.6-4l-3.6,1.1
						l4.8-14.2l0.6-1.8l4.9-14.4l0.7-2l0.3,3l2.7,23.3l0.2,1.8l1.9,16.5l-2.6-2.3c0,0,1.5,2.4,2.8,4.4l0,0l0.7,6.2l0.1,1.3l2.3,20.3
						l-4.1-3.9l4.4,6.9L703.2,367.7z"/>
					<path class="st13" d="M687.6,342.1l-0.9,9.3l0,0.1l-0.1,0l-1.3,14.3l-1.1-0.1l0.5-5.6l-14.1-16.3l0.4-1.2l13.9,16l0.6-7
						l-10.2-21.8l0.5-1.5l9.9,21.2l4-43.1l-3.1-9.9l0.6-1.8l2.7,8.8l2.1-23.2l0.7-2l0.3,3l-3,32.7c1-1.7,2.7-4.5,5.7-9.4l0.2,1.8
						c-3.1,5.1-5.9,9.6-6.2,10.2l-2.2,24l11.3-9.3l0.1,1.3L687.6,342.1z"/>
				</g>
				<g>
					<path class="st12" d="M670.8,362l-14.7-1.6l-0.9-0.1l-16.8-1.8l5.5-16.3l0.3-1l3.6-10.6l0.4-1.3l4.1-12.2l3.8-3.3l-3,0.9
						l4-11.8l0.5-1.5l4-11.9l0.6-1.7l0.3,2.5l2.2,19.2l0.2,1.5l1.6,13.6l-2.1-1.9c0,0,1.3,2,2.4,3.7l0,0l0.6,5.1l0.1,1.1l2,16.8
						l-3.4-3.2l3.6,5.7L670.8,362z"/>
					<path class="st13" d="M657.9,340.8l-0.7,7.7l0,0.1l0,0l-1.1,11.8l-0.9-0.1l0.4-4.6l-11.7-13.5l0.3-1l11.5,13.2l0.5-5.8l-8.4-18
						l0.4-1.3l8.2,17.5l3.3-35.6l-2.6-8.2l0.5-1.5l2.3,7.3l1.8-19.2l0.6-1.7l0.3,2.5l-2.5,27c0.8-1.4,2.2-3.7,4.7-7.7l0.2,1.5
						c-2.6,4.2-4.9,8-5.1,8.4l-1.8,19.8l9.3-7.7l0.1,1.1L657.9,340.8z"/>
				</g>
			</g>
			<g>
				<g>
					<path class="st19" d="M766.9,382.5c-0.2,4.9-0.4,9.8-0.6,14.8c-1.2,29.2-2.9,59-4.2,88.5c-0.6,11.8-1.1,23.5-1.5,35.1H158.3
						c56.7-51.4,122.8-92.3,194-120.4c8.6-3.4,17.2-6.6,25.9-9.6c21.7-7.5,43.8-13.8,66.2-18.9C550.5,347.8,662.7,351.5,766.9,382.5
						z"/>
					<path class="st20" d="M766.9,382.5c-0.1,2.6-0.2,5.1-0.3,7.7c-101-28-209-30.6-311.2-7.4c-22.4,5.1-44.5,11.4-66.2,18.9
						c-8.7,3-17.3,6.2-25.9,9.6c-66.1,26.1-127.8,63.2-181.6,109.5h-23.3c56.7-51.4,122.8-92.3,194-120.5c8.6-3.4,17.2-6.6,25.9-9.6
						c21.7-7.5,43.8-13.8,66.2-18.9C550.5,347.8,662.7,351.5,766.9,382.5z"/>
					<g>
						<path class="st21" d="M666.8,520.9H643c-1.8-8.4-4.5-16.6-8.4-24.4c-6.6-13.1-16.9-24.6-30.1-30.8c-15.7-7.3-33.9-6.6-51-4
							c-29.1,4.4-57.2,14-86.4,17.8c-32.1,4.3-67.8,0.5-91.6-21.5c-15.7-14.5-24.2-36.3-23.2-57.6c2.5-1,4.9-1.9,7.4-2.9
							c4.3-1.6,8.6-3.2,12.9-4.8c1.9-0.7,3.7-1.3,5.6-2c5.2,21,17.1,40.2,35.7,51.2c24.3,14.4,55,11.6,82.6,5.4
							c27.6-6.2,55.3-15.5,83.4-12.6c25.5,2.7,49.8,15.9,65.9,35.9C657.4,485,664.7,502.6,666.8,520.9z"/>
						<path class="st22" d="M504.4,461.9c-1.4,1.3-3.2,1.9-5,2.4c-19.8,6-40.6,9.4-61.1,7.4c-20.5-2-40.9-9.8-56-23.9
							c-13.8-12.9-22.7-31.4-22.6-50.2c4.3-1.6,8.6-3.2,12.9-4.8c0.8,15.1,7.7,29.8,18.2,40.7c13.2,13.7,31.5,21.7,50.3,24.6
							c18.8,2.9,38,1,56.6-3c2.9-0.6,6.7-0.9,8,1.8C506.6,458.5,505.8,460.6,504.4,461.9z"/>
					</g>
					<g>
						<path class="st20" d="M766.3,397.3c-1.2,29.2-2.9,59-4.2,88.5c-3.5-0.9-6.9-2-10.3-3.1c-16.5-5.2-33-10.5-49.5-15.7
							c-5-1.6-11-4.6-10.5-9.8c0.7-7.9,15.6-9.5,14.3-17.3c-0.7-3.9-5.1-5.5-8.9-6.5c-63.5-15.1-129.7-8.7-195-7.5
							c-9.6,0.2-21.8-1.5-24.6-10.7c-1.5-5,0.7-10.5,4.3-14.3c3.6-3.7,8.5-6,13.3-8c52.6-21.6,111.8-18,168.3-11.2
							c15.3,1.8,30.7,3.9,46,6.1C728.4,390.7,747.4,393.9,766.3,397.3z"/>
						<path class="st20" d="M552.3,512.9c-0.3,2.6-0.6,5.3-1.2,8h-347c4.6-4.3,11.6-7.7,15.6-10.4c27.8-18.9,56.7-36.6,87.9-49.5
							c12.1-5,27.1-9,37.2-0.7c5.7,4.6,8.3,12,12.9,17.7c11.2,14,31.7,15.7,49.6,14.9c39.5-1.8,78.7-10.2,118.2-8.6
							c9.6,0.4,20.7,2.4,25.2,10.8C553.6,500.5,553,506.9,552.3,512.9z"/>
					</g>
				</g>
				<g>
					<g>
						<path class="st23" d="M306.6,429.3c1,1.5,1.8,3.2,2.4,4.8c0.6,1.7,1.2,3.4,1.5,5.2c-1-1.5-1.8-3.2-2.4-4.8
							C307.5,432.8,306.9,431.1,306.6,429.3z"/>
					</g>
					<g>
						<path class="st23" d="M314.8,433.7c0.6,1.1,0.9,2.2,1.1,3.4c0.2,1.2,0.3,2.3,0.2,3.6c-0.6-1.1-0.9-2.2-1.1-3.4
							C314.7,436.1,314.6,434.9,314.8,433.7z"/>
					</g>
					<g>
						<path class="st23" d="M277.2,474.7c0.7,0.5,1,1.1,1.3,1.8c0.3,0.7,0.5,1.4,0.4,2.2c-0.7-0.5-1-1.1-1.3-1.8
							C277.4,476.2,277.2,475.5,277.2,474.7z"/>
					</g>
					<g>
						<path class="st23" d="M282.5,477.8c0.4,1,0.5,2,0.5,3.1c0,1-0.1,2-0.5,3.1c-0.4-1-0.5-2-0.5-3.1
							C282,479.8,282.1,478.8,282.5,477.8z"/>
					</g>
					<g>
						<path class="st23" d="M337.5,430.6c0.6,0.5,0.9,1.2,1.1,1.8c0.2,0.7,0.3,1.3,0.2,2.1c-0.6-0.5-0.9-1.2-1.1-1.8
							C337.4,432.1,337.3,431.4,337.5,430.6z"/>
					</g>
					<g>
						<path class="st23" d="M343,434.1c0.3,1,0.3,1.9,0.3,2.9c-0.1,0.9-0.2,1.9-0.7,2.8c-0.3-1-0.3-1.9-0.3-2.9
							C342.4,436,342.6,435,343,434.1z"/>
					</g>
					<g>
						<path class="st23" d="M422.1,397c0.7,0.6,1,1.3,1.3,2c0.3,0.7,0.5,1.5,0.4,2.4c-0.7-0.6-1-1.3-1.3-2
							C422.2,398.7,422,397.9,422.1,397z"/>
					</g>
					<g>
						<path class="st23" d="M427.3,398.8c0.5,0.5,0.6,0.9,0.7,1.5c0.1,0.5,0,1-0.3,1.6c-0.5-0.5-0.6-0.9-0.7-1.5
							C426.9,399.9,427,399.4,427.3,398.8z"/>
					</g>
					<g>
						<path class="st23" d="M460.1,436.7c0.6,0.4,1,0.9,1.3,1.5c0.3,0.6,0.5,1.2,0.4,2c-0.6-0.4-1-0.9-1.3-1.5
							C460.2,438.1,460,437.5,460.1,436.7z"/>
					</g>
					<g>
						<path class="st23" d="M466.1,438.1c0.5,0.6,0.8,1.2,0.9,1.9c0.1,0.7,0.2,1.3,0,2.1c-0.5-0.6-0.8-1.2-0.9-1.9
							C465.9,439.5,465.9,438.8,466.1,438.1z"/>
					</g>
					<g>
						<path class="st23" d="M505.8,386.2c0.6,0.6,0.9,1.3,1.1,2c0.2,0.7,0.3,1.5,0.2,2.3c-0.6-0.6-0.9-1.3-1.1-2
							C505.8,387.7,505.7,387,505.8,386.2z"/>
					</g>
					<g>
						<path class="st23" d="M510.7,389.2c0.5,0.7,0.6,1.4,0.7,2.1c0.1,0.7,0,1.5-0.3,2.2c-0.5-0.7-0.6-1.4-0.7-2.1
							C510.4,390.7,510.4,389.9,510.7,389.2z"/>
					</g>
					<g>
						<path class="st23" d="M485.3,404.1c0.7,0.5,1.2,1.1,1.5,1.7c0.4,0.7,0.6,1.4,0.7,2.2c-0.7-0.5-1.2-1.1-1.5-1.7
							C485.6,405.6,485.3,404.9,485.3,404.1z"/>
					</g>
					<g>
						<path class="st23" d="M543.9,373.9c0.5,0.5,0.6,0.9,0.7,1.5c0.1,0.5,0,1-0.3,1.6c-0.5-0.5-0.6-0.9-0.7-1.5
							C543.5,375,543.5,374.5,543.9,373.9z"/>
					</g>
					<g>
						<path class="st23" d="M552.6,418.4c0.6,0.4,0.9,0.8,1.1,1.3c0.2,0.5,0.3,1.1,0.2,1.7c-0.6-0.4-0.9-0.8-1.1-1.3
							C552.6,419.6,552.4,419.1,552.6,418.4z"/>
					</g>
					<g>
						<path class="st23" d="M566,416.2c0.3,0.6,0.3,1.2,0.3,1.8c-0.1,0.6-0.2,1.2-0.7,1.7c-0.3-0.6-0.3-1.2-0.3-1.8
							C565.4,417.3,565.6,416.8,566,416.2z"/>
					</g>
					<g>
						<path class="st23" d="M625,366.5c0.4,0.7,0.5,1.5,0.5,2.2c0,0.7-0.1,1.5-0.5,2.2c-0.4-0.7-0.5-1.5-0.5-2.2
							C624.5,367.9,624.6,367.2,625,366.5z"/>
					</g>
					<g>
						<path class="st23" d="M631.6,370.4c0.2,0.7,0.2,1.4,0.1,2.1c-0.2,0.7-0.4,1.3-0.9,1.9c-0.2-0.7-0.2-1.4-0.1-2.1
							C630.8,371.6,631,371,631.6,370.4z"/>
					</g>
					<g>
						<path class="st23" d="M712.3,380.9c0.2,0.8,0,1.5-0.2,2.1c-0.2,0.6-0.5,1.3-1.1,1.8c-0.2-0.8,0-1.5,0.2-2.1
							C711.4,382,711.7,381.4,712.3,380.9z"/>
					</g>
					<g>
						<path class="st23" d="M718.3,385.6c0,0.8-0.3,1.5-0.6,2.2c-0.4,0.6-0.8,1.3-1.5,1.7c0-0.8,0.3-1.5,0.6-2.2
							C717.2,386.7,717.6,386.1,718.3,385.6z"/>
					</g>
					<g>
						<path class="st23" d="M642.5,414.5c0.6,0.5,0.9,1.2,1.1,1.8c0.2,0.7,0.3,1.3,0.2,2.1c-0.6-0.5-0.9-1.2-1.1-1.8
							C642.5,416,642.3,415.3,642.5,414.5z"/>
					</g>
					<g>
						<path class="st23" d="M679.6,409.3c0,0.6,0.1,0.8,0,1.1c0,0.3-0.1,0.5-0.2,1.1c-0.3,0-0.5-0.2-0.6-0.4
							c-0.1-0.2-0.2-0.5-0.2-0.7C678.7,409.9,679,409.3,679.6,409.3z"/>
					</g>
				</g>
				<g>
					<path class="st1" d="M493.1,371.5c0,1.6-2.2,2.9-4.9,2.9c-2.7,0-4.9-1.3-4.9-2.9c0-1.6,2.2-2.9,4.9-2.9
						C490.9,368.6,493.1,369.9,493.1,371.5z"/>
					<path class="st1" d="M499.1,368.5c0,0.4-0.4,0.8-0.8,0.8c-0.4,0-0.8-0.4-0.8-0.8s0.4-0.8,0.8-0.8
						C498.7,367.7,499.1,368.1,499.1,368.5z"/>
					<path class="st1" d="M500.2,374.7c0,0.4-0.3,0.8-0.8,0.8c-0.4,0-0.8-0.3-0.8-0.8c0-0.4,0.3-0.8,0.8-0.8
						C499.8,373.9,500.2,374.3,500.2,374.7z"/>
					<path class="st1" d="M474,380.7c-0.3,1.4-2.1,2.3-4.1,1.9c-2-0.4-3.5-1.8-3.2-3.2c0.3-1.4,2.1-2.3,4.1-1.9
						C472.8,377.8,474.2,379.2,474,380.7z"/>
					<ellipse class="st1" cx="477" cy="372.2" rx="1.7" ry="0.7"/>
					<circle class="st1" cx="515.2" cy="367.9" r="1.4"/>
					<path class="st1" d="M514.2,373.7c0,0.5-0.4,0.9-0.9,0.9c-0.5,0-0.9-0.4-0.9-0.9c0-0.5,0.4-0.9,0.9-0.9
						C513.8,372.8,514.2,373.2,514.2,373.7z"/>
					<path class="st1" d="M483.2,390.3c0,0.6-0.9,1.1-1.9,1.1c-1.1,0-1.9-0.5-1.9-1.1s0.9-1.1,1.9-1.1
						C482.3,389.2,483.2,389.7,483.2,390.3z"/>
					<path class="st1" d="M541.4,364.4c0,0.8-1.1,1.4-2.5,1.4c-1.4,0-2.5-0.6-2.5-1.4c0-0.8,1.1-1.4,2.5-1.4
						C540.3,363,541.4,363.6,541.4,364.4z"/>
					<ellipse class="st1" cx="541.5" cy="370" rx="1.1" ry="0.4"/>
					<path class="st1" d="M454.3,381.6c0,0.8-1.1,1.5-2.5,1.5c-1.4,0-2.5-0.7-2.5-1.5c0-0.8,1.1-1.5,2.5-1.5
						C453.2,380,454.3,380.7,454.3,381.6z"/>
					<path class="st1" d="M562.2,371.6c0,0.4-0.3,0.8-0.8,0.8c-0.4,0-0.8-0.3-0.8-0.8c0-0.4,0.3-0.8,0.8-0.8
						C561.8,370.9,562.2,371.2,562.2,371.6z"/>
					<path class="st1" d="M553.6,380.5c0,0.3-0.2,0.5-0.5,0.5c-0.3,0-0.5-0.2-0.5-0.5c0-0.3,0.2-0.5,0.5-0.5
						C553.3,380,553.6,380.3,553.6,380.5z"/>
					<path class="st1" d="M516.6,381.3c0,0.1-0.4,0.2-1,0.2c-0.5,0-1-0.1-1-0.2c0-0.1,0.4-0.2,1-0.2
						C516.1,381.1,516.6,381.2,516.6,381.3z"/>
				</g>
			</g>
		</g>
		<g class="st5">
			<g>
				<path class="st24" d="M259.3,530H-17.2c-1.2-1.8-4.7-4.9-5.9-6.7c-8-3-13.5-11.6-12.9-20.1c0.7-8.5,7.5-16.2,15.9-17.8
					c-6.1-17-1.8-37.8,12.5-48.9c14.3-11.1,35.8-11.8,50.7-1.7c-0.2-7.1,5.3-14.9,12.2-16.7c6.9-1.8,14.8,1.8,18.1,8.2
					c4.9-13,19-23.1,32.8-21.3c13.8,1.8,25.6,13.9,27,27.7c2.9-3.9,7.7-7.1,12.4-5.9c4.7,1.2,8.5,5.5,9.2,10.3
					c10-10.6,27.4-14.5,40.2-7.5c12.8,7,19.9,23.1,16.4,37.2c8.7-2.9,18.4-2.2,25.2,3.9c6.8,6.1,9.9,16,7.9,24.9
					c6.9,1.1,12.3,6.6,14.2,13.4C260.7,515.8,260,523,259.3,530z"/>
				<path class="st25" d="M227.4,497c0.9-1.1,1.7-2.6,2.1-4.1c0.3-1.2-0.8-2.2-2-1.8c-0.3,0.1-0.7,0.3-1,0.4c0-1.1-0.2-2.3-0.6-3.4
					c-0.4-1.2-1.9-1.4-2.6-0.4c-0.7,0.9-1.2,2-1.6,3c-1.2-0.8-2.5-1.4-3.9-1.8c-7.9-2.3-14.1,0.4-21.1,4.7
					c1.4-6.2,2.7-12.6,1.5-18.9c-0.5-2.6-1.6-5.1-3.2-7.3c1-0.7,1.8-1.6,2.6-2.5c0.7-1,0-2.4-1.2-2.4c-1,0-2.1,0.1-3.1,0.4
					c0.5-1.3,0.7-2.8,0.6-4.3c-0.1-1.2-1.5-1.9-2.4-1.1c-1.5,1.2-2.8,2.9-3.6,4.7c-0.6-0.2-1.2-0.3-1.9-0.4
					c-5.4-0.7-10.6,2.5-14.7,6.1c-4.7,4-8.9,8.9-12.4,13.9c-1.1-4.2-2.2-8.5-4.7-12.1c-2.5-3.6-6.8-6.2-11.1-5.7
					c-2.9,0.4-5.5,2.2-7.4,4.5c-1.9,2.3-1.9,4.4-3,7.2c-4.7-14.7-9.5-29.6-17.7-42.8c-2.8-4.4-6.6-9-11.4-10.4
					c0.3-0.4,0.6-0.8,0.8-1.1c0.7-1.4,1-3.3,0.9-5c-0.1-1.2-1.5-1.9-2.4-1.1c-2.2,1.8-3.8,4.3-4.4,7c-4.5,0.9-8.1,4.7-10.8,8.6
					c-1.8,2.6-3.4,5.2-4.9,7.9c-0.5-0.7-1.2-1.5-1.9-2.1c-0.9-0.8-2.4-0.2-2.5,1c-0.2,2.4,0.3,5,1.5,7.1c-2.2,5.5-3.6,11.2-3.9,17.4
					c-2.4-3.1-5.2-6.1-8.8-7.8c-3.6-1.7-8.1-1.8-11.3,0.5c-2.2,1.6-3.6,4.2-4.1,6.8c-0.6,2.7-0.3,4.9,0,7.7
					c-5.5-5.6-11.1-11.3-17.9-15.1c-5.8-3.2-12.7-4.9-19.1-3.6c-0.2-1.2-0.7-2.5-1.3-3.6c-0.6-1.1-2.2-1-2.7,0.1
					c-0.2,0.5-0.4,1.1-0.6,1.6c-0.6-0.7-1.4-1.3-2.2-1.8c-1-0.7-2.4,0.1-2.3,1.3c0.1,1.9,0.7,3.8,1.6,5.6c-4.1,2.7-7.3,6.8-9.3,11.4
					c-2.3,5.3-3.1,11.2-3.1,17.1c-0.2-0.3-0.5-0.7-0.7-0.9c-1.1-1.1-2.8-1.9-4.5-2.4c-1.2-0.3-2.2,0.8-1.8,2c1.2,3,3.6,5.6,6.5,7
					c0.3,0.1,0.5,0.2,0.8,0.1c1.4,15.5,7.9,30.5,18.1,42.2H224c3.2-6.6,6.1-13.4,6.4-20.6C230.5,505.1,229.5,500.7,227.4,497z"/>
			</g>
			<g>
				<path class="st24" d="M556.5,530h276.5c1.2-1.8,4.7-4.9,5.9-6.7c8-3,13.5-11.6,12.9-20.1c-0.7-8.5-7.5-16.2-15.9-17.8
					c6.1-17,1.8-37.8-12.5-48.9c-14.3-11.1-35.8-11.8-50.7-1.7c0.2-7.1-5.3-14.9-12.2-16.7c-6.9-1.8-14.8,1.8-18.1,8.2
					c-4.9-13-19-23.1-32.8-21.3c-13.8,1.8-25.6,13.9-27,27.7c-2.9-3.9-7.7-7.1-12.4-5.9c-4.7,1.2-8.5,5.5-9.2,10.3
					c-10-10.6-27.4-14.5-40.2-7.5c-12.8,7-19.9,23.1-16.4,37.2c-8.7-2.9-18.4-2.2-25.2,3.9c-6.8,6.1-9.9,16-7.9,24.9
					c-6.9,1.1-12.3,6.6-14.2,13.4C555.2,515.8,555.9,523,556.5,530z"/>
				<path class="st25" d="M588.5,497c-0.9-1.1-1.7-2.6-2.1-4.1c-0.3-1.2,0.8-2.2,2-1.8c0.3,0.1,0.7,0.3,1,0.4c0-1.1,0.2-2.3,0.6-3.4
					c0.4-1.2,1.9-1.4,2.6-0.4c0.7,0.9,1.2,2,1.6,3c1.2-0.8,2.5-1.4,3.9-1.8c7.9-2.3,14.1,0.4,21.1,4.7c-1.4-6.2-2.7-12.6-1.5-18.9
					c0.5-2.6,1.6-5.1,3.2-7.3c-1-0.7-1.8-1.6-2.6-2.5c-0.7-1,0-2.4,1.2-2.4c1,0,2.1,0.1,3.1,0.4c-0.5-1.3-0.7-2.8-0.6-4.3
					c0.1-1.2,1.5-1.9,2.4-1.1c1.5,1.2,2.8,2.9,3.6,4.7c0.6-0.2,1.2-0.3,1.9-0.4c5.4-0.7,10.6,2.5,14.7,6.1c4.7,4,8.9,8.9,12.4,13.9
					c1.1-4.2,2.2-8.5,4.7-12.1c2.5-3.6,6.8-6.2,11.1-5.7c2.9,0.4,5.5,2.2,7.4,4.5c1.9,2.3,1.9,4.4,3,7.2
					c4.7-14.7,9.5-29.6,17.7-42.8c2.8-4.4,6.6-9,11.4-10.4c-0.3-0.4-0.6-0.8-0.8-1.1c-0.7-1.4-1-3.3-0.9-5c0.1-1.2,1.5-1.9,2.4-1.1
					c2.2,1.8,3.8,4.3,4.4,7c4.5,0.9,8.1,4.7,10.8,8.6c1.8,2.6,3.4,5.2,4.9,7.9c0.5-0.7,1.2-1.5,1.9-2.1c0.9-0.8,2.4-0.2,2.5,1
					c0.2,2.4-0.3,5-1.5,7.1c2.2,5.5,3.6,11.2,3.9,17.4c2.4-3.1,5.2-6.1,8.8-7.8c3.6-1.7,8.1-1.8,11.3,0.5c2.2,1.6,3.6,4.2,4.1,6.8
					c0.6,2.7,0.3,4.9,0,7.7c5.5-5.6,11.1-11.3,17.9-15.1c5.8-3.2,12.7-4.9,19.1-3.6c0.2-1.2,0.7-2.5,1.3-3.6c0.6-1.1,2.2-1,2.7,0.1
					c0.2,0.5,0.4,1.1,0.6,1.6c0.6-0.7,1.4-1.3,2.2-1.8c1-0.7,2.4,0.1,2.3,1.3c-0.1,1.9-0.7,3.8-1.6,5.6c4.1,2.7,7.3,6.8,9.3,11.4
					c2.3,5.3,3.1,11.2,3.1,17.1c0.2-0.3,0.5-0.7,0.7-0.9c1.1-1.1,2.8-1.9,4.5-2.4c1.2-0.3,2.2,0.8,1.8,2c-1.2,3-3.6,5.6-6.5,7
					c-0.3,0.1-0.5,0.2-0.8,0.1c-1.4,15.5-7.9,30.5-18.1,42.2H591.8c-3.2-6.6-6.1-13.4-6.4-20.6C585.3,505.1,586.4,500.7,588.5,497z"
					/>
			</g>
		</g>
		<g class="st5">
			<g>
				<g>
					<path class="st26" d="M169.3,455.2c-1.6,9.1-4.2,18-6,27.1c-1.7,9.1-2.6,18.5-0.8,27.6"/>
					<path class="st1" d="M176,455.1c-1.5,1.6-3.6,2.7-5.8,2.6c-3-0.1-5.6-2.3-6.8-5.1c-1.1-2.6-1.1-5.5-0.5-8.3
						c0.2-0.8,1.1-1.2,1.8-0.8c0.9,0.6,1.1,1.7,1.2,2.8c0.1,0.9,0,1.9,0.5,2.8c0.3-1.9,1.3-3.7,2.7-5c0.6-0.5,1.4-1,2-0.4
						c0.4,0.3,0.5,0.8,0.5,1.3l-0.7,5.6c0.5-1,1.2-1.7,2-2.6c0.3-0.4,0.8-0.8,1.3-0.8c0.7,0,1.1,0.9,1.1,1.6c0,0.7-0.3,1.4-0.2,2.2
						c0.4-0.5,0.7-1,0.9-1.5s0.5-1.1,1-1.5c0.5-0.4,1.1-0.4,1.7-0.2C180.3,448.6,177.5,453.5,176,455.1z"/>
				</g>
				<g>
					<path class="st26" d="M93.8,470.2c5.4,11.6,9.3,23.8,11.6,36.4"/>
					<path class="st1" d="M98.6,466.4c-0.1,2.2-1,4.4-2.6,5.8c-2.3,1.9-5.7,2-8.4,0.7c-2.6-1.2-4.5-3.4-5.9-5.9
						c-0.4-0.7,0-1.7,0.8-1.8c1.1-0.1,2,0.5,2.7,1.3c0.7,0.7,1.3,1.4,2.2,1.8c-1-1.6-1.5-3.6-1.3-5.5c0.1-0.8,0.4-1.7,1.2-1.7
						c0.5,0,0.9,0.3,1.2,0.7l3.2,4.6c-0.2-1.1-0.2-2.1-0.2-3.2c0-0.5,0-1.1,0.4-1.4c0.6-0.5,1.4-0.1,1.9,0.5s0.7,1.3,1.3,1.8
						c0-0.6-0.1-1.1-0.3-1.7c-0.2-0.6-0.3-1.2-0.2-1.8c0.1-0.6,0.6-1.1,1.1-1.3C97.5,458.6,98.7,464.2,98.6,466.4z"/>
				</g>
				<g>
					<g>
						<path class="st26" d="M135.7,445.3c0.8,19.8-0.3,39.7-3.2,59.3"/>
						<path class="st26" d="M120.3,465.7c6.7,10,11.1,21.2,13.1,33.1"/>
						<path class="st26" d="M151.2,461.9c-6.5,8.2-11.8,16.5-16.6,25.7"/>
					</g>
					<g>
						<path class="st1" d="M141.6,443.4c1.8,0.6,3.2,2.1,3.8,4c0.2,0.7,0.2,1.6-0.4,2c-0.4,0.3-1,0.2-1.6,0c-1.1-0.4-2-0.9-2.6-1.8
							c0.6,1.3,0.8,2.7,0.6,4.1c-0.1,0.5-0.2,1-0.6,1.3c-0.4,0.3-0.9,0.3-1.3,0.1c-0.4-0.2-0.7-0.5-1-0.8c-1-1.1-1.5-2.2-1.8-3.6
							c-0.5,1.5-1.2,3.1-2.3,4.3c-0.5,0.5-1,0.9-1.7,0.9c-0.7,0-1.3-0.4-1.7-1c-0.4-0.6-0.5-1.3-0.5-2c-0.1-1.4,0.2-2.8,0.8-4
							c-1.4,0.6-3,0.9-4.5,0.9c-0.5,0-1,0-1.3-0.4c-0.4-0.5-0.1-1.2,0.2-1.7c0.6-0.8,1.4-1.4,2.4-1.9c0.9-0.4,2-0.7,2.9-1
							c-1.1-0.5-2-1.3-2.7-2.2c-0.3-0.4-0.5-0.9-0.3-1.4c0.2-0.5,0.8-0.7,1.3-0.8c1.2-0.1,2.4,0.3,3.4,0.9c1,0.6,1.9,1.5,2.7,2.3
							c0.4-0.5,0.9-0.9,1.5-1.2c0.5-0.3,1.2-0.5,1.8-0.3c0.6,0.2,1,0.9,0.9,1.5c0.5-0.4,1.3-0.3,1.8,0.1S141.7,442.8,141.6,443.4z"
							/>
						<path class="st27" d="M141.4,445.3c-1.4,1-3.3,1.4-5,1c-1.7-0.4-3.2-1.5-4-3.1c0.5-1.9,1.4-3.5,2.9-4.8c0.6-0.5,1.3-1,2.1-1.2
							c1.2-0.2,2.5,0.3,3.3,1.3c0.8,0.9,1.1,2.2,1.2,3.4C141.9,443.2,141.6,444.1,141.4,445.3z"/>
					</g>
					<g>
						<path class="st1" d="M154.4,462.3c0.9,1,1.3,2.4,1,3.7c-0.1,0.5-0.4,1.1-0.9,1.1c-0.4,0-0.7-0.2-1-0.5c-0.5-0.6-0.9-1.2-1-2
							c-0.1,1-0.4,1.9-1,2.7c-0.2,0.3-0.5,0.6-0.8,0.6c-0.3,0-0.6-0.1-0.8-0.4c-0.2-0.2-0.3-0.5-0.4-0.8c-0.2-1-0.2-1.8,0.1-2.8
							c-0.8,0.8-1.7,1.5-2.8,1.9c-0.4,0.1-0.9,0.2-1.3,0c-0.4-0.2-0.7-0.7-0.7-1.2c0-0.5,0.1-1,0.3-1.4c0.4-0.9,1-1.6,1.8-2.2
							c-1.1-0.1-2.1-0.4-3.1-0.9c-0.3-0.2-0.6-0.4-0.7-0.7c-0.1-0.4,0.3-0.8,0.7-1c0.6-0.3,1.4-0.4,2.1-0.4c0.7,0,1.4,0.2,2.1,0.4
							c-0.5-0.6-0.8-1.4-0.9-2.3c0-0.3,0-0.7,0.2-1c0.3-0.2,0.7-0.2,1-0.1c0.8,0.3,1.4,0.9,1.8,1.6c0.4,0.7,0.7,1.5,0.9,2.3
							c0.4-0.2,0.9-0.3,1.3-0.3c0.4,0,0.9,0.1,1.2,0.4s0.3,0.9,0,1.2c0.4-0.1,0.9,0.2,1.1,0.6C155,461.4,154.7,462,154.4,462.3z"/>
						<path class="st27" d="M153.7,463.4c-1.2,0.2-2.5-0.2-3.4-1c-0.9-0.8-1.5-2-1.5-3.2c1-1,2-1.7,3.4-2c0.5-0.1,1.1-0.2,1.7-0.1
							c0.8,0.2,1.4,1,1.6,1.9c0.2,0.8,0,1.7-0.4,2.5C154.7,462.2,154.2,462.7,153.7,463.4z"/>
					</g>
					<g>
						<path class="st1" d="M122.9,463.6c1.2-0.5,2.7-0.3,3.8,0.4c0.4,0.3,0.8,0.7,0.7,1.2c-0.1,0.4-0.5,0.6-0.8,0.7
							c-0.8,0.3-1.4,0.4-2.2,0.2c0.9,0.4,1.6,1.1,2.2,1.9c0.2,0.3,0.4,0.6,0.3,1c-0.1,0.3-0.3,0.5-0.6,0.6c-0.3,0.1-0.6,0.1-0.9,0
							c-1-0.1-1.8-0.5-2.6-1.1c0.4,1.1,0.8,2.2,0.7,3.3c0,0.4-0.2,0.9-0.5,1.2c-0.4,0.3-0.9,0.4-1.4,0.2c-0.5-0.2-0.8-0.5-1.2-0.8
							c-0.6-0.7-1.1-1.6-1.4-2.5c-0.5,0.9-1.2,1.8-2,2.5c-0.3,0.2-0.6,0.4-0.9,0.4c-0.4-0.1-0.6-0.6-0.7-1c-0.1-0.7,0.1-1.4,0.4-2.1
							c0.3-0.6,0.7-1.3,1.1-1.8c-0.8,0.2-1.6,0.2-2.4,0c-0.3-0.1-0.7-0.3-0.8-0.6c-0.1-0.3,0.1-0.7,0.3-1c0.6-0.6,1.4-0.9,2.2-1.1
							c0.8-0.1,1.6-0.1,2.5,0c0-0.4,0.1-0.9,0.2-1.3c0.1-0.4,0.4-0.8,0.9-1c0.4-0.2,1,0,1.2,0.4c0.1-0.4,0.6-0.8,1-0.8
							C122.3,462.7,122.7,463.2,122.9,463.6z"/>
						<path class="st27" d="M123.6,464.7c-0.3,1.2-1.1,2.2-2.2,2.8c-1.1,0.6-2.4,0.6-3.5,0.2c-0.6-1.3-0.8-2.5-0.6-3.9
							c0.1-0.6,0.2-1.1,0.6-1.6c0.5-0.7,1.5-0.9,2.3-0.8c0.8,0.1,1.6,0.7,2.2,1.3C122.9,463.3,123.2,464,123.6,464.7z"/>
					</g>
				</g>
				<g>
					<path class="st26" d="M189.8,478.2c-0.2,11.1-3.1,22.1-8.4,31.8"/>
					<g>
						<path class="st1" d="M193,477c1.3,0.4,2.3,1.4,2.7,2.7c0.2,0.5,0.2,1.1-0.2,1.4c-0.3,0.2-0.7,0.2-1.1,0.1
							c-0.8-0.2-1.4-0.5-1.9-1.2c0.4,0.9,0.6,1.9,0.5,2.8c0,0.4-0.1,0.7-0.4,0.9c-0.2,0.2-0.6,0.2-0.9,0.1c-0.3-0.1-0.5-0.3-0.7-0.5
							c-0.7-0.7-1.1-1.5-1.3-2.5c-0.3,1.1-0.7,2.2-1.5,3c-0.3,0.3-0.7,0.6-1.1,0.7c-0.5,0-0.9-0.3-1.2-0.7c-0.3-0.4-0.4-0.9-0.4-1.4
							c-0.1-1,0.1-1.9,0.4-2.8c-1,0.4-2,0.7-3.1,0.7c-0.3,0-0.7,0-0.9-0.3c-0.3-0.3-0.1-0.8,0.1-1.2c0.4-0.6,1-1,1.6-1.4
							c0.6-0.3,1.3-0.5,2-0.7c-0.8-0.3-1.4-0.8-1.9-1.5c-0.2-0.3-0.4-0.6-0.3-0.9c0.1-0.3,0.5-0.5,0.9-0.6c0.8-0.1,1.7,0.1,2.4,0.5
							c0.7,0.4,1.3,1,1.9,1.5c0.3-0.4,0.6-0.7,1-0.9c0.4-0.2,0.8-0.4,1.3-0.2c0.4,0.1,0.8,0.6,0.7,1c0.3-0.3,0.9-0.3,1.2,0
							C193,476,193,476.6,193,477z"/>
						<path class="st27" d="M192.9,478.4c-1,0.7-2.2,1.1-3.4,0.8c-1.2-0.2-2.3-1-2.9-2c0.3-1.3,0.9-2.5,1.9-3.5
							c0.4-0.4,0.9-0.8,1.4-0.9c0.8-0.2,1.7,0.2,2.3,0.8c0.6,0.6,0.9,1.5,0.9,2.3C193.1,476.8,193,477.5,192.9,478.4z"/>
					</g>
				</g>
				<g>
					<path class="st26" d="M100,434.4c5.7,24.6,8.6,49.8,8.6,75.1"/>
					<path class="st1" d="M106.8,434.5c-0.5,2.1-1.8,4.1-3.7,5.2c-2.6,1.4-6,0.9-8.4-0.9c-2.3-1.7-3.7-4.2-4.7-6.9
						c-0.3-0.8,0.3-1.6,1.2-1.6c1.1,0.1,1.8,0.9,2.4,1.8c0.5,0.8,1,1.6,1.8,2.2c-0.7-1.8-0.8-3.8-0.2-5.7c0.2-0.7,0.7-1.6,1.5-1.4
						c0.5,0.1,0.9,0.5,1.1,0.9l2.3,5.2c0-1.1,0.2-2.1,0.4-3.2c0.1-0.5,0.2-1.1,0.7-1.3c0.6-0.3,1.4,0.2,1.8,0.9
						c0.3,0.6,0.4,1.4,0.9,2c0.1-0.6,0.1-1.2,0-1.8c-0.1-0.6-0.1-1.2,0.1-1.8c0.2-0.6,0.8-0.9,1.4-1
						C107.3,426.6,107.4,432.3,106.8,434.5z"/>
				</g>
			</g>
			<g>
				<g>
					<g>
						<path class="st26" d="M685.3,458.5c-9,17.5-16.4,35.9-21.9,54.7"/>
						<path class="st26" d="M703.1,472.6c-13.5,6.1-25.6,15.1-35.2,26.3"/>
					</g>
					<path class="st1" d="M678.1,457c0.5,2.1,1.8,4.1,3.7,5.2c2.6,1.4,6,0.9,8.4-0.9c2.3-1.7,3.7-4.2,4.7-6.9
						c0.3-0.8-0.3-1.6-1.2-1.6c-1.1,0.1-1.8,0.9-2.4,1.8c-0.5,0.8-1,1.6-1.8,2.2c0.7-1.8,0.8-3.8,0.2-5.7c-0.2-0.7-0.7-1.6-1.5-1.4
						c-0.5,0.1-0.9,0.5-1.1,0.9l-2.3,5.2c0-1.1-0.2-2.1-0.4-3.2c-0.1-0.5-0.2-1.1-0.7-1.3c-0.6-0.3-1.4,0.2-1.8,0.9
						c-0.3,0.6-0.4,1.4-0.9,2c-0.1-0.6-0.1-1.2,0-1.8c0.1-0.6,0.1-1.2-0.1-1.8c-0.2-0.6-0.8-0.9-1.4-1
						C677.7,449.2,677.6,454.9,678.1,457z"/>
					<path class="st1" d="M697.3,469.7c-0.1,1.4,0.2,2.8,1.2,3.8c1.3,1.4,3.4,1.7,5.1,1.1c1.7-0.5,3-1.8,4.1-3.1
						c0.3-0.4,0.1-1-0.4-1.2c-0.6-0.2-1.3,0.2-1.8,0.6c-0.5,0.4-0.9,0.8-1.5,0.9c0.8-0.9,1.2-2.1,1.3-3.3c0-0.5-0.1-1.1-0.6-1.1
						c-0.3,0-0.6,0.1-0.8,0.3l-2.4,2.6c0.2-0.6,0.3-1.3,0.4-2c0-0.3,0.1-0.7-0.2-0.9c-0.3-0.3-0.9-0.2-1.2,0.2s-0.5,0.7-0.9,1
						c0.1-0.4,0.2-0.7,0.3-1c0.2-0.3,0.3-0.7,0.3-1.1c0-0.4-0.3-0.7-0.6-0.9C698.6,465,697.4,468.3,697.3,469.7z"/>
				</g>
				<g>
					<g>
						<path class="st26" d="M646.3,426.5c4.6,26,6,52.6,4.4,79"/>
						<path class="st26" d="M630.3,441.8c9.3,8.7,16.6,19.7,20.9,31.7c0-0.1,0-0.3,0-0.4"/>
						<path class="st26" d="M661.8,447.3c-4.4,10.4-7.9,21.1-10.5,32.1"/>
					</g>
					<g>
						<path class="st1" d="M639.5,424c-1.8,0.6-3.2,2.1-3.8,4c-0.2,0.7-0.2,1.6,0.4,2c0.4,0.3,1,0.2,1.6,0c1.1-0.4,2-0.9,2.6-1.8
							c-0.6,1.3-0.8,2.7-0.6,4.1c0.1,0.5,0.2,1,0.6,1.3c0.4,0.3,0.9,0.3,1.3,0.1c0.4-0.2,0.7-0.5,1-0.8c1-1.1,1.5-2.2,1.8-3.6
							c0.5,1.5,1.2,3.1,2.3,4.3c0.5,0.5,1,0.9,1.7,0.9c0.7,0,1.3-0.4,1.7-1c0.4-0.6,0.5-1.3,0.5-2c0.1-1.4-0.2-2.8-0.8-4
							c1.4,0.6,3,0.9,4.5,0.9c0.5,0,1,0,1.3-0.4c0.4-0.5,0.1-1.2-0.2-1.7c-0.6-0.8-1.4-1.4-2.4-1.9c-0.9-0.4-2-0.7-2.9-1
							c1.1-0.5,2-1.3,2.7-2.2c0.3-0.4,0.5-0.9,0.3-1.4c-0.2-0.5-0.8-0.7-1.3-0.8c-1.2-0.1-2.4,0.3-3.4,0.9c-1,0.6-1.9,1.5-2.7,2.3
							c-0.4-0.5-0.9-0.9-1.5-1.2c-0.5-0.3-1.2-0.5-1.8-0.3c-0.6,0.2-1,0.9-0.9,1.5c-0.5-0.4-1.3-0.3-1.8,0.1
							C639.3,422.5,639.4,423.4,639.5,424z"/>
						<path class="st27" d="M639.7,425.9c1.4,1,3.3,1.4,5,1c1.7-0.4,3.2-1.5,4-3.1c-0.5-1.9-1.4-3.5-2.9-4.8c-0.6-0.5-1.3-1-2.1-1.2
							c-1.2-0.2-2.5,0.3-3.3,1.3c-0.8,0.9-1.1,2.2-1.2,3.4C639.2,423.8,639.5,424.7,639.7,425.9z"/>
					</g>
					<g>
						<path class="st1" d="M626.7,442.9c-0.9,1-1.3,2.4-1,3.7c0.1,0.5,0.4,1.1,0.9,1.1c0.4,0,0.7-0.2,1-0.5c0.5-0.6,0.9-1.2,1-2
							c0.1,1,0.4,1.9,1,2.7c0.2,0.3,0.5,0.6,0.8,0.6c0.3,0,0.6-0.1,0.8-0.4c0.2-0.2,0.3-0.5,0.4-0.8c0.2-1,0.2-1.8-0.1-2.8
							c0.8,0.8,1.7,1.5,2.8,1.9c0.4,0.1,0.9,0.2,1.3,0c0.4-0.2,0.7-0.7,0.7-1.2c0-0.5-0.1-1-0.3-1.4c-0.4-0.9-1-1.6-1.8-2.2
							c1.1-0.1,2.1-0.4,3.1-0.9c0.3-0.2,0.6-0.4,0.7-0.7c0.1-0.4-0.3-0.8-0.7-1c-0.6-0.3-1.4-0.4-2.1-0.4c-0.7,0-1.4,0.2-2.1,0.4
							c0.5-0.6,0.8-1.4,0.9-2.3c0-0.3,0-0.7-0.2-1c-0.3-0.2-0.7-0.2-1-0.1c-0.8,0.3-1.4,0.9-1.8,1.6s-0.7,1.5-0.9,2.3
							c-0.4-0.2-0.9-0.3-1.3-0.3c-0.4,0-0.9,0.1-1.2,0.4s-0.3,0.9,0,1.2c-0.4-0.1-0.9,0.2-1.1,0.6
							C626.1,442,626.4,442.6,626.7,442.9z"/>
						<path class="st27" d="M627.5,444c1.2,0.2,2.5-0.2,3.4-1c0.9-0.8,1.5-2,1.5-3.2c-1-1-2-1.7-3.4-2c-0.5-0.1-1.1-0.2-1.7-0.1
							c-0.8,0.2-1.4,1-1.6,1.9c-0.2,0.8,0,1.7,0.4,2.5C626.5,442.8,627,443.3,627.5,444z"/>
					</g>
					<g>
						<path class="st1" d="M658.3,444.2c-1.2-0.5-2.7-0.3-3.8,0.4c-0.4,0.3-0.8,0.7-0.7,1.2c0.1,0.4,0.5,0.6,0.8,0.7
							c0.8,0.3,1.4,0.4,2.2,0.2c-0.9,0.4-1.6,1.1-2.2,1.9c-0.2,0.3-0.4,0.6-0.3,1c0.1,0.3,0.3,0.5,0.6,0.6c0.3,0.1,0.6,0.1,0.9,0
							c1-0.1,1.8-0.5,2.6-1.1c-0.4,1.1-0.8,2.2-0.7,3.3c0,0.4,0.2,0.9,0.5,1.2c0.4,0.3,0.9,0.4,1.4,0.2c0.5-0.2,0.8-0.5,1.2-0.8
							c0.6-0.7,1.1-1.6,1.4-2.5c0.5,0.9,1.2,1.8,2,2.5c0.3,0.2,0.6,0.4,0.9,0.4c0.4-0.1,0.6-0.6,0.7-1c0.1-0.7-0.1-1.4-0.4-2.1
							c-0.3-0.6-0.7-1.3-1.1-1.8c0.8,0.2,1.6,0.2,2.4,0c0.3-0.1,0.7-0.3,0.8-0.6c0.1-0.3-0.1-0.7-0.3-1c-0.6-0.6-1.4-0.9-2.2-1.1
							c-0.8-0.1-1.6-0.1-2.5,0c0-0.4-0.1-0.9-0.2-1.3c-0.1-0.4-0.4-0.8-0.9-1c-0.4-0.2-1,0-1.2,0.4c-0.1-0.4-0.6-0.8-1-0.8
							C658.9,443.3,658.5,443.8,658.3,444.2z"/>
						<path class="st27" d="M657.5,445.3c0.3,1.2,1.1,2.2,2.2,2.8c1.1,0.6,2.4,0.6,3.5,0.2c0.6-1.3,0.8-2.5,0.6-3.9
							c-0.1-0.6-0.2-1.1-0.6-1.6c-0.5-0.7-1.5-0.9-2.3-0.8c-0.8,0.1-1.6,0.7-2.2,1.3C658.2,443.9,658,444.6,657.5,445.3z"/>
					</g>
				</g>
			</g>
		</g>
	</g>
	<g>
		<g>
			<g>
				<path class="st28" d="M192.8,373.5c0.4,1.5,0.6,3.1,0.4,4.7l-35.6,14.5c-0.7-0.7-1.3-1.4-1.8-2.2c-0.3-0.6-0.6-1.2-0.8-1.8
					c-0.4-1.6,0.1-3.5,1.5-4.3c0.9-0.5,1.9-0.5,2.9-0.3c0.8,0.2,1.5,0.6,2.2,0.9c0.2,0.1,0.3,0.2,0.5,0.3c-0.2-0.5-0.4-1-0.6-1.6
					c-0.4-1-0.6-2.1-0.6-3.2c0-1.6,0.7-3.3,2.1-4.1c1.4-0.8,3.2-0.6,4.7,0.2c0.4,0.2,0.8,0.5,1.2,0.8c0.9,0.7,1.7,1.6,2.5,2.4
					c-0.2-0.8-0.4-1.6-0.6-2.5c-0.7-3-1-6,0.2-8.8c0.5-1.3,1.4-2.6,2.6-3.3c2.2-1.4,5.2-0.7,7.3,0.9c1.2,1,2.2,2.2,3.1,3.6
					c0.5,0.9,1,1.8,1.5,2.7c0.1-0.2,0.1-0.5,0.2-0.7c0.1-0.6,0.2-1.1,0.5-1.7c0.5-0.8,1.3-1.4,2.2-1.4c1.2-0.1,2.2,0.8,2.9,1.8
					C192,371.3,192.5,372.4,192.8,373.5z"/>
				<path class="st29" d="M192.8,373.5c0.4,1.5,0.6,3.1,0.4,4.7l-35.6,14.5c-0.7-0.7-1.3-1.4-1.8-2.2c0.7,0.3,1.5,0.4,2.3,0.4
					c1,0,2-0.3,2.8-0.9c1.1-0.9,1.4-2.5,1.1-3.9c-0.1-0.4-0.2-0.7-0.3-1.1c0.2,0.1,0.3,0.2,0.5,0.3c-0.2-0.5-0.4-1-0.6-1.6
					c0.2,0.2,0.4,0.4,0.6,0.6c0.6,0.6,1.1,1.1,1.8,1.6c0.7,0.4,1.5,0.7,2.3,0.7c1.5-0.1,2.8-1.3,3.3-2.7c0.5-1.4,0.3-3,0-4.5
					c-0.2-0.7-0.4-1.4-0.6-2c0.9,0.7,1.7,1.6,2.5,2.4c-0.2-0.8-0.4-1.6-0.6-2.5c0.9,0.8,1.8,1.5,2.9,2.2c1.1,0.7,2.3,1.3,3.6,1.1
					c0.9-0.1,1.8-0.6,2.5-1.3c0.7-0.7,1.2-1.5,1.6-2.3c1.2-2.3,2-4.8,2.5-7.4c0.5,0.9,1,1.8,1.5,2.7c0.1-0.2,0.1-0.5,0.2-0.7
					c0.4,0.9,0.9,1.7,1.5,2.4c0.8,1,2.1,1.8,3.4,1.6c0.9-0.2,1.6-0.8,2-1.5C192.6,374,192.7,373.7,192.8,373.5z"/>
			</g>
			<g>
				<path class="st28" d="M288.4,327.6c0.4,1.5,1.2,3,2.1,4.2l37.9-6.6c0.2-0.9,0.4-1.9,0.4-2.8c0-0.7-0.1-1.3-0.3-2
					c-0.5-1.5-2-2.9-3.6-2.8c-1,0-1.9,0.6-2.6,1.3c-0.6,0.6-1,1.3-1.4,2c-0.1,0.2-0.2,0.3-0.3,0.5c-0.1-0.5-0.2-1.1-0.3-1.7
					c-0.2-1.1-0.6-2.1-1.2-3c-0.9-1.3-2.4-2.4-4-2.3c-1.6,0-3.1,1.2-3.9,2.6c-0.2,0.4-0.4,0.8-0.6,1.3c-0.4,1.1-0.6,2.2-0.8,3.4
					c-0.2-0.8-0.5-1.6-0.8-2.4c-1-2.9-2.4-5.6-4.8-7.4c-1.1-0.8-2.5-1.5-3.9-1.4c-2.6,0-4.8,2.2-5.7,4.6c-0.5,1.5-0.7,3.1-0.7,4.7
					c0,1,0.1,2.1,0.1,3.1c-0.2-0.2-0.3-0.3-0.5-0.5c-0.4-0.5-0.7-0.9-1.4-1.2c-0.8-0.4-1.9-0.5-2.7,0c-1,0.6-1.4,1.9-1.5,3
					C287.9,325.3,288.1,326.5,288.4,327.6z"/>
				<path class="st29" d="M288.4,327.6c0.4,1.5,1.2,3,2.1,4.2l37.9-6.6c0.2-0.9,0.4-1.9,0.4-2.8c-0.5,0.6-1.1,1.2-1.7,1.6
					c-0.8,0.5-1.8,0.9-2.8,0.7c-1.4-0.2-2.5-1.4-3-2.7c-0.1-0.4-0.3-0.7-0.3-1.1c-0.1,0.2-0.2,0.3-0.3,0.5c-0.1-0.5-0.2-1.1-0.3-1.7
					c0,0.3-0.1,0.5-0.2,0.8c-0.2,0.8-0.4,1.6-0.7,2.3c-0.3,0.7-0.8,1.4-1.5,1.8c-1.3,0.8-3,0.4-4.2-0.6c-1.2-1-1.9-2.4-2.3-3.8
					c-0.2-0.7-0.4-1.3-0.6-2c-0.4,1.1-0.6,2.2-0.8,3.4c-0.2-0.8-0.5-1.6-0.8-2.4c-0.3,1.2-0.7,2.3-1.3,3.4c-0.6,1.2-1.3,2.3-2.5,2.9
					c-0.9,0.4-1.9,0.4-2.8,0.2c-0.9-0.2-1.8-0.6-2.6-1.1c-2.3-1.3-4.3-3-6-4.9c0,1,0.1,2.1,0.1,3.1c-0.2-0.2-0.3-0.3-0.5-0.5
					c0.1,0.9,0.2,1.9,0,2.8c-0.2,1.3-0.8,2.6-2,3.1c-0.8,0.3-1.7,0.1-2.5-0.3C288.8,327.9,288.6,327.7,288.4,327.6z"/>
			</g>
		</g>
		<g>
			<g>
				<path class="st28" d="M612.7,388h-35.1c-0.2-0.3-0.4-0.6-0.6-0.8c-0.8-1.2-1.6-2.5-1.7-4c-0.2-1.8,0.6-3.8,2.3-4.5
					c1.4-0.6,3.1-0.1,4.3,0.9c0.1,0.1,0.3,0.2,0.4,0.3c1,0.9,1.7,2.1,2.4,3.2c-0.3-1.3-0.4-2.6-0.4-3.9c0-1.8,0.3-3.5,1-5.2
					c1-2.4,3.1-4.7,5.7-4.6c2.6,0.1,4.4,2.5,5.3,5c0.7,2,0.9,4.2,1.7,6.2c0.2,0.4,0.3,0.8,0.5,1.2c0.1-0.5,0.3-0.9,0.4-1.3
					c0.2-0.4,0.4-0.8,0.7-1.2c0.6-0.9,1.6-1.5,2.7-1.4c1.2,0.1,2.2,1.2,2.6,2.3c0.2,0.7,0.3,1.4,0.3,2.1c0,0.5,0,1,0,1.6
					c0.2-0.4,0.5-0.8,0.8-1c1.1-1,2.8-1.3,4.2-0.7c1,0.4,1.9,1.7,2.3,3.1C612.9,386.1,613,387.2,612.7,388z"/>
				<path class="st29" d="M612.7,388h-35.1c-0.2-0.3-0.4-0.6-0.6-0.8c1.2,0.4,2.5,0.2,3.6-0.5c1-0.7,1.5-1.9,1.7-3.1
					c0.2-1.2,0.1-2.4,0-3.6c0-0.1,0-0.1,0-0.2c1,0.9,1.7,2.1,2.4,3.2c-0.3-1.3-0.4-2.6-0.4-3.9c1.1,1.3,2.2,2.4,3.4,3.6
					c1.2,1.1,2.5,2.3,4.1,2.6c2.1,0.3,4.2-1.1,5.3-2.9c0.4-0.6,0.6-1.2,0.8-1.8c0.2,0.4,0.3,0.8,0.5,1.2c0.1-0.5,0.3-0.9,0.4-1.3
					c0.1,0.7,0.3,1.5,0.6,2.3c0.2,0.6,0.4,1.2,0.9,1.7c0.4,0.5,1,0.8,1.7,0.8c0.7-0.1,1.3-0.6,1.7-1.1c0.5-0.6,1.1-1.2,1.5-1.8
					c0,0.5,0,1,0,1.6c0.2-0.4,0.5-0.8,0.8-1c0,0.1,0,0.2,0,0.3c0,1.4,0.6,2.8,1.8,3.4c1.1,0.5,2.5,0.3,3.5-0.4
					c0.4-0.3,0.8-0.6,1.2-1C612.9,386.1,613,387.2,612.7,388z"/>
			</g>
			<g>
				<path class="st28" d="M628.2,403.6h46.2c0.2-0.4,0.5-0.7,0.7-1.1c1.1-1.6,2.1-3.3,2.3-5.3c0.2-2.4-0.8-5.1-3.1-6
					c-1.9-0.7-4-0.1-5.6,1.2c-0.2,0.1-0.3,0.3-0.5,0.4c-1.3,1.2-2.3,2.7-3.2,4.3c0.3-1.7,0.5-3.4,0.5-5.1c0-2.3-0.4-4.6-1.4-6.8
					c-1.4-3.1-4.1-6.2-7.5-6c-3.4,0.1-5.8,3.3-6.9,6.6c-0.9,2.7-1.2,5.5-2.2,8.1c-0.2,0.5-0.4,1.1-0.7,1.6c-0.2-0.7-0.3-1.2-0.6-1.7
					c-0.2-0.5-0.6-1-1-1.6c-0.8-1.1-2.2-2-3.6-1.9c-1.6,0.1-2.9,1.5-3.5,3.1c-0.3,0.9-0.4,1.8-0.4,2.8c0,0.7,0,1.4,0.1,2.1
					c-0.3-0.5-0.7-1-1.1-1.4c-1.5-1.3-3.7-1.7-5.5-0.9c-1.3,0.6-2.5,2.3-3.1,4C627.9,401.2,627.8,402.6,628.2,403.6z"/>
				<path class="st29" d="M628.2,403.6h46.2c0.2-0.4,0.5-0.7,0.7-1.1c-1.6,0.5-3.4,0.3-4.7-0.7c-1.3-0.9-2-2.5-2.2-4
					c-0.3-1.5-0.1-3.1,0-4.7c0-0.1,0-0.2,0-0.3c-1.3,1.2-2.3,2.7-3.2,4.3c0.3-1.7,0.5-3.4,0.5-5.1c-1.4,1.7-2.9,3.2-4.5,4.8
					c-1.5,1.5-3.2,3-5.3,3.4c-2.8,0.5-5.6-1.4-7-3.9c-0.5-0.8-0.8-1.6-1.1-2.4c-0.2,0.5-0.4,1.1-0.7,1.6c-0.2-0.7-0.3-1.2-0.6-1.7
					c-0.2,1-0.4,2-0.8,3c-0.3,0.8-0.6,1.6-1.1,2.2c-0.5,0.6-1.4,1.1-2.2,1c-0.9-0.1-1.7-0.8-2.3-1.4c-0.7-0.8-1.4-1.6-2-2.4
					c0,0.7,0,1.4,0.1,2.1c-0.3-0.5-0.7-1-1.1-1.4c0,0.1,0,0.3,0,0.5c0,1.8-0.8,3.7-2.4,4.5c-1.4,0.7-3.2,0.4-4.6-0.5
					c-0.6-0.4-1.1-0.8-1.6-1.3C627.9,401.2,627.8,402.6,628.2,403.6z"/>
			</g>
		</g>
	</g>
</g>
</svg>
