<?xml version="1.0" encoding="utf-8"?>
<!-- Generator: Adobe Illustrator 24.2.3, SVG Export Plug-In . SVG Version: 6.00 Build 0)  -->
<svg version="1.1" xmlns="http://www.w3.org/2000/svg" xmlns:xlink="http://www.w3.org/1999/xlink" x="0px" y="0px"
	 viewBox="0 0 750 500" style="enable-background:new 0 0 750 500;" xml:space="preserve">
<style type="text/css">
	.st0{fill:url(#SVGID_1_);}
	.st1{fill:#FFFFFF;}
	.st2{clip-path:url(#SVGID_3_);}
	.st3{opacity:0.2;fill:#FFFFFF;}
	.st4{opacity:0.75;fill-rule:evenodd;clip-rule:evenodd;fill:#FFFFFF;}
	.st5{clip-path:url(#SVGID_5_);}
	.st6{opacity:0.5;fill:#AACBE8;}
	.st7{opacity:0.3;fill:#FFFFFF;}
	.st8{fill:#AACBE8;}
	.st9{fill:url(#SVGID_6_);}
	.st10{opacity:0.3;fill:#FFF5F0;}
	.st11{fill:#809CD6;}
	.st12{opacity:0.5;fill:url(#SVGID_7_);}
	.st13{opacity:0.3;}
	.st14{fill:#FFF5F0;}
	.st15{fill:#626FBF;}
	.st16{opacity:0.5;fill:url(#SVGID_8_);}
	.st17{opacity:0.5;clip-path:url(#SVGID_5_);fill:#4D405E;}
	.st18{clip-path:url(#SVGID_10_);}
	.st19{fill:#675C7A;}
	.st20{opacity:0.2;}
	.st21{fill:#4D405E;}
</style>
<g id="BACKGROUND">
	<g>
		<linearGradient id="SVGID_1_" gradientUnits="userSpaceOnUse" x1="374.9991" y1="500.0005" x2="374.9991" y2="5.000000e-04">
			<stop  offset="0.6" style="stop-color:#F1D4D0"/>
			<stop  offset="0.7925" style="stop-color:#CBCFD8"/>
			<stop  offset="1" style="stop-color:#9EC8E2"/>
		</linearGradient>
		<rect x="0" y="0" class="st0" width="750" height="500"/>
		<g>
			<path class="st1" d="M10.7,7.3c0,0.8-0.7,1.5-1.5,1.5c-0.8,0-1.5-0.7-1.5-1.5c0-0.8,0.7-1.5,1.5-1.5C10.1,5.8,10.7,6.5,10.7,7.3"
				/>
			<path class="st1" d="M142.7,63.3c0,0.8-0.7,1.5-1.5,1.5s-1.5-0.7-1.5-1.5c0-0.8,0.7-1.5,1.5-1.5S142.7,62.5,142.7,63.3"/>
			<path class="st1" d="M139.8,116.9c0,0.8-0.7,1.5-1.5,1.5c-0.8,0-1.5-0.7-1.5-1.5c0-0.8,0.7-1.5,1.5-1.5
				C139.2,115.4,139.8,116.1,139.8,116.9"/>
			<path class="st1" d="M446.7,26.3c0,0.8-0.7,1.5-1.5,1.5c-0.8,0-1.5-0.7-1.5-1.5c0-0.8,0.7-1.5,1.5-1.5
				C446.1,24.8,446.7,25.5,446.7,26.3"/>
			<path class="st1" d="M299.7,26.3c0,0.8-0.7,1.5-1.5,1.5c-0.8,0-1.5-0.7-1.5-1.5c0-0.8,0.7-1.5,1.5-1.5
				C299.1,24.8,299.7,25.5,299.7,26.3"/>
			<path class="st1" d="M281.7,63.3c0,0.8-0.7,1.5-1.5,1.5c-0.8,0-1.5-0.7-1.5-1.5s0.7-1.5,1.5-1.5
				C281.1,61.8,281.7,62.5,281.7,63.3"/>
			<path class="st1" d="M567.7,106.7c0,0.8-0.7,1.5-1.5,1.5c-0.8,0-1.5-0.7-1.5-1.5c0-0.8,0.7-1.5,1.5-1.5
				C567,105.2,567.7,105.9,567.7,106.7"/>
			<path class="st1" d="M82.7,15.3c0,0.8-0.7,1.5-1.5,1.5c-0.8,0-1.5-0.7-1.5-1.5c0-0.8,0.7-1.5,1.5-1.5
				C82.1,13.8,82.7,14.5,82.7,15.3"/>
			<path class="st1" d="M250.7,83.3c0,0.8-0.7,1.5-1.5,1.5s-1.5-0.7-1.5-1.5c0-0.8,0.7-1.5,1.5-1.5S250.7,82.5,250.7,83.3"/>
			<path class="st1" d="M516,212.1c0,0.6,0.5,1,1,1c0.6,0,1-0.5,1-1c0-0.6-0.5-1-1-1C516.4,211.1,516,211.5,516,212.1"/>
			<path class="st1" d="M423.3,111.5c0,0.6,0.5,1,1,1c0.6,0,1-0.5,1-1c0-0.6-0.5-1-1-1C423.8,110.4,423.3,110.9,423.3,111.5"/>
			<path class="st1" d="M187.7,11.3c0,0.6,0.5,1,1,1c0.6,0,1-0.5,1-1c0-0.6-0.5-1-1-1C188.1,10.3,187.7,10.8,187.7,11.3"/>
			<path class="st1" d="M388.1,10c0,0.6,0.5,1,1,1c0.6,0,1-0.5,1-1c0-0.6-0.5-1-1-1C388.6,9,388.1,9.4,388.1,10"/>
			<path class="st1" d="M590.5,1c0,0.6,0.5,1,1,1c0.6,0,1-0.5,1-1c0-0.6-0.5-1-1-1C591,0,590.5,0.5,590.5,1"/>
			<path class="st1" d="M203.7,127.7c0,0.6,0.5,1,1,1c0.6,0,1-0.5,1-1c0-0.6-0.5-1-1-1C204.2,126.7,203.7,127.1,203.7,127.7"/>
			<path class="st1" d="M221.3,74c0,0.6,0.5,1,1,1c0.6,0,1-0.5,1-1c0-0.6-0.5-1-1-1C221.7,73,221.3,73.4,221.3,74"/>
			<path class="st1" d="M127.2,110.3c0,0.6,0.5,1,1,1c0.6,0,1-0.5,1-1c0-0.6-0.5-1-1-1C127.7,109.2,127.2,109.7,127.2,110.3"/>
			<path class="st1" d="M60.8,127.1c0,0.6,0.5,1,1,1c0.6,0,1-0.5,1-1c0-0.6-0.5-1-1-1C61.3,126.1,60.8,126.5,60.8,127.1"/>
			<path class="st1" d="M22.4,154c0-0.6-0.5-1-1-1c-0.6,0-1,0.5-1,1c0,0.6,0.5,1,1,1C21.9,155,22.4,154.5,22.4,154"/>
			<path class="st1" d="M138,107.7c0-0.6-0.5-1-1-1c-0.6,0-1,0.5-1,1c0,0.6,0.5,1,1,1C137.5,108.7,138,108.3,138,107.7"/>
			<path class="st1" d="M542,146.7c0-0.6-0.5-1-1-1c-0.6,0-1,0.5-1,1c0,0.6,0.5,1,1,1C541.5,147.7,542,147.3,542,146.7"/>
			<path class="st1" d="M11.8,81.8c0-0.6-0.5-1-1-1c-0.6,0-1,0.5-1,1c0,0.6,0.5,1,1,1C11.3,82.8,11.8,82.4,11.8,81.8"/>
			<path class="st1" d="M519.4,33c0-0.6-0.5-1-1-1c-0.6,0-1,0.5-1,1c0,0.6,0.5,1,1,1C518.9,34,519.4,33.6,519.4,33"/>
			<path class="st1" d="M554.8,177.7c0-0.6-0.5-1-1-1c-0.6,0-1,0.5-1,1c0,0.6,0.5,1,1,1C554.4,178.7,554.8,178.3,554.8,177.7"/>
			<path class="st1" d="M290.5,157.3c0-0.6-0.5-1-1-1c-0.6,0-1,0.5-1,1c0,0.6,0.5,1,1,1C290,158.4,290.5,157.9,290.5,157.3"/>
			<path class="st1" d="M692.3,117.6c0-0.6-0.5-1-1-1c-0.6,0-1,0.5-1,1c0,0.6,0.5,1,1,1C691.9,118.6,692.3,118.2,692.3,117.6"/>
			<path class="st1" d="M149.8,213.1c0,0.6,0.5,1,1,1c0.6,0,1-0.5,1-1c0-0.6-0.5-1-1-1C150.2,212.1,149.8,212.6,149.8,213.1"/>
			<path class="st1" d="M701.3,15.6c0,0.6,0.5,1,1,1c0.6,0,1-0.5,1-1c0-0.6-0.5-1-1-1C701.7,14.6,701.3,15,701.3,15.6"/>
			<path class="st1" d="M526.1,25c0,0.6,0.5,1,1,1c0.6,0,1-0.5,1-1c0-0.6-0.5-1-1-1C526.6,24,526.1,24.4,526.1,25"/>
			<path class="st1" d="M700.5,71c0,0.6,0.5,1,1,1c0.6,0,1-0.5,1-1c0-0.6-0.5-1-1-1C701,70,700.5,70.5,700.5,71"/>
			<path class="st1" d="M524.7,122.7c0,0.6,0.5,1,1,1c0.6,0,1-0.5,1-1c0-0.6-0.5-1-1-1C525.2,121.7,524.7,122.1,524.7,122.7"/>
			<path class="st1" d="M377.3,74.6c0,0.6,0.5,1,1,1c0.6,0,1-0.5,1-1c0-0.6-0.5-1-1-1C377.8,73.6,377.3,74.1,377.3,74.6"/>
			<path class="st1" d="M266.1,13.7c0,0.6,0.5,1,1,1c0.6,0,1-0.5,1-1c0-0.6-0.5-1-1-1C266.6,12.6,266.1,13.1,266.1,13.7"/>
			<path class="st1" d="M246.8,157.1c0,0.6,0.5,1,1,1c0.6,0,1-0.5,1-1c0-0.6-0.5-1-1-1C247.3,156.1,246.8,156.5,246.8,157.1"/>
			<path class="st1" d="M662.8,56.5c0.3-0.5,0.1-1.1-0.5-1.4c-0.5-0.3-1.1-0.1-1.4,0.5c-0.3,0.5-0.1,1.1,0.5,1.4
				C661.9,57.2,662.5,57,662.8,56.5"/>
			<path class="st1" d="M144.2,14.1c0.3-0.5,0.1-1.1-0.5-1.4c-0.5-0.3-1.1-0.1-1.4,0.5c-0.3,0.5-0.1,1.1,0.4,1.4
				C143.4,14.8,144,14.6,144.2,14.1"/>
			<path class="st1" d="M624.4,18.8c0.3-0.5,0.1-1.1-0.5-1.4c-0.5-0.3-1.1-0.1-1.4,0.4c-0.3,0.5-0.1,1.1,0.5,1.4
				C623.5,19.5,624.1,19.3,624.4,18.8"/>
			<path class="st1" d="M461.5,26.5c0.3-0.5,0.1-1.1-0.5-1.4c-0.5-0.3-1.1-0.1-1.4,0.4c-0.3,0.5-0.1,1.1,0.5,1.4
				C460.7,27.2,461.3,27,461.5,26.5"/>
			<path class="st1" d="M686.7,20.6c0.3-0.5,0.1-1.1-0.4-1.4c-0.5-0.3-1.1-0.1-1.4,0.5c-0.3,0.5-0.1,1.1,0.5,1.4
				C685.8,21.3,686.4,21.1,686.7,20.6"/>
			<path class="st1" d="M228.7,209.1c0.3-0.5,0.1-1.1-0.5-1.4c-0.5-0.3-1.1-0.1-1.4,0.5c-0.3,0.5-0.1,1.1,0.5,1.4
				C227.9,209.8,228.5,209.6,228.7,209.1"/>
			<path class="st1" d="M727.3,76.1c0.3-0.5,0.1-1.1-0.4-1.4c-0.5-0.3-1.1-0.1-1.4,0.5c-0.3,0.5-0.1,1.1,0.5,1.4
				C726.4,76.8,727,76.6,727.3,76.1"/>
			<path class="st1" d="M746.2,64.6c0.3-0.5,0.1-1.1-0.4-1.4c-0.5-0.3-1.1-0.1-1.4,0.5c-0.3,0.5-0.1,1.1,0.5,1.4
				C745.3,65.3,745.9,65.1,746.2,64.6"/>
			<path class="st1" d="M200.7,126.3c0,0.8-0.7,1.5-1.5,1.5s-1.5-0.7-1.5-1.5c0-0.8,0.7-1.5,1.5-1.5S200.7,125.5,200.7,126.3"/>
			<path class="st1" d="M153.7,21.3c0,0.8-0.7,1.5-1.5,1.5s-1.5-0.7-1.5-1.5c0-0.8,0.7-1.5,1.5-1.5S153.7,20.5,153.7,21.3"/>
			<path class="st1" d="M495.3,89.6c0,0.6,0.5,1,1,1c0.6,0,1-0.5,1-1c0-0.6-0.5-1-1-1C495.7,88.6,495.3,89,495.3,89.6"/>
			<path class="st1" d="M492,97c0-0.6-0.5-1-1-1c-0.6,0-1,0.5-1,1c0,0.6,0.5,1,1,1C491.6,98.1,492,97.6,492,97"/>
			<path class="st1" d="M557,56.1c0,0.6,0.5,1,1,1c0.6,0,1-0.5,1-1c0-0.6-0.5-1-1-1C557.4,55.1,557,55.5,557,56.1"/>
			<path class="st1" d="M307.7,18.3c0,0.8-0.7,1.5-1.5,1.5c-0.8,0-1.5-0.7-1.5-1.5c0-0.8,0.7-1.5,1.5-1.5
				C307.1,16.8,307.7,17.5,307.7,18.3"/>
			<path class="st1" d="M36.5,84.7c0,0.8-0.7,1.5-1.5,1.5c-0.8,0-1.5-0.7-1.5-1.5c0-0.8,0.7-1.5,1.5-1.5
				C35.8,83.3,36.5,83.9,36.5,84.7"/>
			<path class="st1" d="M21.8,188.4c0,0.8-0.7,1.5-1.5,1.5c-0.8,0-1.5-0.7-1.5-1.5c0-0.8,0.7-1.5,1.5-1.5
				C21.1,187,21.8,187.6,21.8,188.4"/>
			<path class="st1" d="M466.8,201.2c0,0.8-0.7,1.5-1.5,1.5s-1.5-0.7-1.5-1.5c0-0.8,0.7-1.5,1.5-1.5S466.8,200.4,466.8,201.2"/>
			<path class="st1" d="M93,51.4c0,0.6,0.5,1,1,1c0.6,0,1-0.5,1-1c0-0.6-0.5-1-1-1C93.4,50.4,93,50.8,93,51.4"/>
			<path class="st1" d="M69.1,83c0,0.6,0.5,1,1,1s1-0.5,1-1c0-0.6-0.5-1-1-1S69.1,82.4,69.1,83"/>
			<path class="st1" d="M471.4,61.6c0,0.6,0.5,1,1,1c0.6,0,1-0.5,1-1c0-0.6-0.5-1-1-1C471.8,60.6,471.4,61.1,471.4,61.6"/>
			<path class="st1" d="M467.4,155c0-0.6-0.5-1-1-1c-0.6,0-1,0.5-1,1c0,0.6,0.5,1,1,1C466.9,156,467.4,155.6,467.4,155"/>
			<path class="st1" d="M46.1,32c0,0.6,0.5,1,1,1c0.6,0,1-0.5,1-1c0-0.6-0.5-1-1-1C46.6,31,46.1,31.4,46.1,32"/>
			<path class="st1" d="M421.2,161.2c0,0.6,0.5,1,1,1c0.6,0,1-0.5,1-1c0-0.6-0.5-1-1-1C421.7,160.1,421.2,160.6,421.2,161.2"/>
			<path class="st1" d="M693.4,178.8c0.3-0.5,0.1-1.1-0.5-1.4c-0.5-0.3-1.1-0.1-1.4,0.5c-0.3,0.5-0.1,1.1,0.5,1.4
				C692.5,179.5,693.1,179.3,693.4,178.8"/>
			<path class="st1" d="M57.5,90.5c0.3-0.5,0.1-1.1-0.5-1.4c-0.5-0.3-1.1-0.1-1.4,0.5c-0.3,0.5-0.1,1.1,0.5,1.4
				C56.7,91.2,57.3,91,57.5,90.5"/>
			<path class="st1" d="M378.3,159.7c0,0.6,0.5,1,1,1s1-0.5,1-1c0-0.6-0.5-1-1-1S378.3,159.1,378.3,159.7"/>
			<path class="st1" d="M535.2,209.3c0-0.6-0.5-1-1-1c-0.6,0-1,0.5-1,1c0,0.6,0.5,1,1,1C534.8,210.3,535.2,209.9,535.2,209.3"/>
			<path class="st1" d="M464.7,193.4c0,0.6,0.5,1,1,1c0.6,0,1-0.5,1-1c0-0.6-0.5-1-1-1C465.1,192.3,464.7,192.8,464.7,193.4"/>
			<path class="st1" d="M272.7,183.3c0,0.8-0.7,1.5-1.5,1.5s-1.5-0.7-1.5-1.5c0-0.8,0.7-1.5,1.5-1.5S272.7,182.5,272.7,183.3"/>
			<path class="st1" d="M437.7,95.7c0,0.6,0.5,1,1,1c0.6,0,1-0.5,1-1c0-0.6-0.5-1-1-1C438.2,94.7,437.7,95.1,437.7,95.7"/>
			<path class="st1" d="M309.8,34c0.2,0.5,0.8,0.8,1.3,0.6c0.5-0.2,0.8-0.8,0.6-1.3c-0.2-0.5-0.8-0.8-1.3-0.6
				C309.9,32.9,309.6,33.5,309.8,34"/>
			<path class="st1" d="M343.7,94.7c0,0.6,0.5,1,1,1c0.6,0,1-0.5,1-1c0-0.6-0.5-1-1-1C344.2,93.7,343.7,94.1,343.7,94.7"/>
			<path class="st1" d="M735,112.5c0-0.8,0.7-1.5,1.5-1.5c0.8,0,1.5,0.7,1.5,1.5c0,0.8-0.7,1.5-1.5,1.5
				C735.6,114,735,113.3,735,112.5"/>
			<path class="st1" d="M299.3,105.2c0-0.6-0.5-1-1-1c-0.6,0-1,0.5-1,1c0,0.6,0.5,1,1,1C298.8,106.2,299.3,105.8,299.3,105.2"/>
			<path class="st1" d="M624.5,70c0-0.6-0.5-1-1-1c-0.6,0-1,0.5-1,1c0,0.6,0.5,1,1,1C624,71,624.5,70.6,624.5,70"/>
			<path class="st1" d="M91.9,152.9c0,0.6,0.5,1,1,1c0.6,0,1-0.5,1-1c0-0.6-0.5-1-1-1C92.4,151.9,91.9,152.4,91.9,152.9"/>
			<path class="st1" d="M280.7,124.8c0,0.6,0.5,1,1,1c0.6,0,1-0.5,1-1c0-0.6-0.5-1-1-1C281.2,123.8,280.7,124.2,280.7,124.8"/>
			<path class="st1" d="M150.8,212.1c0-0.6-0.5-1-1-1c-0.6,0-1,0.5-1,1c0,0.6,0.5,1,1,1C150.4,213.1,150.8,212.7,150.8,212.1"/>
			<path class="st1" d="M613.6,189.4c0-0.6-0.5-1-1-1c-0.6,0-1,0.5-1,1c0,0.6,0.5,1,1,1C613.1,190.5,613.6,190,613.6,189.4"/>
			<path class="st1" d="M616.8,182c0,0.6,0.5,1,1,1c0.6,0,1-0.5,1-1c0-0.6-0.5-1-1-1C617.3,181,616.8,181.4,616.8,182"/>
			<path class="st1" d="M659.4,90.1c0-0.8,0.7-1.5,1.5-1.5c0.8,0,1.5,0.7,1.5,1.5s-0.7,1.5-1.5,1.5C660,91.5,659.4,90.9,659.4,90.1"
				/>
			<path class="st1" d="M637.5,217.4c0-0.6-0.5-1-1-1c-0.6,0-1,0.5-1,1c0,0.6,0.5,1,1,1C637,218.4,637.5,218,637.5,217.4"/>
			<path class="st1" d="M734.4,156.3c0,0.6,0.5,1,1,1c0.6,0,1-0.5,1-1c0-0.6-0.5-1-1-1C734.9,155.3,734.4,155.7,734.4,156.3"/>
			<path class="st1" d="M506.8,176.7c0-0.6-0.5-1-1-1c-0.6,0-1,0.5-1,1c0,0.6,0.5,1,1,1C506.4,177.7,506.8,177.2,506.8,176.7"/>
			<path class="st1" d="M352.7,44.3c0,0.6,0.5,1,1,1c0.6,0,1-0.5,1-1c0-0.6-0.5-1-1-1C353.2,43.3,352.7,43.7,352.7,44.3"/>
			<path class="st1" d="M661.5,97.9c0-0.6-0.5-1-1-1c-0.6,0-1,0.5-1,1c0,0.6,0.5,1,1,1C661.1,98.9,661.5,98.5,661.5,97.9"/>
			<path class="st1" d="M568.7,218.4c0-0.6-0.5-1-1-1c-0.6,0-1,0.5-1,1c0,0.6,0.5,1,1,1C568.2,219.5,568.7,219,568.7,218.4"/>
		</g>
		<g>
			<defs>
				<rect id="SVGID_2_" x="0" y="0" width="750" height="500"/>
			</defs>
			<clipPath id="SVGID_3_">
				<use xlink:href="#SVGID_2_"  style="overflow:visible;"/>
			</clipPath>
			<g class="st2">
				<path class="st3" d="M846.1,52.2c-43.9-7.3-131.8-21.8-141.1,37.4c-16.2-5.2-31.2,5.2-30.1,20.8c-10.4-1-23.1,0-26.6,10.4
					c-16.3-11.4-27.8-6.2-37,4.1c-1.5-13.9-13.8-26.9-21.1-31c-25.5-14-68.6-9.7-81.8,25.8c-6.9-11.4-28.9-11.4-32.4-1
					c2.3-14.5-20.8-20.5-28.3-10.1c2-28.5-28.3-52.2-58.4-51.1c-37,1-45.1,32.7-45.1,47.8c-12.7-6.2-32.4-4.2-35.9,10.4
					c-19.7-12.5-45.1-11.4-57.8,6.2c-4.6-14.5-45.1-14.5-55.5-4.2c0-8.3-10.4-18.7-19.7-18.7c-10.4,0-13.9,8.3-17.3,16.6
					c3.5-17.7-24.3-19.7-34.7-10.4c9.3-22.8-26.6-32.2-42.8-22.8c1.2-19.7-53.2-21.8-60.1-5.2C23.9,60.5,6.6,54.3-8.5,53.2
					C27.4-16.3-81.3-75.5-143.8-32.9c-63.6,43.6-31.2,153.7,11.6,199.3c54.4,60.2,172.3,57.1,249.8,60.2
					c145.7,5.2,291.4,8.3,436,18.7c77.5,5.2,158.4,11.4,234.8-1c10.4-1,130.7-21.8,109.9-37.4L846.1,52.2z"/>
				<path class="st3" d="M-9.3,125.4c34.7-5.6,104-16.7,111.3,28.6c12.8-4,24.6,4,23.7,15.9c8.2-0.8,18.2,0,21,8
					c12.8-8.7,21.9-4.8,29.2,3.2c1.2-10.7,10.9-20.6,16.7-23.7c20.2-10.8,54.1-7.4,64.5,19.7c5.5-8.7,22.8-8.7,25.5-0.8
					c-1.8-11.1,16.4-15.7,22.4-7.8c-1.6-21.9,22.4-40,46.1-39.2c29.2,0.8,35.6,25,35.6,36.6c10-4.8,25.5-3.2,28.3,8
					c15.5-9.5,35.6-8.7,45.6,4.8c3.6-11.1,35.6-11.1,43.8-3.2c0-6.4,8.2-14.3,15.5-14.3c8.2,0,10.9,6.4,13.7,12.7
					c-2.7-13.5,19.2-15.1,27.4-8c-7.3-17.5,21-24.7,33.8-17.5c-0.9-15.1,42-16.7,47.4-4c-2.7-12.7,10.9-17.5,22.8-18.3
					c-28.3-53.3,57.5-98.6,106.8-66c50.2,33.4,24.6,117.7-9.1,152.7C719.7,259,626.6,256.6,565.5,259c-115,4-229.9,6.4-344,14.3
					c-61.1,4-125,8.7-185.2-0.8c-8.2-0.8-103.1-16.7-86.7-28.6L-9.3,125.4z"/>
			</g>
		</g>
	</g>
</g>
<g id="OBJECTS">
	<ellipse transform="matrix(0.7258 -0.6879 0.6879 0.7258 23.9446 171.3827)" class="st4" cx="227" cy="55.7" rx="21" ry="21"/>
	<g>
		<g>
			<defs>
				<rect id="SVGID_4_" x="0" y="0" width="750" height="500"/>
			</defs>
			<clipPath id="SVGID_5_">
				<use xlink:href="#SVGID_4_"  style="overflow:visible;"/>
			</clipPath>
			<g class="st5">
				<g>
					<path class="st6" d="M750.4,356.5c-3.1,3.3-6.1,4.9-10.2,5.7c-6.9,1.3-16,0-22.7-0.2c-18.4-0.4-36.9-0.7-55.3-1.5
						c-55.9-2.2-111.8-3.1-167.7-3.6c-66.1-0.6-132.1-2.7-198.2-4.5c-52.1-1.5-104.3-0.6-156.4-2.9c-43.9-1.9-87.6-7.8-131.5-10.9
						c-18.9-1.3-38.3-1.7-57.1-5c-9.4-1.7-1.9-46.8-1.2-52.6c1.7-14.7,4-29.3,6.5-43.8c1.2-7,0.5-10.4-0.6-16.9
						c-1.2-7.5,1.4-14,4.6-20.5c5.7-11.4,12.9-24,24.7-26.3c3.5-0.7,7-0.4,10.5-1c12.5-2.3,21.4-15.7,34-17.4
						c5.7-0.8,11.5,1,17.3,1.4c8.9,0.6,17.7-2,26.7-2.3c16.6-0.5,32.4,6.9,48.2,12.5c11.7,4.1,24.5,7.3,36.9,5.1
						c11.8-2.1,20.2-4.8,31.8,1.9c2.7,1.5,5.2,3.5,8,4.5c10.3,3.8,20.7-3.3,30.4,3.3c8.7,5.9,18.4,9.3,27.5,14.8
						c3,1.8,6,3.8,9.4,4.5c2.6,0.5,5.3,0.2,8-0.1c8.7-0.8,17.4-0.6,26,1.1c10.8,2.1,21.4,6.6,32.4,6.9c9.4,0.3,16.8-4.9,25.9-7.1
						c7.2-1.7,13.4,0.3,20.4-0.5c12.8-1.5,23.2-11.1,35.7-13.3c11.6-2.1,20,2.5,30.4-6.9c2.4-2.2,4.7-4.9,7.7-5.9
						c2.6-0.9,5.5-0.4,8.3-0.3c9.3,0.3,18-4.1,26.7-7.6c7.4-2.9,10.8-0.6,17.5,0.6c6.5,1.2,12.5-3.7,19-2.1c2.3,0.6,4.2,1.9,6.2,3.2
						c10.1,6.8,19.1,9.9,30.8,10.5c12,0.7,25.4,0.5,37,4.2c4.6,1.5,9,3.7,13.6,4.9c12.3,3.3,23.3-0.7,35.2-2.7
						c12.9-2.1,26.6-1,39.8-1c29.7,0,49.9-20.2,76.5-30.5C762.7,154.2,755.7,350.7,750.4,356.5z"/>
					<path class="st7" d="M-19,218.3c15.6-0.3,35.4-3.9,50.1-2.8c24.6,1.8,29.8-3.5,51.1-2.1c24.6,1.7,56.3,2,74.7,1.5
						c22.7-0.6,38.3-3.4,60-1.1c10.4,1.1-0.9,3.1,27.9,1c10.9-0.8,15.1-0.8,27.9-0.4c21.7,0.8,47.3,0.4,65.2,0.8
						c-14.7,0.6-54.4-0.3-78.9,1.3c-30.3,1.7-47.7,2.5-78.5,1.1c-24.1-1.3-53.4-1.7-78-0.8c-26.5,0.7-40.7,4.7-69,2.5
						c-12.8-1.1-17.5-1.1-30.3-0.8c-8.5,0.1-18.9,0.4-32.1,0.3L-19,218.3z"/>
					<path class="st7" d="M484,213c25.2-3.8,50.4-0.6,76.9-2.7c10.7-0.8,32.8-11.1,41.6-5.2c0.9-6.1,14.2-7.1,18.3-2.1
						c1.9-3.1,7.6-4,12.3-3.4c1.3-4.4,12.6-6.1,18.6-5.2c8.2,1,10.7,4.8,12.6,9.4c1.9,5.2,0,6.3,8.8,7.1c4.7,0.4,12.3-0.8,11.7,2.3
						L484,213z"/>
					<path class="st8" d="M-1.1,398.5c3.1,3.3,6.1,4.9,10.2,5.7c6.9,1.3,16,0,22.7-0.2c18.4-0.4,36.9-0.7,55.3-1.5
						c55.9-2.2,111.8-3.1,167.7-3.6c66.1-0.6,132.1-2.7,198.2-4.5c52.1-1.5,104.3-0.6,156.4-2.9c43.9-1.9,87.6-7.8,131.5-10.9
						c18.9-1.3,38.3-1.7,57.1-5c9.4-1.7,1.9-46.8,1.2-52.6c-1.7-14.7-4-29.3-6.5-43.8c-1.2-7-0.5-10.4,0.6-16.9
						c1.2-7.5-1.4-14-4.6-20.5c-5.7-11.4-12.9-24-24.7-26.3c-3.5-0.7-7-0.4-10.5-1c-12.5-2.3-21.4-15.7-34-17.4
						c-5.7-0.8-11.5,1-17.3,1.4c-8.9,0.6-17.7-2-26.7-2.3c-16.6-0.5-32.4,6.9-48.2,12.5c-11.7,4.1-24.5,7.3-36.9,5.1
						c-11.8-2.1-20.2-4.8-31.8,1.9c-2.7,1.5-5.2,3.5-8,4.5c-10.3,3.8-20.7-3.3-30.4,3.3c-8.7,5.9-18.4,9.3-27.5,14.8
						c-3,1.8-6,3.8-9.4,4.5c-2.6,0.5-5.3,0.2-8-0.1c-8.7-0.8-17.4-0.6-26,1.1c-10.8,2.1-21.4,6.6-32.4,6.9
						c-9.4,0.3-16.8-4.9-25.9-7.1c-7.2-1.7-13.4,0.3-20.4-0.5c-12.8-1.5-23.2-11.1-35.7-13.3c-11.6-2.1-20,2.5-30.4-6.9
						c-2.4-2.2-4.7-4.9-7.7-5.9c-2.6-0.9-5.5-0.4-8.3-0.3c-9.3,0.3-18-4.1-26.7-7.6c-7.4-2.9-10.8-0.6-17.5,0.6
						c-6.5,1.2-12.5-3.7-19-2.1c-2.3,0.6-4.2,1.9-6.2,3.2c-10.1,6.8-19.1,9.9-30.8,10.5c-12,0.7-25.4,0.5-37,4.2
						c-4.6,1.5-9,3.7-13.6,4.9c-12.3,3.3-23.3-0.7-35.2-2.7c-12.9-2.1-26.6-1-39.8-1c-29.7,0-49.9-20.2-76.5-30.5
						C-13.5,196.2-6.5,392.7-1.1,398.5z"/>
					<linearGradient id="SVGID_6_" gradientUnits="userSpaceOnUse" x1="394.6214" y1="424.7238" x2="394.6214" y2="215.9856">
						<stop  offset="0.297" style="stop-color:#EFC33F"/>
						<stop  offset="0.7091" style="stop-color:#FFFFFF;stop-opacity:0"/>
					</linearGradient>
					<path class="st9" d="M-1.1,418.5c3.1,3.3,6.1,4.9,10.2,5.7c6.9,1.3,16,0,22.7-0.2c18.4-0.4,36.9-0.7,55.3-1.5
						c55.9-2.2,111.8-3.1,167.7-3.6c66.1-0.6,132.1-2.7,198.2-4.5c52.1-1.5,104.3-0.6,156.4-2.9c43.9-1.9,87.6-7.8,131.5-10.9
						c18.9-1.3,38.3-1.7,57.1-5c9.4-1.7,1.9-46.8,1.2-52.6c-1.7-14.7-4-29.3-6.5-43.8c-1.2-7-0.5-10.4,0.6-16.9
						c1.2-7.5-1.4-14-4.6-20.5c-5.7-11.4-12.9-24-24.7-26.3c-3.5-0.7-7-0.4-10.5-1c-12.5-2.3-21.4-15.7-34-17.4
						c-5.7-0.8-11.5,1-17.3,1.4c-8.9,0.6-17.7-2-26.7-2.3c-16.6-0.5-32.4,6.9-48.2,12.5c-11.7,4.1-24.5,7.3-36.9,5.1
						c-11.8-2.1-20.2-4.8-31.8,1.9c-2.7,1.5-5.2,3.5-8,4.5c-10.3,3.8-20.7-3.3-30.4,3.3c-8.7,5.9-18.4,9.3-27.5,14.8
						c-3,1.8-6,3.8-9.4,4.5c-2.6,0.5-5.3,0.2-8-0.1c-8.7-0.8-17.4-0.6-26,1.1c-10.8,2.1-21.4,6.6-32.4,6.9
						c-9.4,0.3-16.8-4.9-25.9-7.1c-7.2-1.7-13.4,0.3-20.4-0.5c-12.8-1.5-23.2-11.1-35.7-13.3c-11.6-2.1-20,2.5-30.4-6.9
						c-2.4-2.2-4.7-4.9-7.7-5.9c-2.6-0.9-5.5-0.4-8.3-0.3c-9.3,0.3-18-4.1-26.7-7.6c-7.4-2.9-10.8-0.6-17.5,0.6
						c-6.5,1.2-12.5-3.7-19-2.1c-2.3,0.6-4.2,1.9-6.2,3.2c-10.1,6.8-19.1,9.9-30.8,10.5c-12,0.7-25.4,0.5-37,4.2
						c-4.6,1.5-9,3.7-13.6,4.9c-12.3,3.3-23.3-0.7-35.2-2.7c-12.9-2.1-26.6-1-39.8-1c-29.7,0-49.9-20.2-76.5-30.5
						C-13.5,216.2-6.5,412.7-1.1,418.5z"/>
				</g>
				<path class="st10" d="M170.4,262.4c6.9-0.3,15.7-3.9,22.3-2.8c10.9,1.8,13.2-3.5,22.7-2.1c11,1.7,25,2,33.2,1.5
					c10.1-0.6,17-3.3,26.7-1.1c4.6,1.1-0.4,3.1,12.4,1c4.8-0.8,6.7-0.8,12.4-0.4c9.7,0.8,21,0.4,29,0.8c-6.5,0.6-24.2-0.3-35.1,1.3
					c-13.5,1.7-21.2,2.5-34.9,1.1c-10.7-1.3-23.7-1.7-34.7-0.8c-11.8,0.7-18.1,4.7-30.7,2.5c-5.7-1.1-7.8-1.1-13.5-0.8
					c-3.8,0.1-8.4,0.4-14.3,0.3L170.4,262.4z"/>
				<path class="st10" d="M356.2,266.9c15.6-0.3,35.4-3.9,50.1-2.8c24.6,1.8,29.8-3.5,51.1-2.1c24.6,1.7,56.3,2,74.7,1.5
					c22.7-0.6,38.3-3.3,60-1.1c10.4,1.1-0.9,3.1,27.9,1c10.9-0.8,15.1-0.8,27.9-0.4c21.7,0.8,47.3,0.4,65.2,0.8
					c-14.7,0.6-54.4-0.3-79,1.3c-30.3,1.7-47.8,2.5-78.5,1.1c-24.1-1.3-53.4-1.7-78-0.8c-26.5,0.7-40.7,4.7-69,2.5
					c-12.8-1.1-17.5-1.1-30.3-0.8c-8.5,0.1-18.9,0.4-32.1,0.3L356.2,266.9z"/>
				<g>
					<path class="st11" d="M786.9,453.7c-17.6,7.7-37.3,11.5-56,14.8c-58.9,10.1-119.4,6.6-178.9,4.2
						c-128.4-5.2-254.8-24.1-382.4-37.3c-59-6.1-117.7-6.6-176.9-6c-7.7,0.1-22.6,2.4-29.1-2.4c-10.4-7.7-4.7-34-4.1-45.8
						c1.4-28.3,6.7-59.9-10.8-120.2c17.6,0,36.6,10.1,53.8,4.4c9.9-3.3,16.3-7.6,26.9-5c12.7,3.1,19.4,2,31.6-3.1
						c8.7-3.6,19.7-11.2,29.4-11.2c11.8,0,24,11.1,34.5,15.6c17,7.2,32.9,4.6,50.6,6.6c21.4,2.5,39,8.4,58.5,16
						c6.6,2.6,13.8,3.4,20.7,4.9c10.4,2.2,20.4,5.8,30.8,8.3c10.2,2.4,14.6-0.7,24.3-3.3c10.3-2.8,21.4-2.8,31.6,0.3
						c7.3,2.2,14.2-0.3,21.5-1c8.3-0.7,13.2,4.5,21.2,5.9c8.6,1.5,17.2-1.7,25.6-4.3c5.2-1.6,10.8-3,16.1-1.6c2.7,0.7,5.2,2.1,7.8,3
						c7.5,2.8,15.4,1,23.1,1.2c6,0.1,16.7,1.7,21.6-2.7c2.3-2,4.1-5.4,7.2-5.4c2.1,0,4.1,1.7,6.1,1.2c1.3-0.3,2.2-1.4,3-2.4
						c7.7-8.8,12.9-7.8,23.4-9.2c9.1-1.2,15.7-8.3,23-13.1c6-4,12.4-11,20-10.2c5.8,0.6,10.9,4,16,7.1c7.7,4.7,15.7,8.7,24,12
						c4.5,1.8,9.2,3.5,14.1,3.8c8.6,0.6,17-2.8,25.5-4.4c10.9-2,22.5-0.6,32.7,3.8c4.1,1.7,8,4,12.3,5c8,1.8,16.3-0.9,24.5-1.8
						c8.2-0.9,16.6,0,24.4,2.7c4.6,1.6,9,3.8,13.8,4.5c7.4,1.1,14.7-1.3,22.2-1.9c8.5-0.7,17.2,1.1,24.7,5c3,1.6,5.9,3.6,7.6,6.5
						c3.5,5.9,1,13.3,0.5,20.2c-0.6,8.8,2.3,17.4,4.2,26c1.9,8.6,2.7,18.1-1.8,25.7c-0.3-0.7-2.1-1-2.1-0.2
						c-0.6,17.5,2.2,34.4,2.2,51.8C805.7,435.9,800.7,447.8,786.9,453.7z"/>
					<linearGradient id="SVGID_7_" gradientUnits="userSpaceOnUse" x1="378.7569" y1="475.2869" x2="378.7569" y2="246.0015">
						<stop  offset="0.297" style="stop-color:#EFC931"/>
						<stop  offset="0.7091" style="stop-color:#FFFFFF;stop-opacity:0"/>
					</linearGradient>
					<path class="st12" d="M786.9,453.7c-17.6,7.7-37.3,11.5-56,14.8c-58.9,10.1-119.4,6.6-178.9,4.2
						c-128.4-5.2-254.8-24.1-382.4-37.3c-59-6.1-117.7-6.6-176.9-6c-7.7,0.1-22.6,2.4-29.1-2.4c-10.4-7.7-4.7-34-4.1-45.8
						c1.4-28.3,6.7-59.9-10.8-120.2c17.6,0,36.6,10.1,53.8,4.4c9.9-3.3,16.3-7.6,26.9-5c12.7,3.1,19.4,2,31.6-3.1
						c8.7-3.6,19.7-11.2,29.4-11.2c11.8,0,24,11.1,34.5,15.6c17,7.2,32.9,4.6,50.6,6.6c21.4,2.5,39,8.4,58.5,16
						c6.6,2.6,13.8,3.4,20.7,4.9c10.4,2.2,20.4,5.8,30.8,8.3c10.2,2.4,14.6-0.7,24.3-3.3c10.3-2.8,21.4-2.8,31.6,0.3
						c7.3,2.2,14.2-0.3,21.5-1c8.3-0.7,13.2,4.5,21.2,5.9c8.6,1.5,17.2-1.7,25.6-4.3c5.2-1.6,10.8-3,16.1-1.6c2.7,0.7,5.2,2.1,7.8,3
						c7.5,2.8,15.4,1,23.1,1.2c6,0.1,16.7,1.7,21.6-2.7c2.3-2,4.1-5.4,7.2-5.4c2.1,0,4.1,1.7,6.1,1.2c1.3-0.3,2.2-1.4,3-2.4
						c7.7-8.8,12.9-7.8,23.4-9.2c9.1-1.2,15.7-8.3,23-13.1c6-4,12.4-11,20-10.2c5.8,0.6,10.9,4,16,7.1c7.7,4.7,15.7,8.7,24,12
						c4.5,1.8,9.2,3.5,14.1,3.8c8.6,0.6,17-2.8,25.5-4.4c10.9-2,22.5-0.6,32.7,3.8c4.1,1.7,8,4,12.3,5c8,1.8,16.3-0.9,24.5-1.8
						c8.2-0.9,16.6,0,24.4,2.7c4.6,1.6,9,3.8,13.8,4.5c7.4,1.1,14.7-1.3,22.2-1.9c8.5-0.7,17.2,1.1,24.7,5c3,1.6,5.9,3.6,7.6,6.5
						c3.5,5.9,1,13.3,0.5,20.2c-0.6,8.8,2.3,17.4,4.2,26c1.9,8.6,2.7,18.1-1.8,25.7c-0.3-0.7-2.1-1-2.1-0.2
						c-0.6,17.5,2.2,34.4,2.2,51.8C805.7,435.9,800.7,447.8,786.9,453.7z"/>
				</g>
				<g class="st13">
					<path class="st14" d="M468.4,322.4c4.4-1.6,10.6-3.5,16-1.7c6.5,2.2,9,0.1,15.9-1.3c6.5-1.3,11.7-3.2,17.8,0
						c7.7-4.3,15,1.1,23.4,0.3c10.5-1.1,14.6-4.8,26.3-3.2c25.2,3.8,10.4,2.2,40.2-0.8c2.7-0.3,9.9,0.8,10.3,1.1
						c7.7-12.1,34-6.2,41.7,1.6c2-4,12.5-5.4,13.7,0c6.1-2.1,11.9-0.6,15.6,1.1c4.6,2.1,9.5-0.5,14.7,0c5.3,0.5,20.6,3,25.1,5.4
						L468.4,322.4z"/>
					<path class="st14" d="M4,331.1c17.5-2.6,35-0.4,53.3-1.9c7.4-0.6,22.7-7.7,28.9-3.6c0.7-4.2,9.8-4.9,12.7-1.5
						c1.3-2.2,5.2-2.8,8.5-2.3c0.9-3,8.7-4.2,12.9-3.6c5.7,0.7,7.4,3.3,8.7,6.5c1.3,3.6,0,4.4,6.1,4.9c3.3,0.3,8.5-0.6,8.1,1.6
						L4,331.1z"/>
					<path class="st14" d="M239.6,290.4c-25.2-3.8-50.4-0.6-76.9-2.7c-10.7-0.8-32.8-11.1-41.6-5.2c-0.9-6.1-14.2-7.1-18.3-2.1
						c-1.9-3.1-7.6-4-12.3-3.4c-1.3-4.4-12.6-6.1-18.6-5.2c-8.2,1-10.7,4.8-12.6,9.4c-1.9,5.2,0,6.3-8.8,7.1
						c-4.7,0.4-12.3-0.8-11.7,2.3L239.6,290.4z"/>
				</g>
				<g>
					<path class="st15" d="M-80.7,499.5c3.3,3.4,6.7,5.1,11.2,6c7.7,1.5,17.8,0.5,25.4,0.5c20.6,0.1,41.1,0.3,61.7,0.1
						c62.4-0.6,124.7,0.1,187.1,1.2c73.7,1.3,147.3,1.2,221,1.2c58.2,0,116.3,2.4,174.5,1.6c49-0.7,97.9-5.3,146.9-7.1
						c21.2-0.8,42.7-0.6,63.8-3.4c10.5-1.4,3.4-46.7,2.8-52.5c-1.6-14.7-3.7-29.4-6.1-44c-1.2-7-0.2-10.4,1.1-16.9
						c1.6-7.5-1.2-14-4.6-20.6c-6.1-11.5-13.8-24.3-26.8-27c-3.8-0.8-7.8-0.6-11.7-1.3c-13.9-2.6-23.5-16.3-37.4-18.4
						c-6.4-1-12.8,0.6-19.3,0.9c-10,0.4-19.7-2.5-29.7-3.1c-18.5-1-36.3,6-54.1,11.1c-13.2,3.8-27.5,6.6-41.2,4
						c-13.1-2.4-22.4-5.4-35.5,1c-3,1.5-5.8,3.3-9,4.3c-11.6,3.5-22.9-3.9-34,2.4c-9.9,5.6-20.7,8.8-31,14
						c-3.4,1.7-6.8,3.6-10.6,4.2c-3,0.4-6,0-8.9-0.3c-9.6-1.1-19.4-1.1-29,0.3c-12.1,1.8-24,6-36.3,6c-10.5,0-18.7-5.4-28.7-7.8
						c-7.9-1.9-15-0.1-22.7-1.1c-14.2-1.8-25.5-11.8-39.5-14.4c-12.9-2.4-22.4,2-33.7-7.8c-2.7-2.3-5.1-5-8.4-6.2
						c-2.9-1-6.1-0.6-9.2-0.6c-10.3,0-19.9-4.7-29.5-8.3c-8.2-3.1-12-0.9-19.6,0.1c-7.2,1-13.9-4-21.1-2.6c-2.5,0.5-4.8,1.8-7,3
						c-11.5,6.5-21.5,9.3-34.6,9.6c-13.4,0.3-28.3-0.2-41.4,3.1c-5.2,1.3-10.1,3.4-15.3,4.5c-13.8,3-25.9-1.4-39.2-3.7
						c-14.4-2.5-29.7-1.7-44.3-2.1c-33.1-0.9-55.1-21.6-84.4-32.7C-89.2,296.9-86.5,493.6-80.7,499.5z"/>
					<linearGradient id="SVGID_8_" gradientUnits="userSpaceOnUse" x1="363.6616" y1="510.3315" x2="363.6616" y2="296.897">
						<stop  offset="0.1091" style="stop-color:#F9F932"/>
						<stop  offset="0.7091" style="stop-color:#FFFFFF;stop-opacity:0"/>
					</linearGradient>
					<path class="st16" d="M-80.7,499.5c3.3,3.4,6.7,5.1,11.2,6c7.7,1.5,17.8,0.5,25.4,0.5c20.6,0.1,41.1,0.3,61.7,0.1
						c62.4-0.6,124.7,0.1,187.1,1.2c73.7,1.3,147.3,1.2,221,1.2c58.2,0,116.3,2.4,174.5,1.6c49-0.7,97.9-5.3,146.9-7.1
						c21.2-0.8,42.7-0.6,63.8-3.4c10.5-1.4,3.4-46.7,2.8-52.5c-1.6-14.7-3.7-29.4-6.1-44c-1.2-7-0.2-10.4,1.1-16.9
						c1.6-7.5-1.2-14-4.6-20.6c-6.1-11.5-13.8-24.3-26.8-27c-3.8-0.8-7.8-0.6-11.7-1.3c-13.9-2.6-23.5-16.3-37.4-18.4
						c-6.4-1-12.8,0.6-19.3,0.9c-10,0.4-19.7-2.5-29.7-3.1c-18.5-1-36.3,6-54.1,11.1c-13.2,3.8-27.5,6.6-41.2,4
						c-13.1-2.4-22.4-5.4-35.5,1c-3,1.5-5.8,3.3-9,4.3c-11.6,3.5-22.9-3.9-34,2.4c-9.9,5.6-20.7,8.8-31,14
						c-3.4,1.7-6.8,3.6-10.6,4.2c-3,0.4-6,0-8.9-0.3c-9.6-1.1-19.4-1.1-29,0.3c-12.1,1.8-24,6-36.3,6c-10.5,0-18.7-5.4-28.7-7.8
						c-7.9-1.9-15-0.1-22.7-1.1c-14.2-1.8-25.5-11.8-39.5-14.4c-12.9-2.4-22.4,2-33.7-7.8c-2.7-2.3-5.1-5-8.4-6.2
						c-2.9-1-6.1-0.6-9.2-0.6c-10.3,0-19.9-4.7-29.5-8.3c-8.2-3.1-12-0.9-19.6,0.1c-7.2,1-13.9-4-21.1-2.6c-2.5,0.5-4.8,1.8-7,3
						c-11.5,6.5-21.5,9.3-34.6,9.6c-13.4,0.3-28.3-0.2-41.4,3.1c-5.2,1.3-10.1,3.4-15.3,4.5c-13.8,3-25.9-1.4-39.2-3.7
						c-14.4-2.5-29.7-1.7-44.3-2.1c-33.1-0.9-55.1-21.6-84.4-32.7C-89.2,296.9-86.5,493.6-80.7,499.5z"/>
				</g>
				<g class="st13">
					<path class="st14" d="M49.2,365c3.1-1.1,7.3-2.4,11.1-1.2c4.5,1.5,6.3,0.1,11-0.9c4.5-0.9,8.1-2.2,12.3,0
						c5.3-3,10.4,0.7,16.3,0.2c7.3-0.7,10.1-3.4,18.2-2.2c17.4,2.6,7.2,1.5,27.8-0.6c1.9-0.2,6.9,0.6,7.1,0.8
						c5.3-8.4,23.6-4.3,28.9,1.1c1.4-2.8,8.7-3.7,9.5,0c4.2-1.5,8.2-0.4,10.8,0.7c3.2,1.5,6.6-0.4,10.2,0c3.6,0.4,14.3,2,17.4,3.7
						L49.2,365z"/>
					<path class="st14" d="M383.9,418.9c6.9-0.3,15.7-3.9,22.3-2.8c10.9,1.8,13.2-3.5,22.7-2.1c11,1.7,25,2,33.2,1.5
						c10.1-0.6,17-3.4,26.7-1.1c4.6,1.1-0.4,3.1,12.4,1c4.9-0.8,6.7-0.8,12.4-0.4c9.7,0.8,21,0.4,29,0.8c-6.5,0.6-24.2-0.3-35.1,1.3
						c-13.5,1.7-21.2,2.5-34.9,1.1c-10.7-1.3-23.7-1.7-34.7-0.8c-11.8,0.7-18.1,4.7-30.7,2.5c-5.7-1.1-7.8-1.1-13.4-0.8
						c-3.8,0.1-8.4,0.4-14.3,0.3L383.9,418.9z"/>
					<path class="st14" d="M276.3,383.2c6.9-0.3,15.7-3.9,22.3-2.8c10.9,1.8,13.2-3.5,22.7-2.1c11,1.7,25,2,33.2,1.5
						c10.1-0.6,17-3.3,26.7-1.1c4.6,1.1-0.4,3.1,12.4,1c4.8-0.8,6.7-0.8,12.4-0.4c9.7,0.8,21,0.4,29,0.8c-6.5,0.6-24.2-0.3-35.1,1.3
						c-13.5,1.7-21.2,2.5-34.9,1.1c-10.7-1.3-23.7-1.7-34.7-0.8c-11.8,0.7-18.1,4.7-30.7,2.5c-5.7-1.1-7.8-1.1-13.5-0.8
						c-3.8,0.1-8.4,0.4-14.3,0.3L276.3,383.2z"/>
					<path class="st14" d="M477.4,362c15.6-0.3,35.4-3.9,50.1-2.8c24.6,1.8,29.8-3.5,51.1-2.1c24.6,1.7,56.3,2,74.7,1.5
						c22.7-0.6,38.3-3.4,60-1.1c10.4,1.1-0.9,3.1,27.9,1c10.9-0.8,15.1-0.8,27.9-0.4c21.7,0.8,47.3,0.4,65.2,0.8
						c-14.7,0.6-54.4-0.3-79,1.3c-30.3,1.7-47.7,2.5-78.5,1.1c-24.1-1.3-53.4-1.7-78-0.8c-26.5,0.7-40.7,4.7-69,2.5
						c-12.8-1.1-17.5-1.1-30.3-0.8c-8.5,0.1-18.9,0.4-32.1,0.3L477.4,362z"/>
				</g>
				<g>
					<path class="st3" d="M629.4,396.1c-16.7-2.8-50-8.3-53.5,14.2c-6.1-2-136.6,28.3-136.1,34.3c-3.9-0.4-8.8,0-10.1,3.9
						c-6.2-4.3-10.5-2.4-14,1.6c-0.6-5.3-5.2-10.2-8-11.7c-9.7-5.3-26-3.7-31,9.8c-2.6-4.3-11-4.3-12.3-0.4
						c0.9-5.5-7.9-7.8-10.7-3.8c0.8-10.8-10.7-19.8-22.1-19.4c-14,0.4-17.1,12.4-17.1,18.1c-4.8-2.4-12.3-1.6-13.6,3.9
						c-7.5-4.7-17.1-4.3-21.9,2.4c-1.8-5.5-17.1-5.5-21-1.6c0-3.1-3.9-7.1-7.5-7.1c-3.9,0-5.3,3.1-6.6,6.3c1.3-6.7-9.2-7.5-13.2-3.9
						c3.5-8.7-10.1-12.2-16.2-8.7c0.4-7.5-20.2-8.3-22.8-2c1.3-6.3-5.3-8.7-11-9.1c-9.3-27.8-24.6-25.9-48.3-9.8
						c-24.1,16.5-14.8,35.4,1.4,52.7c20.6,22.8,65.3,21.6,94.7,22.8c55.2,2,110.5,3.1,165.3,7.1c29.4,2,60.1,4.3,89-0.4
						c3.9-0.4,49.5-8.3,41.6-14.2L629.4,396.1z"/>
					<path class="st3" d="M180.3,450.2c13.1-2.1,39.4-6.3,42.2,10.9c4.8-1.5,9.3,1.5,9,6c3.1-0.3,6.9,0,8,3
						c4.9-3.3,8.3-1.8,11.1,1.2c0.4-4,4.1-7.8,6.3-9c7.6-4.1,20.5-2.8,24.5,7.5c2.1-3.3,8.6-3.3,9.7-0.3c-0.7-4.2,6.2-6,8.5-2.9
						c-0.6-8.3,8.5-15.1,17.5-14.8c11.1,0.3,13.5,9.5,13.5,13.9c3.8-1.8,9.7-1.2,10.7,3c5.9-3.6,13.5-3.3,17.3,1.8
						c1.4-4.2,13.5-4.2,16.6-1.2c0-2.4,3.1-5.4,5.9-5.4c3.1,0,4.1,2.4,5.2,4.8c-1-5.1,7.3-5.7,10.4-3c-2.8-6.6,8-9.3,12.8-6.6
						c-0.3-5.7,15.9-6.3,18-1.5c-1-4.8,4.1-6.6,8.6-6.9c-10.7-20.2,21.8-37.4,40.5-25c19,12.7,9.3,44.6-3.5,57.9
						c-16.3,17.5-51.5,16.6-74.7,17.5c-43.6,1.5-87.2,2.4-130.4,5.4c-23.2,1.5-47.4,3.3-70.2-0.3c-3.1-0.3-39.1-6.3-32.9-10.9
						L180.3,450.2z"/>
				</g>
			</g>
			<path class="st17" d="M807.5,403.2c-1.2-7-0.2-10.4,1.1-16.9c1.3-6-0.2-11.4-2.7-16.7c1.8-3.2,2.7-6.8,2.9-10.4
				c10.7,0,19.9,0,25.5-0.2c-7.5-0.2-16.2-0.2-25.5-0.2c0.3-4.8-0.4-9.7-1.4-14.4c-1.9-8.6-4.8-17.2-4.2-26c0.5-6.8,3-14.3-0.5-20.2
				c-1.7-2.9-4.6-4.9-7.6-6.5c-0.1,0-0.2-0.1-0.2-0.1c-0.5-3-1-6-1.5-9c0-0.1,0-0.2,0.1-0.3c0.7-4.4,0.1-8.4-1.1-12.3
				c0.2-2.3,0.6-4.7,1.1-7.7c1.2-7.5-1.4-14-4.6-20.5c-5.7-11.4-12.9-24-24.7-26.3c-1.2-0.2-2.5-0.4-3.7-0.5
				c1.5-34,2.4-60.7,2.4-60.7c-26.6,10.4-46.8,30.5-76.5,30.5c-13.1,0-26.8-1.2-39.8,1c-11.9,2-22.9,6-35.2,2.7
				c-4.6-1.2-9-3.5-13.6-4.9c-11.6-3.7-25-3.5-37-4.2c-11.7-0.6-20.6-3.7-30.8-10.5c-2-1.3-4-2.7-6.2-3.2c-6.5-1.6-12.5,3.3-19,2.1
				c-6.8-1.2-10.1-3.5-17.5-0.6c-8.7,3.4-17.4,7.9-26.7,7.6c-2.8-0.1-5.6-0.6-8.3,0.3c-3,1-5.3,3.7-7.7,5.9
				c-10.4,9.4-18.8,4.8-30.4,6.9c-12.6,2.3-22.9,11.9-35.7,13.3c-6.9,0.8-13.2-1.3-20.4,0.5c-9,2.2-16.5,7.3-25.9,7.1
				c-11.1-0.3-21.6-4.8-32.4-6.9c-8.5-1.7-17.3-1.9-26-1.1c-2.7,0.2-5.4,0.6-8,0.1c-3.4-0.7-6.4-2.7-9.4-4.5
				c-9.1-5.5-18.8-8.9-27.5-14.8c-9.7-6.6-20.1,0.4-30.4-3.3c-2.9-1-5.4-2.9-8-4.5c-11.6-6.8-20-4-31.8-1.9
				c-12.4,2.2-25.2-1-36.9-5.1c-15.8-5.6-31.6-13-48.2-12.5c-8.9,0.3-17.8,2.9-26.7,2.3c-5.8-0.4-11.5-2.2-17.3-1.4
				c-12.6,1.7-21.5,15.2-34,17.4c-3.5,0.6-7,0.3-10.5,1c-11.8,2.4-19,15-24.7,26.3c-3.3,6.5-5.9,13-4.6,20.5
				c1.1,6.5,1.8,9.9,0.6,16.9c-1.4,8-2.7,16-3.9,24c-1.4-0.1-2.7-0.2-4-0.2c1,3.3,1.8,6.5,2.7,9.7c-0.5,3.4-0.9,6.9-1.3,10.3
				c-0.4,3.4-3.1,19.9-3.4,33.6c-11.5-6.1-22.9-12.8-35.7-17.6c0,0,2.7,196.7,8.5,202.6c3.3,3.4,6.7,5.1,11.2,6
				c7.7,1.5,17.8,0.5,25.4,0.5c20.6,0.1,41.1,0.3,61.7,0.1c62.4-0.6,124.7,0.1,187.1,1.2c1.9,0,3.7,0.1,5.6,0.1
				c9.6,0.8,19.3,0.8,29.1,0.4c62.1,0.8,124.3,0.7,186.4,0.7c58.2,0,116.3,2.4,174.5,1.6c49-0.7,97.9-5.3,146.9-7.1
				c21.2-0.8,42.7-0.6,63.8-3.4c10.5-1.4,3.4-46.7,2.8-52.5C812,432.5,809.9,417.8,807.5,403.2z"/>
		</g>
		<g>
			<g>
				<defs>
					<rect id="SVGID_9_" x="0" y="0" width="750" height="500"/>
				</defs>
				<clipPath id="SVGID_10_">
					<use xlink:href="#SVGID_9_"  style="overflow:visible;"/>
				</clipPath>
				<g class="st18">
					<g>
						<g>
							<path class="st19" d="M-69.2,209.1c9.6,9,18.1,21,26.6,31c20.2,24,50,38,67,64c8.5,12,9.6,24,21.3,34
								c10.6,11,26.6,17,37.2,27c23.4,19,39.4,50,75.5,48c23.4-1,43.6-16,67-18c24.5-2,50,14,63.8,32c18.1,23,31.9,48,56.4,66
								c19.2,14,44.7,28,60.6,45c-28.7,10-70.2,2-100,1c-59.6-1-119.2-3-178.7-7c-50-4-103.2-6-152.1-13c-23.4-3-47.9,0-68.1,0
								L-69.2,209.1z"/>
						</g>
						<g class="st20">
							<path class="st19" d="M250.4,547.1c-16-20-17-54-35-74c-31-33-58,19-86,5c-12-6-13-27-27-30c-12-3-26,16-37,11
								c-9-3-18-31-22-40c-6-14-10-28-17-41c-10-16-23-41-44-34c-28,9-53,48-66,74c-13,23-22,52-23,78c-2,31,9,48,41,58L250.4,547.1
								z"/>
						</g>
					</g>
					<g>
						<g>
							<path class="st21" d="M124.4,549.1c40.4-8,66.9-27,98.8-49c26.6-18,63.7-39,96.7-39c21.2,1,31.9,4,53.1-4
								c13.8-5,23.4-12,35-20c23.4-17,52-38,80.7-44c31.9-6,63.7,9,94.5,10c36.1,2,52-18,73.3-42c24.4-26,48.9-51,75.4-74
								c24.4-21,41.4-22,73.3-14c19.1,4,43.5,13,62.7,14c3.2,21-9.6,49-10.6,71c-1.1,27,1.1,55,2.1,82c2.1,32,6.4,65,3.2,96
								L124.4,549.1z"/>
						</g>
						<g class="st20">
							<path class="st21" d="M316.4,558.1c22.8-11,34.6-48,55.7-63c29.5-21,54,25,81-3c26.2-27,43.9-53,82.7-49
								c26.2,3,45.6,31,72.6,18c27.8-14,48.1-52,70-76c19.4-20,47.3-40,73.4-41c24.5-1,54.9,6,74.3,23c11.8,10,13.5,19,16,36
								c3.4,25,9.3,50,12.7,75c2.5,19,7.6,104-20.3,103L316.4,558.1z"/>
						</g>
					</g>
				</g>
			</g>
			<path class="st21" d="M385.8,419.9L385.8,419.9c0.1-0.1,0.1-0.2,0.2-0.3c0.1-0.3-0.1-1-0.2-1.4l0,0c0-0.1,0-0.1-0.1-0.1
				c0,0,0-0.1,0-0.1c0,0,0,0,0-0.1c0,0,0-0.1,0-0.1c0-0.1-0.2-0.2-0.3-0.2c0,0,0,0,0,0c-0.1-0.1-0.2-0.3-0.3-0.3
				c-0.1-0.1-0.2-0.2-0.3-0.1c-0.2,0.1-0.3,0.3-0.4,0.4c-0.1,0.1-0.3,0.3-0.2,0.4c0,0,0,0,0,0c0,0,0,0-0.1,0
				c-0.2,0.1-0.2,0.3-0.1,0.5c0,0,0,0,0,0c0,0.3,0.1,0.5,0.2,0.7c0.1,0.3,0.3,0.5,0.6,0.7l0.2,0.2c-0.1,0.8-0.3,2.5-0.4,3.7
				c0,0.2-0.1,0.6-0.2,0.9c-0.4-0.3-1-0.7-1.6-1.2c0,0,0-0.1,0-0.1c0-0.1,0-0.2,0-0.3c-0.1-0.3-0.4-0.4-0.7-0.5
				c-0.5-0.3-0.9-0.7-1.2-1.2c-0.1-0.1-0.2-0.3-0.4-0.4c-0.2-0.2-0.6-0.3-0.9-0.3c-0.2,0-0.3,0-0.4-0.1c-0.2,0.1-0.3,0.1-0.5,0.1
				c0,0-0.1,0-0.1,0c-0.2-0.1-0.5-0.2-0.8-0.3c0,0,0,0,0,0c-0.1-0.2-0.6-0.4-0.6-0.3c0,0.1,0.1,0.2,0.1,0.3
				c-0.1-0.3-0.1-0.7-0.1-1.1c0.1,0,0.1,0,0.2-0.1c0.2-0.1,0.3-0.2,0.5-0.3c0.3,0,0.7-0.2,0.9-0.4c0,0,0.1,0,0.1-0.1
				c0.2-0.1,0.4-0.2,0.5-0.3c0.1-0.1,0.2-0.2,0.2-0.2c0.1,0.1,0.1,0.2,0.3,0.2c-0.1,0,0-0.5,0-0.5c0.1-0.1,0.2-0.2,0.3-0.2
				c0.1,0.1,0.1,0.3,0.2,0.4c0.1-0.1,0.1-0.2,0.1-0.3c0-0.1,0-0.2,0-0.3c0.2,0,0.3,0,0.5,0c0,0-0.1,0-0.1,0c-0.1,0-0.2-0.1-0.2-0.2
				c0-0.1,0-0.2-0.1-0.3c0,0,0,0,0,0c0,0,0,0,0,0c0,0,0,0,0,0c0.1,0,0.1,0,0.2-0.1c0.2,0,0.3,0,0.3,0.1c0-0.1,0-0.1-0.1-0.2
				c0.3-0.2,0.4-0.6,0.3-1c0,0.1,0.1,0.1,0.1,0.2c0.1-0.2,0.1-0.4,0-0.6c0-0.1-0.1-0.1-0.2-0.2c0-0.1,0-0.2,0-0.2
				c-0.1-0.1-0.1,0-0.2-0.1c-0.1-0.1-0.1-0.1-0.1-0.2c0-0.1,0-0.3,0-0.4c0,0,0.1,0.1,0.1,0.1c0-0.2,0-0.4-0.1-0.5
				c-0.1-0.1-0.2-0.2-0.2-0.3c-0.1-0.1-0.1-0.3-0.2-0.4c-0.1-0.1-0.2-0.2-0.3-0.2c-0.2-0.1-0.4-0.2-0.7-0.3c0.1,0,0.1,0,0.2,0
				c0-0.1-0.1-0.2-0.2-0.2c-0.1,0-0.2-0.1-0.3-0.1c0.1-0.1,0.3-0.1,0.5-0.1c0-0.1-0.1-0.1-0.2-0.2c-0.3-0.1-0.6,0.2-0.9-0.1
				c0-0.1-0.3-0.5-0.2-0.5c-0.1,0-0.1,0.1-0.1,0.2c0,0.1,0,0.2,0,0.3c-0.1,0-0.1-0.1-0.1-0.1c-0.2-0.3-0.4-0.3-0.8-0.3
				c-0.2,0-0.4,0-0.5-0.1c-0.1-0.1-0.2-0.2-0.2-0.3c-0.1,0-0.2,0-0.2,0.1c0,0.1,0,0.2,0.1,0.2c-0.1,0-0.2-0.1-0.3-0.1
				c-0.1,0-0.2,0-0.3,0.1c-0.1,0.1-0.2,0.2-0.3,0.2c-0.2,0-0.3-0.1-0.5-0.1c-0.3,0-0.7,0-0.9,0.3c-0.2,0.2-0.2,0.5-0.4,0.4
				c-0.1,0-0.2-0.1-0.2-0.1c-0.1,0.2,0,0.4,0.2,0.4c-0.2,0-0.4,0-0.5,0.1c-0.2,0.1-0.3,0.3-0.2,0.5c0.1-0.1,0.2-0.1,0.3-0.1
				c-0.1,0-0.1,0.4-0.1,0.5c0,0.1,0.1,0.1,0.2,0.2c-0.1,0.1-0.2,0.1-0.2,0.2c0,0.1-0.1,0.2-0.1,0.2c-0.1,0.3-0.2,0.4-0.5,0.3
				c0,0.2,0.1,0.4,0.3,0.4c0.2,0.1,0.3,0.1,0.5,0c-0.1,0.1-0.4,0.3-0.4,0.5c0,0.2,0.1,0.4,0.2,0.4c0-0.2,0.1-0.3,0.3-0.3
				c0,0.1,0,0.2,0.1,0.3c0,0,0.1,0.1,0.2,0.1c0.1,0.1,0.1,0.1,0.1,0.2c-0.1,0.3-0.2,0.6,0,0.9c0.1,0.1,0.2,0.3,0.3,0.4
				c0,0.1,0,0.2,0,0.3c0,0.4,0.3,0.8,0.5,1.1c0.1,0.1,0.3,0.3,0.5,0.4c0,0.3-0.1,0.6-0.4,0.8c0,0,0,0,0,0c0,0,0.1-0.2,0.1-0.2
				c-0.4-0.1-0.6-0.1-0.7,0l0,0c-0.1,0.1-0.2,0.1-0.3,0.2c-0.2,0-0.4-0.1-0.5-0.1c-0.1-0.1-0.1-0.1-0.2-0.1
				c-0.5-0.1-0.9-0.2-1.3-0.1c-0.6,0.2-1,0.3-1.7,0.3c-0.3,0-0.1-0.1-0.4-0.1c-0.3,0-0.5,0.1-0.6,0.4c0,0.2,0,0.3,0,0.5
				c-1.2,0.1-2.1,0-2.5,0c0,0,0,0,0,0c0-0.2-0.1-0.5-0.2-0.7l0,0c-0.4-1.1-1-3-1.2-4l0.2-0.2c0.3-0.2,0.4-0.4,0.5-0.8
				c0.1-0.3,0.1-0.5,0.1-0.7c0,0,0,0,0,0c0.1-0.3,0.1-0.5-0.2-0.5c0,0,0,0-0.1,0c0,0,0,0,0,0c0-0.1-0.2-0.3-0.3-0.4
				c-0.1-0.1-0.3-0.3-0.5-0.4c-0.1,0-0.2,0.1-0.3,0.2c-0.1,0-0.2,0.2-0.3,0.4c0,0,0,0,0,0c-0.1,0-0.2,0.2-0.2,0.3c0,0,0,0.1,0,0.1
				c0,0,0,0,0,0.1c0,0,0,0.1,0,0.1c0,0,0,0.1-0.1,0.1l0,0c-0.1,0.4-0.2,1.2,0,1.4c0.1,0.1,0.1,0.2,0.2,0.3l0,0
				c0.1,0.4,0.5,4.9,0.8,5.9c0.1,0.4,0.4,0.7,0.8,0.8c0.1,0,0.2,0,0.2,0c0.7,0.1,2.4,0.2,3.5,0.2c0.1,0.2,0.3,0.4,0.4,0.5
				c0.1,0.1,0.7,0.1,1.3-0.1l-0.7,2.8c0-0.1,0.1-0.2,0.1-0.3c0,0.2-0.1,0.3-0.2,0.5c-0.2,0.6-1.4,2.6-2.1,2.9
				c-0.2,0.1-0.4,0.3-0.4,0.6c0,0.2,0.3,0.4,0.5,0.5c0.5,0.3,0.5,0.8,0.6,1.3c0,0.1,0.1,0.2,0.1,0.2c0.1,0.3,0.4,0.5,0.7,0.6
				c-0.1,0.4-0.1,0.6-0.1,0.7c-0.1,0.9-0.3,1.8-0.3,2.7c-0.1,2.3,0,7.8,0,10.1c0,1.9-0.4,9.3-0.3,10.4c0.2,0.1,0.3,0.1,0.4,0.1
				c0,0,0,0,0,0c-0.1,0-0.1,0-0.2,0c-0.3,0-0.3,0.3-0.4,0.5c0,0.1-0.1,0.2-0.2,0.4c0,0,0,0,0,0l0,0c-0.1,0.1-0.1,0.2-0.2,0.3
				c0,0,0,0,0,0l0,0c-0.1,0.1-0.1,0.1-0.2,0.2c-0.1,0.1-0.1,0.1-0.2,0.2c0,0,0,0,0,0l0,0c-0.3,0.2-0.6,0.5-1,0.9
				c0,0-0.2,0.3-0.1,0.5c0,0,0,0,0,0c0,0.1,0.1,0.4,0.3,0.5c0.2,0.1,0.4,0.1,0.7,0.1c0.3,0,0.8-0.1,1.2-0.3c0.2-0.1,0.8-0.7,1.1-1
				c0.1,0,0.2,0,0.3,0c0,0,0,0,0,0c0.2,0,0.3-0.2,0.3-0.2c0-0.1,0-0.3,0-0.4c0,0,0-0.1,0-0.1c0-0.2,0-0.4,0-0.6c0-0.1,0-0.2,0-0.2
				c0,0,0-0.1,0-0.1c0,0,0,0,0-0.1c0-0.1-0.1,0-0.1,0c0,0,0,0,0,0c0,0,0-0.1,0-0.1c0-0.1,0-0.3,0.1-0.6c0.1,0,0.2-0.1,0.4-0.1
				c0.1-0.5,0.8-6.6,1.1-10.1c0.3-3.6,1.1-7.3,1.3-8.7l0.4-0.1c0.2,2.9,1.3,17.7,1.4,18.8c0.1,0,0.2,0,0.2,0.1c0,0.3,0,0.6,0.1,0.7
				c0,0-0.1,0-0.1,0c0,0,0,0,0,0.1c0,0,0,0.1,0,0.1c0,0.1,0,0.2,0,0.2c0,0.2,0,0.4,0,0.6c0,0.1,0,0.1,0,0.1c0,0.1,0,0.2,0,0.4
				c0,0,0.1,0.1,0.3,0.2c0,0,0,0,0,0c0.1,0,0.2,0,0.3,0c0.3,0.3,0.9,1,1.1,1.1c0.4,0.2,0.9,0.3,1.2,0.3c0.2,0,0.5,0,0.7-0.1
				c0.1-0.1,0.3-0.4,0.3-0.5c0,0,0,0,0,0c0-0.2-0.1-0.5-0.1-0.5c-0.4-0.4-0.7-0.7-1-1l0,0c0,0,0,0,0,0c-0.1-0.1-0.1-0.1-0.2-0.2
				c-0.1,0-0.1-0.1-0.2-0.2l0,0c0,0,0,0,0,0c-0.1-0.1-0.2-0.2-0.2-0.3l0,0c0,0,0,0,0,0c-0.1-0.1-0.1-0.3-0.2-0.4
				c-0.1-0.2-0.1-0.5-0.4-0.6c-0.1,0-0.2,0-0.3,0c0,0,0,0,0-0.1c0.1,0,0.3-0.1,0.4-0.2c0.2-1.2,0.4-8.7,0.5-10.6
				c0.1-2.3,0.5-7.7,0.5-10c0-0.7-0.1-1.3-0.2-1.9c0.5-0.2,0.8-0.5,1.1-1c0.1-0.1,0.1-0.2,0.2-0.3c0.3-0.2,0.7-0.1,0.9-0.4
				c0.2-0.2,0.1-0.6,0.2-0.8c0-0.1,0.1-0.1,0.1-0.2c0-0.1,0-0.2-0.1-0.2c-0.4-0.8-0.9-1.4-1.1-2.2c-0.2-0.9-0.4-1.9-0.2-2.9
				c0-0.3,0.1-0.5,0.1-0.8c0.4,0.3,0.9,0.5,1.1,0.6c0.1,0.1,0.8,0.6,0.8,0.5c0,0,0,0,0,0c0,0,0,0,0.1,0c0,0,0.1-0.1,0.1-0.1
				c0.9,0.5,1.9,1.1,2,1.1c0.4,0.2,0.8,0.3,1.3,0.3c0,0,0,0,0,0l0,0c0.6,0,1-0.7,1-1.3C386,425,385.8,420.3,385.8,419.9z M377.8,419
				C377.8,419,377.8,419,377.8,419C377.8,419,377.8,419,377.8,419C377.8,419.1,377.8,419,377.8,419z M380.9,416.5
				C380.9,416.5,380.9,416.5,380.9,416.5C380.9,416.5,380.9,416.5,380.9,416.5C380.9,416.5,380.9,416.5,380.9,416.5z M371.4,423.5
				C371.4,423.4,371.4,423.4,371.4,423.5c0,0.3-0.1,0.5-0.2,0.8C371.3,424,371.3,423.7,371.4,423.5z M373.8,437.5
				C373.9,437.5,373.9,437.6,373.8,437.5l0.3,0C374,437.5,373.9,437.6,373.8,437.5C373.8,437.6,373.8,437.6,373.8,437.5z M384.4,424
				c0,0.3-0.1,0.6-0.1,0.8c0,0,0,0,0,0L384.4,424z"/>
		</g>
	</g>
</g>
</svg>
